<svg width="20" height="20" viewBox="0 0 20 20" fill="none" xmlns="http://www.w3.org/2000/svg">
<path fill-rule="evenodd" clip-rule="evenodd" d="M10.0001 0.0998535C10.4972 0.0998535 10.9001 0.502797 10.9001 0.999853V9.09985H19.0001C19.4972 9.09985 19.9001 9.5028 19.9001 9.99985C19.9001 10.4969 19.4972 10.8999 19.0001 10.8999H10.9001V18.9999C10.9001 19.4969 10.4972 19.8999 10.0001 19.8999C9.50304 19.8999 9.1001 19.4969 9.1001 18.9999V10.8999H1.0001C0.503041 10.8999 0.100098 10.4969 0.100098 9.99985C0.100098 9.5028 0.503041 9.09985 1.0001 9.09985H9.1001V0.999853C9.1001 0.502797 9.50304 0.0998535 10.0001 0.0998535Z" fill="#212129"/>
</svg>
