<svg width="16" height="16" viewBox="0 0 16 16" fill="none" xmlns="http://www.w3.org/2000/svg">
<path fill-rule="evenodd" clip-rule="evenodd" d="M8.2523 3.40776C6.95779 3.35527 5.69545 3.72352 4.70044 4.42943C3.70701 5.13421 3.05589 6.12 2.8392 7.19054C2.62297 8.25879 2.84776 9.36665 3.48793 10.3135C3.61853 10.5066 3.65187 10.7495 3.57814 10.9707L3.12598 12.3272L4.97721 11.9333C5.14048 11.8986 5.31068 11.9193 5.46084 11.9922C6.58694 12.5389 7.90626 12.7062 9.16874 12.4561C10.4311 12.206 11.5293 11.5604 12.2705 10.6613C13.0093 9.76487 13.346 8.67631 13.2402 7.59665C13.1344 6.5158 12.589 5.48659 11.6768 4.70854C10.7626 3.92885 9.54679 3.46024 8.2523 3.40776ZM1.95793 14.0826C2.02947 14.0866 2.10029 14.0803 2.16845 14.0645L5.04532 13.4524C6.41515 14.0552 7.97173 14.2224 9.46024 13.9275C11.0364 13.6152 12.4503 12.8014 13.4279 11.6153C14.4078 10.4265 14.8796 8.94602 14.7331 7.45042C14.5867 5.95601 13.8363 4.57901 12.6502 3.56729C11.466 2.55722 9.92369 1.97429 8.31307 1.90899C6.70248 1.84369 5.11043 2.29941 3.8325 3.20603C2.55299 4.11378 1.66729 5.41934 1.36901 6.89296C1.09506 8.24639 1.33902 9.63349 2.04296 10.8328L1.29246 13.0843C1.26915 13.1503 1.25492 13.22 1.25095 13.2915C1.24573 13.3836 1.25773 13.4744 1.2849 13.56C1.31763 13.6638 1.37151 13.7562 1.44065 13.8334C1.50965 13.9108 1.59547 13.9746 1.69497 14.0188C1.77693 14.0554 1.86588 14.0774 1.95793 14.0826Z" fill="black"/>
<path fill-rule="evenodd" clip-rule="evenodd" d="M8 7.25C8.41421 7.25 8.75 7.58579 8.75 8V8.00667C8.75 8.42088 8.41421 8.75667 8 8.75667C7.58579 8.75667 7.25 8.42088 7.25 8.00667V8C7.25 7.58579 7.58579 7.25 8 7.25Z" fill="black"/>
<path fill-rule="evenodd" clip-rule="evenodd" d="M5.33325 7.25C5.74747 7.25 6.08325 7.58579 6.08325 8V8.00667C6.08325 8.42088 5.74747 8.75667 5.33325 8.75667C4.91904 8.75667 4.58325 8.42088 4.58325 8.00667V8C4.58325 7.58579 4.91904 7.25 5.33325 7.25Z" fill="black"/>
<path fill-rule="evenodd" clip-rule="evenodd" d="M10.6667 7.25C11.081 7.25 11.4167 7.58579 11.4167 8V8.00667C11.4167 8.42088 11.081 8.75667 10.6667 8.75667C10.2525 8.75667 9.91675 8.42088 9.91675 8.00667V8C9.91675 7.58579 10.2525 7.25 10.6667 7.25Z" fill="black"/>
</svg>
