<svg width="24" height="24" viewBox="0 0 24 24" fill="none" xmlns="http://www.w3.org/2000/svg">
<path fill-rule="evenodd" clip-rule="evenodd" d="M7.98107 19.8998C7.73764 19.8947 7.49662 19.949 7.27884 20.0578C7.06106 20.1667 6.87305 20.327 6.73107 20.5248C6.41871 20.96 6.00511 21.3126 5.52599 21.5522C5.05249 21.7889 4.52906 21.9082 3.99992 21.9002C3.47078 21.9082 2.94735 21.7889 2.47385 21.5522C1.99473 21.3126 1.58113 20.96 1.26877 20.5248C0.97893 20.121 1.07132 19.5587 1.47512 19.2689C1.87892 18.979 2.44123 19.0714 2.73107 19.4752C2.87305 19.673 3.06106 19.8333 3.27884 19.9422C3.49662 20.0511 3.73764 20.1053 3.98107 20.1002C3.99364 20.0999 4.00621 20.0999 4.01877 20.1002C4.26221 20.1053 4.50322 20.0511 4.721 19.9422C4.93879 19.8333 5.12679 19.673 5.26877 19.4752C5.58113 19.04 5.99473 18.6874 6.47385 18.4479C6.94736 18.2111 7.47078 18.0918 7.99992 18.0999C8.52906 18.0918 9.05249 18.2111 9.52599 18.4479C10.0051 18.6874 10.4187 19.04 10.7311 19.4752C10.8731 19.673 11.0611 19.8333 11.2788 19.9422C11.4966 20.0511 11.7376 20.1053 11.9811 20.1002C11.9936 20.0999 12.0062 20.0999 12.0188 20.1002C12.2622 20.1053 12.5032 20.0511 12.721 19.9422C12.9388 19.8333 13.1268 19.673 13.2688 19.4752C13.5811 19.04 13.9947 18.6874 14.4739 18.4479C14.9474 18.2111 15.4708 18.0918 15.9999 18.0999C16.5291 18.0918 17.0525 18.2111 17.526 18.4479C18.0051 18.6874 18.4187 19.04 18.7311 19.4752C18.8731 19.673 19.0611 19.8333 19.2788 19.9422C19.4966 20.0511 19.7376 20.1053 19.9811 20.1002C19.9936 20.0999 20.0062 20.0999 20.0188 20.1002C20.2622 20.1053 20.5032 20.0511 20.721 19.9422C20.9388 19.8333 21.1268 19.673 21.2688 19.4752C21.5586 19.0714 22.1209 18.979 22.5247 19.2689C22.9285 19.5587 23.0209 20.121 22.7311 20.5248C22.4187 20.96 22.0051 21.3126 21.526 21.5522C21.0525 21.7889 20.5291 21.9082 19.9999 21.9002C19.4708 21.9082 18.9474 21.7889 18.4739 21.5522C17.9947 21.3126 17.5811 20.96 17.2688 20.5248C17.1268 20.327 16.9388 20.1667 16.721 20.0578C16.5032 19.949 16.2622 19.8947 16.0188 19.8998C16.0062 19.9001 15.9936 19.9001 15.9811 19.8998C15.7376 19.8947 15.4966 19.949 15.2788 20.0578C15.0611 20.1667 14.8731 20.327 14.7311 20.5248C14.4187 20.96 14.0051 21.3126 13.526 21.5522C13.0525 21.7889 12.5291 21.9082 11.9999 21.9002C11.4708 21.9082 10.9474 21.7889 10.4739 21.5522C9.99473 21.3126 9.58113 20.96 9.26877 20.5248C9.12679 20.327 8.93879 20.1667 8.72101 20.0578C8.50322 19.949 8.26221 19.8947 8.01877 19.8998C8.00621 19.9001 7.99364 19.9001 7.98107 19.8998Z" fill="black"/>
<path fill-rule="evenodd" clip-rule="evenodd" d="M2.3041 12.4294C2.47504 12.2209 2.73047 12.1 3.00011 12.1H21.0001C21.312 12.1 21.6017 12.2615 21.7657 12.5268C21.9297 12.7922 21.9446 13.1235 21.8051 13.4025L19.8051 17.4025C19.5828 17.847 19.0422 18.0273 18.5976 17.805C18.153 17.5827 17.9728 17.0421 18.1951 16.5975L19.5439 13.9H4.09793L4.88263 17.8235C4.98011 18.3109 4.66401 18.785 4.17661 18.8825C3.68921 18.98 3.21506 18.6639 3.11758 18.1765L2.11758 13.1765C2.0647 12.9121 2.13315 12.6379 2.3041 12.4294Z" fill="black"/>
<path fill-rule="evenodd" clip-rule="evenodd" d="M4.1001 6.99998C4.1001 6.50292 4.50304 6.09998 5.0001 6.09998H13.0001C13.301 6.09998 13.582 6.25037 13.7489 6.50075L17.7489 12.5007C18.0247 12.9143 17.9129 13.4731 17.4993 13.7488C17.0858 14.0245 16.527 13.9128 16.2513 13.4992L12.5184 7.89998H5.9001V13C5.9001 13.497 5.49715 13.9 5.0001 13.9C4.50304 13.9 4.1001 13.497 4.1001 13V6.99998Z" fill="black"/>
<path fill-rule="evenodd" clip-rule="evenodd" d="M5.1001 2.99998C5.1001 2.50292 5.50304 2.09998 6.0001 2.09998H7.0001C7.49715 2.09998 7.9001 2.50292 7.9001 2.99998V6.99998C7.9001 7.49703 7.49715 7.89998 7.0001 7.89998C6.50304 7.89998 6.1001 7.49703 6.1001 6.99998V3.89998H6.0001C5.50304 3.89998 5.1001 3.49703 5.1001 2.99998Z" fill="black"/>
</svg>
