<svg width="25" height="25" viewBox="0 0 25 25" fill="none" xmlns="http://www.w3.org/2000/svg">
<path fill-rule="evenodd" clip-rule="evenodd" d="M13.557 5.09721C13.2652 5.09721 12.9855 5.2131 12.7792 5.41939C12.5729 5.62568 12.457 5.90547 12.457 6.19721V7.19721C12.457 8.49677 11.9407 9.74311 11.0218 10.662C10.3179 11.3659 9.42188 11.8336 8.45698 12.0139V17.1972C8.45698 17.7542 8.67823 18.2883 9.07206 18.6821C9.46588 19.076 10 19.2972 10.557 19.2972H17.557C17.5824 19.2972 17.6079 19.2983 17.6333 19.3004C17.7546 19.3108 17.9338 19.2712 18.1432 19.0618C18.3584 18.8466 18.5624 18.4871 18.6775 18.0053L19.6544 13.1212C19.6361 12.8572 19.5231 12.6077 19.3348 12.4194C19.1285 12.2131 18.8487 12.0972 18.557 12.0972H15.557C15.0599 12.0972 14.657 11.6943 14.657 11.1972V6.19721C14.657 5.90547 14.5411 5.62568 14.3348 5.41939C14.1285 5.2131 13.8487 5.09721 13.557 5.09721ZM8.13563 20.2545C8.06725 20.3566 7.98865 20.4526 7.90049 20.5407C7.54416 20.897 7.06089 21.0972 6.55698 21.0972H4.55698C4.05307 21.0972 3.5698 20.897 3.21348 20.5407C2.85716 20.1844 2.65698 19.7011 2.65698 19.1972V12.1972C2.65698 11.6933 2.85716 11.21 3.21348 10.8537C3.5698 10.4974 4.05307 10.2972 4.55698 10.2972H7.55698C8.37915 10.2972 9.16765 9.9706 9.74901 9.38924C10.3304 8.80788 10.657 8.01938 10.657 7.19721V6.19721C10.657 5.42808 10.9625 4.69046 11.5064 4.1466C12.0502 3.60275 12.7879 3.29721 13.557 3.29721C14.3261 3.29721 15.0637 3.60275 15.6076 4.1466C16.1514 4.69046 16.457 5.42808 16.457 6.19721V10.2972H18.557C19.3261 10.2972 20.0637 10.6027 20.6076 11.1466C21.1514 11.6905 21.457 12.4281 21.457 13.1972C21.457 13.2565 21.4511 13.3156 21.4395 13.3737L20.4395 18.3737C20.4385 18.3786 20.4375 18.3835 20.4364 18.3884C20.4354 18.3932 20.4343 18.3979 20.4332 18.4026C20.2601 19.141 19.9203 19.8303 19.416 20.3346C18.9138 20.8368 18.251 21.1453 17.5235 21.0972H10.557C9.67366 21.0972 8.82124 20.7975 8.13563 20.2545ZM6.65698 12.0972H4.55698C4.53046 12.0972 4.50503 12.1077 4.48627 12.1265C4.46752 12.1453 4.45698 12.1707 4.45698 12.1972V19.1972C4.45698 19.2237 4.46752 19.2492 4.48627 19.2679C4.50502 19.2867 4.53046 19.2972 4.55698 19.2972H6.55698C6.58351 19.2972 6.60894 19.2867 6.62769 19.2679C6.64645 19.2492 6.65698 19.2237 6.65698 19.1972V12.0972Z" fill="white"/>
</svg>
