<svg width="25" height="25" viewBox="0 0 25 25" fill="none" xmlns="http://www.w3.org/2000/svg">
<path d="M9.52188 18.1972C9.403 19.0315 8.9871 19.7949 8.35056 20.3471C7.71403 20.8994 6.8996 21.2035 6.05688 21.2035C5.21417 21.2035 4.39974 20.8994 3.76321 20.3471C3.12667 19.7949 2.71076 19.0315 2.59188 18.1972H1.55688V6.1972C1.55688 5.93199 1.66224 5.67763 1.84978 5.4901C2.03731 5.30256 2.29167 5.1972 2.55688 5.1972H16.5569C16.8221 5.1972 17.0765 5.30256 17.264 5.4901C17.4515 5.67763 17.5569 5.93199 17.5569 6.1972V8.1972H20.5569L23.5569 12.2532V18.1972H21.5219C21.403 19.0315 20.9871 19.7949 20.3506 20.3471C19.714 20.8994 18.8996 21.2035 18.0569 21.2035C17.2142 21.2035 16.3997 20.8994 15.7632 20.3471C15.1267 19.7949 14.7108 19.0315 14.5919 18.1972H9.52188ZM15.5569 7.1972H3.55688V15.2472C3.95145 14.8444 4.43749 14.5429 4.97364 14.3683C5.50979 14.1938 6.08018 14.1513 6.63626 14.2446C7.19235 14.3379 7.71766 14.5641 8.16749 14.9041C8.61733 15.2441 8.97837 15.6877 9.21988 16.1972H14.8939C15.0619 15.8442 15.2869 15.5232 15.5569 15.2472V7.1972ZM17.5569 13.1972H21.5569V12.9122L19.5489 10.1972H17.5569V13.1972ZM18.0569 19.1972C18.4548 19.1972 18.8365 19.0391 19.1179 18.7577C19.3993 18.4763 19.5574 18.0947 19.5574 17.6967C19.5574 17.2987 19.3993 16.9171 19.1179 16.6357C18.8365 16.3543 18.4548 16.1962 18.0569 16.1962C17.6589 16.1962 17.2773 16.3543 16.9959 16.6357C16.7145 16.9171 16.5564 17.2987 16.5564 17.6967C16.5564 18.0947 16.7145 18.4763 16.9959 18.7577C17.2773 19.0391 17.6589 19.1972 18.0569 19.1972ZM7.55688 17.6972C7.55688 17.5002 7.51809 17.3052 7.4427 17.1232C7.36732 16.9412 7.25683 16.7758 7.11755 16.6365C6.97826 16.4973 6.8129 16.3868 6.63091 16.3114C6.44892 16.236 6.25387 16.1972 6.05688 16.1972C5.8599 16.1972 5.66485 16.236 5.48286 16.3114C5.30087 16.3868 5.13551 16.4973 4.99622 16.6365C4.85694 16.7758 4.74645 16.9412 4.67107 17.1232C4.59568 17.3052 4.55688 17.5002 4.55688 17.6972C4.55688 18.095 4.71492 18.4766 4.99622 18.7579C5.27753 19.0392 5.65906 19.1972 6.05688 19.1972C6.45471 19.1972 6.83624 19.0392 7.11755 18.7579C7.39885 18.4766 7.55688 18.095 7.55688 17.6972Z" fill="white"/>
</svg>
