<svg width="24" height="25" viewBox="0 0 24 25" fill="none" xmlns="http://www.w3.org/2000/svg">
<path fill-rule="evenodd" clip-rule="evenodd" d="M12.0001 4.847C10.288 4.847 8.9001 6.23491 8.9001 7.947C8.9001 9.65908 10.288 11.047 12.0001 11.047C13.7122 11.047 15.1001 9.65908 15.1001 7.947C15.1001 6.23491 13.7122 4.847 12.0001 4.847ZM7.1001 7.947C7.1001 5.2408 9.2939 3.047 12.0001 3.047C14.7063 3.047 16.9001 5.2408 16.9001 7.947C16.9001 10.6532 14.7063 12.847 12.0001 12.847C9.2939 12.847 7.1001 10.6532 7.1001 7.947Z" fill="white"/>
<path fill-rule="evenodd" clip-rule="evenodd" d="M10.0001 16.847C9.17793 16.847 8.38943 17.1736 7.80807 17.755C7.2267 18.3363 6.9001 19.1248 6.9001 19.947V21.947C6.9001 22.4441 6.49715 22.847 6.0001 22.847C5.50304 22.847 5.1001 22.4441 5.1001 21.947V19.947C5.1001 18.6474 5.61635 17.4011 6.53527 16.4822C7.4542 15.5632 8.70054 15.047 10.0001 15.047H14.0001C15.2997 15.047 16.546 15.5632 17.4649 16.4822C18.3838 17.4011 18.9001 18.6474 18.9001 19.947V21.947C18.9001 22.4441 18.4972 22.847 18.0001 22.847C17.503 22.847 17.1001 22.4441 17.1001 21.947V19.947C17.1001 19.1248 16.7735 18.3363 16.1921 17.755C15.6108 17.1736 14.8223 16.847 14.0001 16.847H10.0001Z" fill="white"/>
</svg>
