<svg width="24" height="25" viewBox="0 0 24 25" fill="none" xmlns="http://www.w3.org/2000/svg">
<path fill-rule="evenodd" clip-rule="evenodd" d="M11.6346 3.1246C11.8673 3.02117 12.1329 3.02117 12.3656 3.1246L21.3656 7.1246C21.6906 7.26905 21.9001 7.59136 21.9001 7.94703V20.947C21.9001 21.4441 21.4972 21.847 21.0001 21.847C20.503 21.847 20.1001 21.4441 20.1001 20.947V8.53191L12.0001 4.93191L3.9001 8.53191V20.947C3.9001 21.4441 3.49715 21.847 3.0001 21.847C2.50304 21.847 2.1001 21.4441 2.1001 20.947V7.94703C2.1001 7.59136 2.30956 7.26905 2.63457 7.1246L11.6346 3.1246Z" fill="white"/>
<path fill-rule="evenodd" clip-rule="evenodd" d="M12.1001 12.947C12.1001 12.45 12.503 12.047 13.0001 12.047H17.0001C17.4972 12.047 17.9001 12.45 17.9001 12.947V20.947C17.9001 21.4441 17.4972 21.847 17.0001 21.847H7.0001C6.50304 21.847 6.1001 21.4441 6.1001 20.947V14.947C6.1001 14.45 6.50304 14.047 7.0001 14.047H13.0001C13.4972 14.047 13.9001 14.45 13.9001 14.947C13.9001 15.4441 13.4972 15.847 13.0001 15.847H7.9001V20.047H16.1001V13.847H13.0001C12.503 13.847 12.1001 13.4441 12.1001 12.947Z" fill="white"/>
<path fill-rule="evenodd" clip-rule="evenodd" d="M8.65659 10.6035C9.01291 10.2472 9.49619 10.047 10.0001 10.047H12.0001C12.504 10.047 12.9873 10.2472 13.3436 10.6035C13.6999 10.9598 13.9001 11.4431 13.9001 11.947V20.947C13.9001 21.4441 13.4972 21.847 13.0001 21.847C12.503 21.847 12.1001 21.4441 12.1001 20.947V11.947C12.1001 11.9205 12.0896 11.8951 12.0708 11.8763C12.0521 11.8576 12.0266 11.847 12.0001 11.847H10.0001C9.97358 11.847 9.94814 11.8576 9.92939 11.8763C9.91063 11.8951 9.9001 11.9205 9.9001 11.947V14.947C9.9001 15.4441 9.49715 15.847 9.0001 15.847C8.50304 15.847 8.1001 15.4441 8.1001 14.947V11.947C8.1001 11.4431 8.30028 10.9598 8.65659 10.6035Z" fill="white"/>
</svg>
