<svg width="206" height="38" viewBox="0 0 206 38" fill="none" xmlns="http://www.w3.org/2000/svg">
<path d="M70.6008 35.2747H57.4033V0.35791H70.6527C77.0467 0.35791 83.0891 4.05569 83.0891 11.5567V24.0736C83.0891 31.4219 76.9971 35.2747 70.6008 35.2747ZM76.0328 12.8749C76.0328 8.26384 72.6826 6.59035 69.5849 6.59035H64.3063V29.1413H69.5849C72.5811 29.1413 76.0328 27.4701 76.0328 22.8073V12.8749Z" fill="white"/>
<path d="M100.9 35.6283C95.8766 35.6283 91.5104 34.3619 87.2974 30.8664L91.2064 25.6955C94.1507 27.9761 97.6024 29.2942 100.75 29.2942C105.217 29.2942 106.841 27.2159 106.841 25.4437C106.841 22.3508 103.541 21.5411 98.7198 20.2728C93.2881 18.8557 88.5162 16.575 88.5162 10.3918C88.5162 4.30989 93.2363 0.0545538 100.394 0.00277336C104.607 -0.0490071 108.973 0.609904 112.881 3.19437L109.836 8.97244C106.688 6.99539 103.795 6.38825 100.952 6.38825C98.2624 6.38825 95.471 7.45202 95.471 10.2388C95.471 13.0773 98.4134 13.9906 103.237 15.0544C110.496 16.6245 114.202 20.0207 114.202 25.3919C114.202 32.1328 108.466 35.6283 100.9 35.6283Z" fill="white"/>
<path d="M47.445 35.275H46.0803V2.57336H47.445V35.275Z" fill="white"/>
<path d="M29.9231 18.9243C27.4077 17.9879 25.1489 16.5637 23.2738 14.7727C21.3986 12.9817 19.9074 10.8243 18.927 8.42163V8.42191C17.9467 10.8243 16.4554 12.9817 14.5803 14.7727C12.7052 16.5637 10.4461 17.9879 7.93094 18.9243L7.93066 18.9245C10.4461 19.8609 12.7052 21.2851 14.5803 23.0761C16.4552 24.8671 17.9467 27.0245 18.927 29.4269C19.9074 27.0245 21.3986 24.8671 23.2738 23.0761C25.1489 21.2851 27.4079 19.8609 29.9231 18.9245V18.9243Z" fill="#9CFB42"/>
<path d="M0.034668 21.2668C1.08309 29.921 7.94674 36.7734 16.6151 37.8201C15.5667 29.1662 8.70278 22.3136 0.034668 21.2668Z" fill="#9CFB42"/>
<path d="M21.2385 0.0284424C22.287 8.68231 29.1506 15.535 37.819 16.5817C36.7706 7.92752 29.9066 1.07515 21.2385 0.0284424Z" fill="#EE2424"/>
<path d="M16.5805 0.0601807C7.91236 1.1066 1.04843 7.95927 0 16.6132C8.66841 15.5667 15.5321 8.71406 16.5805 0.0601807Z" fill="#9CFB42"/>
<path d="M37.8541 21.2321C29.186 22.2788 22.3221 29.1314 21.2739 37.7852C29.942 36.7388 36.806 29.8862 37.8541 21.2321Z" fill="#9CFB42"/>
<path d="M140.876 23.4389L144.879 14.8363L151.33 1.62573H155.333V34.0169H151V11.9681H150.765L147.799 18.2207L142.336 29.2218H139.087L133.908 19.1147L130.375 11.9681H130.141V34.0169H125.808V1.62573H129.952L136.498 14.8363L140.594 23.4389H140.876Z" fill="white"/>
<path d="M174.969 31.7604C173.116 32.7946 171.602 33.4612 170.424 33.758C169.247 34.0561 168.188 34.2049 167.246 34.2049C164.986 34.2049 163.181 33.5787 161.831 32.324C160.481 31.0713 159.806 29.3632 159.806 27.1998C159.806 25.9158 160.096 24.8338 160.677 23.9564C161.258 23.0793 161.979 22.3657 162.843 21.8169C163.706 21.2689 164.633 20.8769 165.622 20.6416C166.61 20.4075 167.497 20.2896 168.282 20.2896H175.11V18.503C175.11 16.8739 174.655 15.737 173.745 15.0948C172.834 14.453 171.532 14.1303 169.836 14.1303C169.019 14.1303 168.023 14.2481 166.846 14.4834C165.669 14.7184 164.484 15.3224 163.291 16.2938L161.313 13.2376C162.819 12.0779 164.342 11.3262 165.881 10.9811C167.418 10.6363 168.848 10.4636 170.166 10.4636C173.211 10.4636 175.471 11.1302 176.946 12.4623C178.422 13.7944 179.16 15.8399 179.16 18.5971V34.0169H175.588L175.111 31.8546L174.969 31.7604ZM175.11 23.6272H168.942C168.439 23.6272 167.897 23.6664 167.317 23.7447C166.736 23.8232 166.194 23.98 165.692 24.2153C165.19 24.4494 164.774 24.8102 164.444 25.2964C164.114 25.7826 163.95 26.4168 163.95 27.1998C163.95 28.3281 164.334 29.1748 165.104 29.7384C165.873 30.3029 166.854 30.5854 168.047 30.5854C168.642 30.5854 169.263 30.4989 169.907 30.3265C170.55 30.1541 171.178 29.9433 171.79 29.6915C172.403 29.4414 172.991 29.1672 173.556 28.869C174.122 28.5711 174.639 28.2977 175.11 28.0468V23.6272Z" fill="white"/>
<path d="M189.331 27.8115C189.331 29.0338 189.602 29.7942 190.144 30.0912C190.686 30.3894 191.593 30.5069 192.862 30.4443L192.957 34.1111C192.517 34.1737 192.1 34.2206 191.709 34.2522C191.316 34.2826 190.947 34.2991 190.602 34.2991C189.503 34.2991 188.616 34.1648 187.942 33.8991C187.266 33.6337 186.724 33.2416 186.317 32.7241C185.909 32.2066 185.634 31.5801 185.493 30.8432C185.352 30.108 185.281 29.2691 185.281 28.3282V0.356201H189.331V27.8115Z" fill="white"/>
<path d="M202.375 27.8115C202.375 29.0338 202.646 29.7942 203.188 30.0912C203.73 30.3894 204.637 30.5069 205.906 30.4443L206 34.1111C205.561 34.1737 205.144 34.2206 204.753 34.2522C204.36 34.2826 203.991 34.2991 203.646 34.2991C202.547 34.2991 201.66 34.1648 200.986 33.8991C200.31 33.6337 199.768 33.2416 199.361 32.7241C198.952 32.2066 198.678 31.5801 198.537 30.8432C198.396 30.108 198.325 29.2691 198.325 28.3282V0.356201H202.375V27.8115Z" fill="white"/>
</svg>
