<svg width="520" height="590" viewBox="0 0 520 590" fill="none" xmlns="http://www.w3.org/2000/svg">
<g opacity="0.1" filter="url(#filter0_f)">
<path d="M365.031 175.834L315.633 147.291L365.942 117.846L414.712 145.408L365.031 175.834Z" fill="black"/>
</g>
<g opacity="0.3" filter="url(#filter1_f)">
<path d="M364.834 184L315.436 155.458L365.745 126.013L414.515 153.575L364.834 184Z" fill="#882E80"/>
</g>
<g opacity="0.2" filter="url(#filter2_f)">
<path d="M365.048 166.594L331.345 147.12L365.67 127.03L398.945 145.835L365.048 166.594Z" fill="black"/>
</g>
<path d="M365.847 84.8628L415.438 36.263L432.21 101.329L431.288 105.068L383.183 152.118L365.847 84.8628Z" fill="#6A2464"/>
<g clip-path="url(#clip0)" filter="url(#filter3_f)">
<path d="M382.514 114.205L379.926 109.716L380.676 108.981L382.664 112.428L382.494 107.197L383.193 106.512L385.253 109.916L385.019 104.721L385.768 103.985L386.07 110.715L385.202 111.566L383.209 108.272L383.376 113.358L382.514 114.205Z" fill="#1C1C1C"/>
<path d="M386.285 103.481L386.999 102.781L388.443 108.384L387.73 109.084L386.285 103.481Z" fill="#1C1C1C"/>
<path d="M389.742 106.008L391.478 104.304L391.705 105.183L389.27 107.573L387.825 101.97L388.524 101.285L389.742 106.008Z" fill="#1C1C1C"/>
<path d="M392.456 97.4342C393.042 96.8598 393.599 96.6533 394.121 96.8132C394.648 96.9682 395.016 97.4407 395.219 98.2291C395.421 99.011 395.396 99.8697 395.147 100.794C394.901 101.707 394.484 102.456 393.899 103.03L392.221 104.676L390.777 99.0737L392.455 97.4277L392.456 97.4342ZM393.674 102.158C394.077 101.762 394.36 101.258 394.513 100.655C394.676 100.042 394.684 99.451 394.542 98.9017C394.397 98.3395 394.153 98.0126 393.804 97.9018C393.459 97.786 393.083 97.9285 392.685 98.3195L391.711 99.2752L392.7 103.114L393.674 102.158Z" fill="#1C1C1C"/>
<path d="M399.292 95.7345C399.41 96.1935 399.386 96.6955 399.213 97.2456C399.04 97.7957 398.785 98.2405 398.421 98.5976L396.596 100.388L395.151 94.783L396.843 93.1225C397.193 92.7797 397.528 92.6454 397.844 92.6998C398.167 92.7557 398.38 93.0084 398.493 93.4481C398.62 93.9395 398.569 94.4594 398.355 95.0172C398.795 94.9091 399.142 95.1526 399.292 95.7345ZM396.078 94.9591L396.458 96.4332L397.451 95.4582C397.761 95.154 397.914 94.5991 397.808 94.1853C397.701 93.7715 397.381 93.6799 397.071 93.9841L396.078 94.9591ZM398.203 97.7265C398.527 97.408 398.695 96.8142 398.582 96.3746C398.468 95.9349 398.124 95.8433 397.799 96.1619L396.673 97.2673L397.078 98.8384L398.204 97.733L398.203 97.7265Z" fill="#1C1C1C"/>
<path d="M400.841 95.1215L402.73 93.2678L402.957 94.1471L400.369 96.6861L398.924 91.0806L401.483 88.5705L401.709 89.4498L399.849 91.2745L400.224 92.7292L401.932 91.0542L402.157 91.927L400.449 93.6021L400.841 95.1215Z" fill="#1C1C1C"/>
<path d="M406.017 91.1445L404.585 89.9897L403.759 90.8007L404.285 92.8438L403.587 93.5291L402.142 87.9236L403.849 86.2487C404.233 85.8721 404.602 85.7281 404.955 85.8279C405.309 85.91 405.557 86.2014 405.687 86.7057C405.87 87.4169 405.699 88.403 405.259 89.1588L406.789 90.3868L406.017 91.1445ZM403.064 88.1046L403.547 89.9796L404.551 88.9948C404.925 88.628 405.113 87.9246 404.978 87.4009C404.845 86.8836 404.436 86.7578 404.067 87.1198L403.064 88.1046Z" fill="#1C1C1C"/>
<path d="M409.751 87.4807L408.324 86.3199L407.498 87.1309L408.025 89.175L407.326 89.8604L405.88 84.252L407.587 82.5771C407.971 82.2005 408.341 82.0566 408.693 82.1565C409.047 82.2388 409.295 82.5305 409.425 83.035C409.609 83.7466 409.438 84.7331 408.998 85.4889L410.529 86.7181L409.751 87.4807ZM406.802 84.4334L407.286 86.3094L408.29 85.3246C408.663 84.9578 408.852 84.2541 408.717 83.7302C408.584 83.2127 408.175 83.0866 407.806 83.4486L406.802 84.4334Z" fill="#1C1C1C"/>
<path d="M409.595 80.6084L410.293 79.9229L411.739 85.5307L411.04 86.2162L409.595 80.6084Z" fill="#1C1C1C"/>
<path d="M413.037 83.1552L414.927 81.3016L415.153 82.1809L412.565 84.72L411.12 79.1145L413.679 76.6045L413.905 77.4837L412.046 79.3083L412.421 80.763L414.128 79.0881L414.353 79.961L412.646 81.6359L413.037 83.1552Z" fill="#1C1C1C"/>
<path d="M415.311 80.4271L415.797 79.3682C416.132 79.8325 416.561 79.7999 417.097 79.2739C417.629 78.7526 417.813 78.1995 417.7 77.7601C417.64 77.5274 417.523 77.4318 417.355 77.4506C417.185 77.4631 416.895 77.5783 416.494 77.7933C416.044 78.0325 415.816 78.1269 415.467 78.1614C415.125 78.1731 414.892 77.94 414.762 77.436C414.634 76.9384 414.667 76.4203 414.862 75.8641C415.052 75.306 415.34 74.8453 415.718 74.4736C416.402 73.8027 417.049 73.7515 417.522 74.2501L417.047 75.2753C416.736 74.9322 416.368 74.9616 415.95 75.3719C415.542 75.7726 415.351 76.2999 415.461 76.7263C415.567 77.1399 415.824 77.1311 416.547 76.7539C416.727 76.6658 416.859 76.6016 416.942 76.568C417.029 76.5231 417.148 76.4799 417.299 76.4206C417.455 76.3564 417.585 76.3343 417.667 76.3426C417.954 76.3532 418.293 76.4981 418.402 77.0634C418.531 77.5674 418.499 78.1096 418.295 78.682C418.096 79.2496 417.769 79.7489 417.316 80.193C416.488 80.9975 415.754 81.0695 415.311 80.4271Z" fill="#1C1C1C"/>
</g>
<g clip-path="url(#clip1)">
<path d="M383.168 114.375L380.58 109.887L381.33 109.152L383.318 112.599L383.148 107.367L383.847 106.682L385.907 110.087L385.673 104.892L386.422 104.155L386.725 110.885L385.856 111.736L383.863 108.443L384.03 113.529L383.168 114.375Z" fill="#DADADA"/>
<path d="M386.939 103.651L387.653 102.951L389.097 108.554L388.383 109.254L386.939 103.651Z" fill="#DADADA"/>
<path d="M390.395 106.178L392.132 104.475L392.359 105.353L389.923 107.743L388.479 102.14L389.178 101.455L390.395 106.178Z" fill="#DADADA"/>
<path d="M393.11 97.6044C393.696 97.03 394.253 96.8235 394.775 96.9833C395.302 97.1384 395.67 97.6109 395.873 98.3992C396.075 99.1812 396.05 100.04 395.801 100.964C395.556 101.877 395.138 102.626 394.553 103.201L392.875 104.847L391.431 99.2439L393.109 97.5979L393.11 97.6044ZM394.328 102.328C394.732 101.932 395.015 101.428 395.167 100.825C395.33 100.212 395.338 99.6211 395.196 99.0718C395.051 98.5096 394.807 98.1828 394.458 98.0719C394.113 97.9562 393.737 98.0987 393.339 98.4897L392.365 99.4454L393.354 103.284L394.328 102.328Z" fill="#DADADA"/>
<path d="M399.946 95.9044C400.064 96.3634 400.039 96.8655 399.867 97.4155C399.694 97.9656 399.439 98.4104 399.075 98.7676L397.25 100.558L395.805 94.9529L397.497 93.2924C397.846 92.9496 398.182 92.8153 398.498 92.8697C398.82 92.9256 399.033 93.1784 399.147 93.618C399.273 94.1094 399.222 94.6293 399.009 95.1872C399.449 95.079 399.796 95.3225 399.946 95.9044ZM396.732 95.129L397.111 96.6032L398.105 95.6282C398.415 95.324 398.568 94.769 398.461 94.3552C398.355 93.9414 398.035 93.8498 397.725 94.154L396.732 95.129ZM398.856 97.8965C399.181 97.5779 399.349 96.9841 399.235 96.5445C399.122 96.1048 398.778 96.0132 398.453 96.3318L397.326 97.4372L397.731 99.0083L398.858 97.9029L398.856 97.8965Z" fill="#DADADA"/>
<path d="M401.495 95.2914L403.384 93.4378L403.611 94.3171L401.023 96.856L399.578 91.2505L402.136 88.7404L402.363 89.6197L400.503 91.4444L400.878 92.8992L402.586 91.2241L402.811 92.097L401.103 93.772L401.495 95.2914Z" fill="#DADADA"/>
<path d="M406.671 91.3147L405.239 90.1599L404.413 90.9709L404.939 93.0139L404.241 93.6993L402.796 88.0938L404.503 86.4189C404.887 86.0423 405.256 85.8983 405.609 85.998C405.963 86.0801 406.211 86.3716 406.341 86.8759C406.524 87.5871 406.353 88.5732 405.913 89.329L407.444 90.557L406.671 91.3147ZM403.718 88.2748L404.201 90.1497L405.205 89.1649C405.579 88.7982 405.767 88.0947 405.632 87.571C405.499 87.0538 405.09 86.9279 404.721 87.29L403.718 88.2748Z" fill="#DADADA"/>
<path d="M410.405 87.6509L408.978 86.4901L408.151 87.3011L408.678 89.3452L407.98 90.0306L406.534 84.4221L408.241 82.7472C408.625 82.3707 408.995 82.2267 409.347 82.3267C409.701 82.409 409.949 82.7006 410.079 83.2052C410.263 83.9168 410.092 84.9032 409.652 85.6591L411.183 86.8883L410.405 87.6509ZM407.456 84.6036L407.94 86.4795L408.943 85.4947C409.317 85.128 409.506 84.4243 409.371 83.9003C409.237 83.3828 408.829 83.2568 408.46 83.6188L407.456 84.6036Z" fill="#DADADA"/>
<path d="M410.249 80.7783L410.947 80.0928L412.393 85.7006L411.694 86.3861L410.249 80.7783Z" fill="#DADADA"/>
<path d="M413.691 83.3254L415.58 81.4718L415.807 82.3511L413.219 84.8902L411.774 79.2847L414.332 76.7746L414.559 77.6539L412.7 79.4785L413.074 80.9332L414.782 79.2583L415.007 80.1311L413.299 81.806L413.691 83.3254Z" fill="#DADADA"/>
<path d="M415.965 80.5971L416.451 79.5381C416.786 80.0024 417.215 79.9699 417.752 79.4438C418.283 78.9225 418.467 78.3694 418.354 77.93C418.294 77.6973 418.177 77.6017 418.009 77.6205C417.839 77.633 417.549 77.7482 417.148 77.9632C416.698 78.2024 416.47 78.2968 416.121 78.3313C415.779 78.343 415.546 78.1099 415.416 77.6059C415.288 77.1083 415.321 76.5902 415.516 76.034C415.706 75.476 415.994 75.0152 416.372 74.6436C417.056 73.9726 417.703 73.9214 418.176 74.4201L417.701 75.4453C417.391 75.1021 417.022 75.1316 416.604 75.5418C416.196 75.9425 416.005 76.4698 416.115 76.8963C416.221 77.3099 416.478 77.301 417.201 76.9239C417.381 76.8357 417.513 76.7715 417.596 76.7379C417.684 76.693 417.802 76.6498 417.953 76.5905C418.109 76.5264 418.239 76.5042 418.321 76.5125C418.608 76.5231 418.947 76.668 419.056 77.2333C419.185 77.7373 419.153 78.2795 418.949 78.8519C418.75 79.4196 418.423 79.9188 417.97 80.3629C417.142 81.1674 416.408 81.2394 415.965 80.5971Z" fill="#DADADA"/>
</g>
<path d="M297.068 66.6851L363.995 85.3402L381.331 152.595L316.264 134.538L313.97 132.256L297.068 66.6851Z" fill="#9C3793"/>
<g clip-path="url(#clip2)" filter="url(#filter4_f)">
<path d="M316.193 105.907L313.205 99.8685L314.216 100.15L316.512 104.788L316.671 100.832L317.614 101.095L320.004 105.78L320.078 101.782L321.089 102.061L320.992 107.241L319.82 106.914L317.508 102.382L317.355 106.229L316.193 105.907Z" fill="#2F2F2F"/>
<path d="M321.788 102.259L322.75 102.527L324.195 108.129L323.232 107.861L321.788 102.259Z" fill="#2F2F2F"/>
<path d="M326.027 107.823L328.37 108.475L328.597 109.354L325.31 108.44L323.866 102.837L324.809 103.099L326.027 107.823Z" fill="#2F2F2F"/>
<path d="M330.116 104.582C330.906 104.801 331.634 105.256 332.29 105.936C332.953 106.618 333.39 107.358 333.593 108.146C333.795 108.928 333.701 109.52 333.316 109.917C332.936 110.309 332.349 110.398 331.559 110.178L329.294 109.548L327.85 103.945L330.114 104.575L330.116 104.582ZM331.334 109.305C331.878 109.457 332.276 109.4 332.515 109.13C332.767 108.864 332.82 108.447 332.678 107.898C332.533 107.336 332.244 106.835 331.806 106.377C331.374 105.921 330.882 105.617 330.344 105.467L329.03 105.101L330.019 108.94L331.334 109.305Z" fill="#2F2F2F"/>
<path d="M338.981 110.757C339.1 111.216 339.032 111.551 338.772 111.761C338.511 111.971 338.153 112.015 337.662 111.878L335.198 111.193L333.753 105.587L336.037 106.223C336.509 106.354 336.947 106.62 337.348 107.001C337.756 107.391 338.011 107.804 338.124 108.244C338.251 108.735 338.148 109.055 337.835 109.226C338.406 109.625 338.831 110.175 338.981 110.757ZM334.926 106.718L335.306 108.192L336.647 108.565C337.066 108.682 337.301 108.447 337.194 108.033C337.088 107.619 336.686 107.207 336.267 107.091L334.926 106.718ZM337.445 111.014C337.883 111.136 338.14 110.889 338.027 110.449C337.914 110.01 337.48 109.571 337.042 109.449L335.521 109.026L335.926 110.597L337.447 111.02L337.445 111.014Z" fill="#2F2F2F"/>
<path d="M341.007 111.993L343.557 112.702L343.784 113.581L340.291 112.61L338.846 107.004L342.299 107.965L342.526 108.844L340.016 108.146L340.391 109.6L342.695 110.241L342.92 111.114L340.616 110.473L341.007 111.993Z" fill="#2F2F2F"/>
<path d="M347.914 114.73L346.166 112.347L345.05 112.037L345.577 114.08L344.634 113.818L343.189 108.212L345.493 108.853C346.011 108.997 346.494 109.294 346.938 109.747C347.385 110.19 347.681 110.668 347.811 111.173C347.994 111.884 347.704 112.409 347.087 112.478L348.957 115.02L347.914 114.73ZM344.355 109.341L344.838 111.216L346.193 111.593C346.698 111.733 346.989 111.43 346.854 110.907C346.721 110.389 346.208 109.856 345.71 109.718L344.355 109.341Z" fill="#2F2F2F"/>
<path d="M352.954 116.132L351.212 113.75L350.096 113.44L350.623 115.484L349.68 115.222L348.235 109.613L350.539 110.254C351.057 110.398 351.54 110.695 351.984 111.149C352.43 111.591 352.727 112.07 352.857 112.574C353.04 113.286 352.75 113.812 352.133 113.88L354.003 116.424L352.954 116.132ZM349.401 110.742L349.884 112.618L351.239 112.995C351.744 113.136 352.035 112.832 351.9 112.308C351.767 111.791 351.254 111.258 350.756 111.119L349.401 110.742Z" fill="#2F2F2F"/>
<path d="M353.248 111.008L354.191 111.271L355.637 116.878L354.694 116.616L353.248 111.008Z" fill="#2F2F2F"/>
<path d="M357.468 116.572L360.018 117.281L360.245 118.161L356.752 117.189L355.307 111.583L358.76 112.544L358.986 113.423L356.477 112.725L356.852 114.18L359.156 114.821L359.381 115.694L357.077 115.053L357.468 116.572Z" fill="#2F2F2F"/>
<path d="M360.574 117.068L361.27 116.829C361.666 117.527 362.217 117.969 362.941 118.17C363.658 118.37 363.934 118.17 363.82 117.731C363.76 117.498 363.617 117.302 363.402 117.134C363.184 116.96 362.804 116.728 362.276 116.449C361.683 116.134 361.384 115.955 360.936 115.603C360.497 115.241 360.216 114.821 360.086 114.317C359.958 113.819 360.037 113.481 360.328 113.292C360.61 113.094 361.011 113.074 361.523 113.216C362.446 113.473 363.276 114.136 363.846 115.008L363.164 115.233C362.792 114.649 362.318 114.272 361.754 114.115C361.203 113.961 360.921 114.135 361.031 114.561C361.137 114.975 361.466 115.246 362.418 115.757C362.655 115.889 362.828 115.985 362.937 116.051C363.052 116.113 363.206 116.21 363.404 116.331C363.608 116.454 363.776 116.579 363.881 116.674C364.246 116.991 364.67 117.463 364.768 117.988C364.898 118.492 364.817 118.848 364.515 119.04C364.22 119.234 363.765 119.239 363.155 119.069C362.037 118.752 361.094 118.01 360.574 117.068Z" fill="#2F2F2F"/>
</g>
<g clip-path="url(#clip3)">
<path d="M315.752 106.359L312.765 100.321L313.776 100.602L316.071 105.24L316.23 101.284L317.173 101.547L319.564 106.233L319.638 102.234L320.649 102.514L320.552 107.693L319.379 107.366L317.068 102.834L316.915 106.681L315.752 106.359Z" fill="white"/>
<path d="M321.347 102.711L322.31 102.979L323.754 108.581L322.791 108.313L321.347 102.711Z" fill="white"/>
<path d="M325.586 108.275L327.93 108.927L328.157 109.806L324.87 108.891L323.426 103.289L324.368 103.551L325.586 108.275Z" fill="white"/>
<path d="M329.675 105.033C330.466 105.253 331.193 105.707 331.849 106.388C332.512 107.07 332.949 107.81 333.152 108.598C333.354 109.38 333.26 109.972 332.875 110.368C332.496 110.761 331.908 110.849 331.118 110.629L328.854 110L327.409 104.397L329.674 105.027L329.675 105.033ZM330.893 109.757C331.438 109.909 331.836 109.851 332.075 109.582C332.327 109.316 332.379 108.899 332.238 108.35C332.093 107.787 331.803 107.287 331.365 106.829C330.933 106.373 330.441 106.068 329.904 105.919L328.589 105.553L329.578 109.391L330.893 109.757Z" fill="white"/>
<path d="M338.541 111.209C338.659 111.668 338.592 112.003 338.331 112.213C338.071 112.422 337.713 112.467 337.221 112.33L334.758 111.645L333.313 106.039L335.597 106.674C336.068 106.806 336.507 107.072 336.907 107.453C337.316 107.843 337.57 108.256 337.684 108.695C337.81 109.187 337.708 109.506 337.394 109.677C337.965 110.076 338.391 110.627 338.541 111.209ZM334.486 107.17L334.866 108.644L336.207 109.017C336.625 109.133 336.861 108.899 336.754 108.485C336.647 108.071 336.245 107.659 335.827 107.543L334.486 107.17ZM337.004 111.465C337.443 111.587 337.7 111.341 337.586 110.901C337.473 110.461 337.039 110.023 336.601 109.901L335.081 109.478L335.486 111.049L337.006 111.472L337.004 111.465Z" fill="white"/>
<path d="M340.567 112.445L343.117 113.154L343.343 114.033L339.851 113.062L338.406 107.456L341.859 108.417L342.085 109.296L339.575 108.598L339.95 110.052L342.254 110.693L342.479 111.566L340.175 110.925L340.567 112.445Z" fill="white"/>
<path d="M347.474 115.182L345.725 112.799L344.609 112.489L345.136 114.532L344.193 114.27L342.748 108.664L345.052 109.305C345.57 109.449 346.054 109.746 346.497 110.199C346.944 110.642 347.24 111.12 347.37 111.625C347.553 112.336 347.263 112.861 346.646 112.93L348.516 115.472L347.474 115.182ZM343.914 109.793L344.398 111.668L345.752 112.045C346.257 112.185 346.549 111.882 346.414 111.358C346.28 110.841 345.767 110.308 345.269 110.17L343.914 109.793Z" fill="white"/>
<path d="M352.513 116.584L350.771 114.202L349.656 113.892L350.183 115.936L349.24 115.674L347.794 110.065L350.098 110.706C350.616 110.85 351.1 111.147 351.543 111.6C351.99 112.043 352.286 112.522 352.416 113.026C352.6 113.738 352.31 114.264 351.693 114.332L353.563 116.876L352.513 116.584ZM348.96 111.194L349.444 113.07L350.799 113.447C351.303 113.587 351.595 113.284 351.46 112.76C351.327 112.243 350.813 111.71 350.315 111.571L348.96 111.194Z" fill="white"/>
<path d="M352.808 111.46L353.751 111.723L355.196 117.33L354.253 117.068L352.808 111.46Z" fill="white"/>
<path d="M357.028 117.024L359.578 117.733L359.804 118.612L356.311 117.641L354.866 112.035L358.319 112.996L358.546 113.875L356.036 113.177L356.411 114.631L358.715 115.272L358.94 116.145L356.636 115.504L357.028 117.024Z" fill="white"/>
<path d="M360.133 117.519L360.83 117.281C361.225 117.979 361.777 118.421 362.5 118.622C363.218 118.821 363.493 118.622 363.38 118.183C363.32 117.95 363.177 117.754 362.961 117.586C362.743 117.412 362.363 117.18 361.835 116.901C361.242 116.586 360.943 116.407 360.495 116.054C360.057 115.693 359.776 115.272 359.646 114.768C359.517 114.271 359.597 113.933 359.887 113.744C360.169 113.546 360.571 113.526 361.082 113.668C362.005 113.925 362.835 114.588 363.405 115.46L362.723 115.685C362.351 115.101 361.878 114.723 361.313 114.567C360.762 114.413 360.48 114.587 360.59 115.013C360.697 115.427 361.026 115.698 361.977 116.209C362.215 116.341 362.387 116.437 362.497 116.503C362.611 116.565 362.766 116.662 362.963 116.783C363.168 116.906 363.336 117.031 363.44 117.126C363.806 117.443 364.229 117.915 364.328 118.44C364.457 118.944 364.377 119.3 364.075 119.492C363.779 119.686 363.325 119.691 362.714 119.521C361.597 119.204 360.653 118.462 360.133 117.519Z" fill="white"/>
</g>
<path d="M346.315 17.0969L348.335 16.5763L414.121 34.9866L364.53 83.5865L297.625 65.0158L346.315 17.0969Z" fill="#B44BAB"/>
<path d="M346.315 17.0969L348.335 16.5763L414.121 34.9866L364.53 83.5865L297.625 65.0158L346.315 17.0969Z" fill="url(#paint0_linear)"/>
<g clip-path="url(#clip4)" filter="url(#filter5_f)">
<path d="M330.08 45.3568L332.673 40.8711L333.685 41.1525L331.694 44.5979L336.139 41.835L337.082 42.0976L335.163 45.5843L339.545 42.7838L340.558 43.0641L334.881 46.6913L333.709 46.3643L335.565 42.9922L331.244 45.6795L330.08 45.3568Z" fill="#343434"/>
<path d="M341.253 43.2607L342.216 43.5286L338.086 47.5806L337.123 47.3128L341.253 43.2607Z" fill="#343434"/>
<path d="M340.792 47.5176L343.136 48.1696L342.488 48.8052L339.201 47.8909L343.331 43.8389L344.274 44.1012L340.792 47.5176Z" fill="#343434"/>
<path d="M349.575 45.5818C350.365 45.8016 350.822 46.1808 350.945 46.7128C351.074 47.2466 350.849 47.8019 350.268 48.3721C349.692 48.9376 348.935 49.3451 348.011 49.5917C347.097 49.8356 346.24 49.849 345.45 49.6292L343.186 48.9993L347.315 44.9473L349.58 45.5772L349.575 45.5818ZM346.093 48.9982C346.637 49.1497 347.216 49.1426 347.814 48.9732C348.426 48.8076 348.942 48.5191 349.347 48.1218C349.761 47.7152 349.922 47.3401 349.844 46.9823C349.772 46.6263 349.46 46.3717 348.922 46.2221L347.608 45.8564L344.778 48.6325L346.093 48.9982Z" fill="#343434"/>
<path d="M354.465 50.6512C354.127 50.9832 353.679 51.213 353.117 51.3385C352.554 51.4641 352.041 51.4655 351.55 51.3288L349.086 50.6435L353.219 46.5894L355.503 47.2248C355.974 47.3559 356.258 47.579 356.369 47.8799C356.482 48.1874 356.37 48.4983 356.046 48.8162C355.683 49.1716 355.208 49.3874 354.618 49.4813C354.932 49.8087 354.894 50.2304 354.465 50.6512ZM353.529 47.4801L352.443 48.5462L353.784 48.9193C354.202 49.0357 354.759 48.8906 355.064 48.5913C355.369 48.292 355.289 47.9696 354.871 47.8532L353.529 47.4801ZM352.195 50.704C352.633 50.8259 353.231 50.6742 353.555 50.3562C353.88 50.0382 353.787 49.6943 353.349 49.5724L351.828 49.1494L350.67 50.2857L352.19 50.7087L352.195 50.704Z" fill="#343434"/>
<path d="M355.77 51.6865L358.32 52.3959L357.672 53.0318L354.179 52.0602L358.312 48.0061L361.764 48.9666L361.116 49.6026L358.606 48.9043L357.534 49.9564L359.838 50.5974L359.195 51.2287L356.89 50.5877L355.77 51.6865Z" fill="#343434"/>
<path d="M361.803 54.1807L362.087 52.3632L360.971 52.0529L359.465 53.5305L358.522 53.2682L362.654 49.2141L364.958 49.8551C365.476 49.9992 365.786 50.2473 365.876 50.6024C365.982 50.95 365.853 51.3103 365.481 51.6751C364.957 52.1894 364.018 52.5342 363.143 52.531L362.845 54.4707L361.803 54.1807ZM362.958 50.103L361.576 51.459L362.931 51.8359C363.436 51.9762 364.139 51.7878 364.525 51.4091C364.906 51.035 364.811 50.6184 364.313 50.4798L362.958 50.103Z" fill="#343434"/>
<path d="M366.842 55.5828L367.134 53.7664L366.019 53.4561L364.512 54.9345L363.569 54.6722L367.703 50.616L370.007 51.2569C370.525 51.401 370.835 51.6492 370.924 52.0045C371.03 52.3521 370.901 52.7127 370.53 53.0776C370.005 53.5922 369.065 53.9373 368.191 53.9342L367.892 55.8747L366.842 55.5828ZM368.007 51.5051L366.624 52.8619L367.979 53.2388C368.483 53.3791 369.187 53.1905 369.573 52.8116C369.955 52.4373 369.86 52.0205 369.362 51.882L368.007 51.5051Z" fill="#343434"/>
<path d="M372.716 52.011L373.659 52.2733L369.525 56.3291L368.582 56.0668L372.716 52.011Z" fill="#343434"/>
<path d="M372.232 56.2657L374.781 56.975L374.133 57.611L370.64 56.6393L374.772 52.5852L378.225 53.5457L377.577 54.1817L375.067 53.4835L373.995 54.5356L376.299 55.1765L375.656 55.8078L373.352 55.1668L372.232 56.2657Z" fill="#343434"/>
<path d="M375.731 56.8711L376.891 56.7618C376.657 57.2845 376.899 57.64 377.623 57.8413C378.34 58.0408 378.911 57.9237 379.235 57.6059C379.407 57.4377 379.431 57.2884 379.331 57.1526C379.235 57.0121 378.99 56.8179 378.604 56.5784C378.171 56.3082 377.975 56.1577 377.771 55.8729C377.59 55.5826 377.676 55.2644 378.047 54.8999C378.414 54.54 378.879 54.3095 379.459 54.2008C380.036 54.0856 380.579 54.1047 381.091 54.2469C382.014 54.5037 382.381 55.0378 382.186 55.6974L381.061 55.7982C381.203 55.3578 380.993 55.0535 380.429 54.8965C379.877 54.7432 379.325 54.8416 379.011 55.15C378.706 55.4491 378.842 55.6669 379.53 56.1042C379.697 56.2166 379.818 56.2983 379.889 56.3541C379.971 56.407 380.068 56.4878 380.195 56.5891C380.328 56.6923 380.413 56.7937 380.447 56.8691C380.58 57.1223 380.625 57.4885 380.189 57.8654C379.818 58.2299 379.332 58.4726 378.734 58.5823C378.143 58.6939 377.547 58.66 376.936 58.4901C375.826 58.1751 375.396 57.5758 375.731 56.8711Z" fill="#343434"/>
</g>
<g clip-path="url(#clip5)">
<path d="M329.935 44.5226L332.528 40.0369L333.539 40.3183L331.548 43.7636L335.994 41.0008L336.936 41.2633L335.018 44.7501L339.4 41.9496L340.412 42.2299L334.735 45.8571L333.564 45.5301L335.42 42.1579L331.098 44.8453L329.935 44.5226Z" fill="white"/>
<path d="M341.107 42.4263L342.07 42.6941L337.94 46.7461L336.977 46.4783L341.107 42.4263Z" fill="white"/>
<path d="M340.647 46.6831L342.991 47.3351L342.343 47.9708L339.056 47.0564L343.186 43.0044L344.129 43.2667L340.647 46.6831Z" fill="white"/>
<path d="M349.429 44.7474C350.22 44.9672 350.677 45.3463 350.8 45.8783C350.929 46.4121 350.704 46.9674 350.123 47.5376C349.546 48.1031 348.79 48.5106 347.865 48.7573C346.952 49.0011 346.094 49.0145 345.304 48.7947L343.04 48.1648L347.17 44.1128L349.434 44.7427L349.429 44.7474ZM345.947 48.1638C346.492 48.3152 347.07 48.3081 347.669 48.1388C348.281 47.9731 348.797 47.6846 349.201 47.2874C349.616 46.8808 349.777 46.5056 349.698 46.1478C349.626 45.7919 349.315 45.5373 348.777 45.3876L347.462 45.0219L344.633 47.798L345.947 48.1638Z" fill="white"/>
<path d="M354.319 49.8168C353.981 50.1487 353.534 50.3785 352.971 50.504C352.409 50.6296 351.896 50.631 351.404 50.4943L348.941 49.809L353.073 45.7549L355.357 46.3903C355.829 46.5215 356.113 46.7445 356.224 47.0454C356.336 47.3529 356.224 47.6638 355.9 47.9818C355.538 48.3371 355.062 48.5529 354.472 48.6469C354.786 48.9743 354.748 49.3959 354.319 49.8168ZM353.384 46.6456L352.297 47.7117L353.638 48.0849C354.057 48.2013 354.614 48.0561 354.919 47.7568C355.224 47.4576 355.144 47.1351 354.725 47.0187L353.384 46.6456ZM352.05 49.8695C352.488 49.9915 353.086 49.8397 353.41 49.5217C353.734 49.2038 353.641 48.8599 353.203 48.7379L351.682 48.3149L350.524 49.4512L352.045 49.8742L352.05 49.8695Z" fill="white"/>
<path d="M355.625 50.8518L358.175 51.5612L357.527 52.1971L354.034 51.2255L358.166 47.1714L361.619 48.1319L360.971 48.7679L358.461 48.0696L357.388 49.1217L359.693 49.7627L359.049 50.394L356.745 49.753L355.625 50.8518Z" fill="white"/>
<path d="M361.657 53.3463L361.941 51.5287L360.825 51.2184L359.319 52.696L358.376 52.4338L362.509 48.3796L364.813 49.0206C365.331 49.1647 365.64 49.4128 365.73 49.7679C365.836 50.1155 365.707 50.4759 365.336 50.8406C364.811 51.355 363.872 51.6998 362.997 51.6966L362.699 53.6362L361.657 53.3463ZM362.813 49.2685L361.431 50.6245L362.785 51.0014C363.29 51.1418 363.993 50.9533 364.379 50.5746C364.761 50.2005 364.665 49.7839 364.167 49.6453L362.813 49.2685Z" fill="white"/>
<path d="M366.697 54.7484L366.988 52.9319L365.873 52.6216L364.366 54.1L363.423 53.8377L367.557 49.7815L369.861 50.4224C370.379 50.5665 370.689 50.8148 370.779 51.17C370.884 51.5177 370.756 51.8782 370.384 52.2431C369.859 52.7578 368.919 53.1028 368.045 53.0997L367.746 55.0402L366.697 54.7484ZM367.861 50.6707L366.478 52.0274L367.833 52.4043C368.338 52.5446 369.041 52.3561 369.428 51.9771C369.809 51.6028 369.714 51.1861 369.216 51.0475L367.861 50.6707Z" fill="white"/>
<path d="M372.57 51.1765L373.513 51.4388L369.379 55.4946L368.436 55.2323L372.57 51.1765Z" fill="white"/>
<path d="M372.086 55.4312L374.636 56.1406L373.988 56.7765L370.495 55.8048L374.627 51.7507L378.08 52.7113L377.432 53.3472L374.922 52.649L373.849 53.7011L376.154 54.342L375.51 54.9733L373.206 54.3324L372.086 55.4312Z" fill="white"/>
<path d="M375.586 56.0364L376.745 55.9271C376.511 56.4498 376.754 56.8053 377.478 57.0066C378.195 57.2061 378.766 57.089 379.09 56.7712C379.261 56.6029 379.285 56.4537 379.185 56.3179C379.09 56.1773 378.845 55.9832 378.458 55.7437C378.026 55.4735 377.83 55.323 377.626 55.0382C377.445 54.7479 377.53 54.4297 377.902 54.0652C378.268 53.7053 378.733 53.4748 379.313 53.3661C379.891 53.2509 380.434 53.27 380.945 53.4122C381.868 53.6689 382.236 54.2031 382.041 54.8627L380.915 54.9635C381.057 54.5231 380.847 54.2188 380.283 54.0618C379.732 53.9085 379.18 54.0068 378.865 54.3153C378.561 54.6144 378.697 54.8322 379.384 55.2695C379.551 55.3819 379.672 55.4636 379.743 55.5193C379.826 55.5723 379.922 55.6531 380.049 55.7544C380.183 55.8576 380.267 55.959 380.301 56.0344C380.435 56.2876 380.479 56.6538 380.044 57.0307C379.672 57.3952 379.186 57.6379 378.589 57.7476C377.998 57.8592 377.402 57.8253 376.791 57.6554C375.68 57.3404 375.251 56.7411 375.586 56.0364Z" fill="white"/>
</g>
<path d="M297.625 65.0157L297.068 66.6853L363.995 85.3402L364.769 84.5123L364.747 84.4282L364.531 83.5864L297.625 65.0157Z" fill="url(#paint1_linear)"/>
<path d="M365.847 84.8627L364.769 84.5122L364.531 83.5863L414.122 34.9864L415.438 36.2629L365.847 84.8627Z" fill="#8B3384"/>
<path d="M383.183 152.118L381.331 152.595L363.995 85.3402L364.769 84.5123L365.847 84.8629L383.183 152.118Z" fill="#872F7F"/>
<defs>
<filter id="filter0_f" x="281.927" y="78.6702" width="166.314" height="136.163" filterUnits="userSpaceOnUse" color-interpolation-filters="sRGB">
<feFlood flood-opacity="0" result="BackgroundImageFix"/>
<feBlend mode="normal" in="SourceGraphic" in2="BackgroundImageFix" result="shape"/>
<feGaussianBlur stdDeviation="15" result="effect1_foregroundBlur"/>
</filter>
<filter id="filter1_f" x="281.73" y="86.8369" width="166.314" height="136.163" filterUnits="userSpaceOnUse" color-interpolation-filters="sRGB">
<feFlood flood-opacity="0" result="BackgroundImageFix"/>
<feBlend mode="normal" in="SourceGraphic" in2="BackgroundImageFix" result="shape"/>
<feGaussianBlur stdDeviation="15" result="effect1_foregroundBlur"/>
</filter>
<filter id="filter2_f" x="309.816" y="101.769" width="110.536" height="89.9647" filterUnits="userSpaceOnUse" color-interpolation-filters="sRGB">
<feFlood flood-opacity="0" result="BackgroundImageFix"/>
<feBlend mode="normal" in="SourceGraphic" in2="BackgroundImageFix" result="shape"/>
<feGaussianBlur stdDeviation="9.5" result="effect1_foregroundBlur"/>
</filter>
<filter id="filter3_f" x="378.135" y="68.3905" width="42.4208" height="51.5815" filterUnits="userSpaceOnUse" color-interpolation-filters="sRGB">
<feFlood flood-opacity="0" result="BackgroundImageFix"/>
<feBlend mode="normal" in="SourceGraphic" in2="BackgroundImageFix" result="shape"/>
<feGaussianBlur stdDeviation="0.391163" result="effect1_foregroundBlur"/>
</filter>
<filter id="filter4_f" x="311.319" y="95.153" width="55.6833" height="29.0851" filterUnits="userSpaceOnUse" color-interpolation-filters="sRGB">
<feFlood flood-opacity="0" result="BackgroundImageFix"/>
<feBlend mode="normal" in="SourceGraphic" in2="BackgroundImageFix" result="shape"/>
<feGaussianBlur stdDeviation="0.434625" result="effect1_foregroundBlur"/>
</filter>
<filter id="filter5_f" x="324.808" y="37.2179" width="62.0558" height="25.406" filterUnits="userSpaceOnUse" color-interpolation-filters="sRGB">
<feFlood flood-opacity="0" result="BackgroundImageFix"/>
<feBlend mode="normal" in="SourceGraphic" in2="BackgroundImageFix" result="shape"/>
<feGaussianBlur stdDeviation="0.434625" result="effect1_foregroundBlur"/>
</filter>
<linearGradient id="paint0_linear" x1="172.401" y1="-49.384" x2="187.883" y2="87.9901" gradientUnits="userSpaceOnUse">
<stop stop-color="white"/>
<stop offset="1" stop-color="white" stop-opacity="0"/>
</linearGradient>
<linearGradient id="paint1_linear" x1="300.304" y1="68.0954" x2="363.43" y2="82.9725" gradientUnits="userSpaceOnUse">
<stop stop-color="#AF58A8"/>
<stop offset="1" stop-color="#973A8F"/>
</linearGradient>
<clipPath id="clip0">
<rect width="52.4364" height="13.728" fill="white" transform="matrix(0.713808 -0.700342 0.24961 0.968347 378.917 105.896)"/>
</clipPath>
<clipPath id="clip1">
<rect width="52.4364" height="13.728" fill="white" transform="matrix(0.713808 -0.700342 0.24961 0.968347 379.571 106.066)"/>
</clipPath>
<clipPath id="clip2">
<rect width="52.4364" height="13.728" fill="white" transform="matrix(0.963418 0.268005 0.24961 0.968347 312.189 96.0222)"/>
</clipPath>
<clipPath id="clip3">
<rect width="52.4364" height="13.728" fill="white" transform="matrix(0.963418 0.268005 0.24961 0.968347 311.748 96.4739)"/>
</clipPath>
<clipPath id="clip4">
<rect width="52.4364" height="13.728" fill="white" transform="matrix(0.963418 0.268005 -0.713808 0.700342 335.477 38.0872)"/>
</clipPath>
<clipPath id="clip5">
<rect width="52.4364" height="13.728" fill="white" transform="matrix(0.963418 0.268005 -0.713808 0.700342 335.331 37.2529)"/>
</clipPath>
</defs>
</svg>
