<svg width="520" height="652" viewBox="0 0 520 652" fill="none" xmlns="http://www.w3.org/2000/svg">
<g opacity="0.2" filter="url(#filter0_f)">
<path d="M198.102 542.57L105.162 495.299L199.816 446.534L291.574 492.18L198.102 542.57Z" fill="black"/>
</g>
<g opacity="0.5" filter="url(#filter1_f)">
<path d="M197.731 556.095L104.791 508.824L199.445 460.059L291.203 505.706L197.731 556.095Z" fill="#D2B621"/>
</g>
<g opacity="0.3" filter="url(#filter2_f)">
<path d="M198.134 527.267L134.722 495.015L199.303 461.743L261.908 492.887L198.134 527.267Z" fill="black"/>
</g>
<path d="M107.88 275.621L112.228 273.11L252.821 273.106L181.037 397.376L37.6706 397.531L107.88 275.621Z" fill="#FFE300"/>
<g opacity="0.6" clip-path="url(#clip0)" filter="url(#filter3_f)">
<path d="M105.142 327.549H103.965C103.602 327.549 103.214 327.613 102.8 327.742C102.384 327.872 101.963 328.077 101.536 328.361C101.107 328.645 100.687 329.009 100.269 329.454C99.8544 329.899 99.4686 330.43 99.1113 331.049C98.7619 331.654 98.5532 332.168 98.4847 332.586C98.4166 333.006 98.4477 333.351 98.5783 333.622C98.7096 333.892 98.9206 334.089 99.2126 334.211C99.5035 334.334 99.8461 334.395 100.239 334.395H101.19L105.142 327.548L105.142 327.549ZM92.7379 341.184H90.6766L97.6865 335.401C96.8671 334.963 96.4371 334.379 96.3973 333.651C96.3572 332.923 96.6268 332.055 97.2079 331.049C97.6545 330.275 98.1772 329.593 98.7763 329C99.3744 328.407 100.011 327.908 100.684 327.501C101.357 327.094 102.043 326.789 102.744 326.582C103.445 326.376 104.119 326.273 104.77 326.273H107.67L99.0614 341.184H97.2699L100.463 335.653H99.2866L92.7379 341.184Z" fill="#680000"/>
<path fill-rule="evenodd" clip-rule="evenodd" d="M115.868 343.119H114.259L115.387 341.166H110.38L109.252 343.119H107.643L109.496 339.908H110.198C110.896 339.328 111.54 338.703 112.132 338.032C112.724 337.361 113.268 336.684 113.769 336.001C114.269 335.318 114.724 334.641 115.134 333.97C115.545 333.3 115.924 332.662 116.274 332.055L116.765 331.205H121.841L116.816 339.909H117.722L115.869 343.119H115.868ZM125.093 340.72C124.611 340.901 124.101 341.058 123.562 341.194C123.024 341.33 122.466 341.397 121.893 341.397C120.714 341.397 120.011 340.979 119.786 340.141C119.56 339.303 119.885 338.123 120.764 336.601C121.188 335.866 121.669 335.16 122.202 334.484C122.738 333.806 123.302 333.207 123.899 332.685C124.495 332.162 125.111 331.743 125.746 331.428C126.381 331.112 127.016 330.953 127.65 330.953C128.587 330.953 129.111 331.354 129.223 332.153C129.337 332.952 128.943 334.132 128.042 335.692L127.551 336.543H122.678C122.053 337.626 121.78 338.471 121.861 339.076C121.942 339.683 122.443 339.986 123.365 339.986C123.712 339.986 124.095 339.944 124.513 339.861C124.932 339.776 125.27 339.696 125.526 339.618L125.094 340.721L125.093 340.72ZM126.867 332.192C126.611 332.192 126.34 332.269 126.054 332.423C125.768 332.579 125.478 332.794 125.182 333.071C124.885 333.348 124.591 333.674 124.3 334.048C124.009 334.422 123.721 334.828 123.438 335.267H126.429L126.551 335.055C126.589 334.99 126.626 334.919 126.664 334.841C126.701 334.764 126.745 334.68 126.797 334.59C127.176 333.829 127.373 333.239 127.388 332.819C127.403 332.401 127.23 332.191 126.868 332.191L126.867 332.192ZM119.336 332.443L115.025 339.908H111.786C112.333 339.483 112.872 338.98 113.404 338.399C113.936 337.819 114.45 337.203 114.945 336.553C115.443 335.901 115.909 335.238 116.346 334.56C116.782 333.883 117.175 333.242 117.524 332.636L117.636 332.443H119.336V332.443ZM113.479 331.205L107.728 341.166H105.937L108.684 336.407H106.011L103.264 341.165H101.451L107.202 331.204H109.015L106.749 335.13H109.422L111.689 331.205H113.48H113.479ZM133.493 341.166H131.475L131.525 336.253L131.443 336.041L128.484 341.165H126.671L132.422 331.204H134.235L131.622 335.73L131.938 335.536L136.91 331.204H138.836L133.391 335.691L133.494 341.165L133.493 341.166ZM138.685 336.214C138.008 337.387 137.687 338.309 137.723 338.98C137.759 339.65 138.214 339.985 139.091 339.985C139.423 339.985 139.787 339.944 140.183 339.861C140.579 339.776 140.907 339.695 141.162 339.617L140.707 340.72C140.255 340.901 139.775 341.058 139.266 341.194C138.757 341.33 138.231 341.397 137.687 341.397C136.525 341.397 135.821 340.985 135.58 340.16C135.34 339.335 135.665 338.149 136.559 336.601C137.05 335.75 137.599 334.977 138.206 334.281C138.811 333.584 139.429 332.991 140.059 332.501C140.688 332.012 141.324 331.632 141.964 331.361C142.602 331.09 143.202 330.955 143.762 330.955C144.259 330.955 144.676 331.013 145.01 331.129C145.343 331.245 145.612 331.399 145.818 331.593L144.117 332.928C144.025 332.721 143.887 332.547 143.705 332.405C143.523 332.264 143.296 332.193 143.023 332.193C142.707 332.193 142.353 332.308 141.962 332.541C141.572 332.773 141.185 333.076 140.803 333.45C140.421 333.824 140.045 334.252 139.675 334.736C139.305 335.22 138.975 335.712 138.685 336.215L138.685 336.214ZM149.61 338.852H150.492L157.345 331.173C157.859 330.594 158.341 330.034 158.989 329.263H159.08C158.633 329.958 158.187 330.652 157.808 331.309L152.227 340.975H153.312L161.278 327.178H160.011L152.164 335.996C151.849 336.344 151.245 337.077 150.854 337.598H150.786C151.019 337.077 151.272 336.364 151.371 335.997L153.727 327.178H152.416L144.451 340.974H145.445L151.026 331.308C151.427 330.613 151.806 329.918 152.14 329.262H152.208C151.976 329.898 151.801 330.516 151.614 331.23L149.609 338.851L149.61 338.852ZM158.417 340.435C159.48 340.435 160.727 339.567 161.735 338.524L163.283 335.843H162.062C160.186 335.843 158.859 336.576 157.879 338.273C157.088 339.643 157.333 340.435 158.417 340.435V340.435ZM160.637 340.975C160.691 340.724 160.79 340.357 161.124 339.663C160.046 340.589 158.897 341.168 157.767 341.168C156.231 341.168 155.77 340.126 156.795 338.351C157.998 336.267 159.956 335.186 162.42 335.186H163.662L164.364 333.971C165.222 332.485 164.935 331.848 163.692 331.848C162.719 331.848 161.615 332.235 160.682 332.91L160.89 332.041C161.631 331.54 162.86 331.057 164.148 331.057C166.025 331.057 166.574 331.945 165.46 333.874L162.397 339.181C162.007 339.856 161.686 340.609 161.609 340.975H160.637V340.975ZM167.279 340.435C168.726 340.435 170.522 338.968 172.293 335.9C173.764 333.353 173.819 331.847 172.508 331.847C171.491 331.847 170.097 332.774 168.998 333.816L165.857 339.256C165.851 340.048 166.262 340.433 167.28 340.433L167.279 340.435ZM166.799 341.149C165.94 341.149 165.406 340.782 165.255 340.3L163.128 343.985H162.065L169.418 331.25H170.344L169.51 332.851C170.542 331.925 171.881 331.056 173.146 331.056C175.045 331.056 175.028 333.005 173.401 335.823C171.341 339.391 168.925 341.148 166.8 341.148L166.799 341.149ZM176.431 335.939L177.48 340.974H178.657L177.639 335.765L183.998 331.25H182.959L176.498 335.823L179.138 331.25H178.075L172.461 340.975H173.523L176.431 335.938L176.431 335.939ZM186.271 339.335L186.187 340.068C186.187 340.068 184.694 341.168 182.885 341.168C180.466 341.168 180.439 339.297 182.278 336.112C184.116 332.928 186.598 331.056 188.52 331.056C190.486 331.056 190.739 332.813 188.383 336.266H183.23C181.736 338.93 181.715 340.377 183.366 340.377C184.879 340.377 186.272 339.335 186.273 339.334L186.271 339.335ZM188.083 331.811C186.885 331.811 185.155 333.122 183.662 335.554H187.799C189.474 332.967 189.237 331.811 188.084 331.811H188.083ZM198.372 332.003L198.807 331.25H192.477L192.042 332.002H194.688L189.508 340.974H190.57L195.749 332.003H198.372V332.003Z" fill="black"/>
</g>
<g clip-path="url(#clip1)">
<path d="M104.409 326.143H103.233C102.869 326.143 102.481 326.208 102.067 326.337C101.652 326.466 101.23 326.672 100.803 326.956C100.375 327.239 99.9541 327.603 99.5361 328.049C99.1218 328.493 98.7359 329.024 98.3786 329.643C98.0292 330.248 97.8205 330.762 97.752 331.181C97.6839 331.6 97.715 331.945 97.8456 332.216C97.9769 332.486 98.188 332.683 98.4799 332.805C98.7708 332.928 99.1134 332.989 99.5067 332.989H100.457L104.41 326.143L104.409 326.143ZM92.0052 339.778H89.9439L96.9539 333.995C96.1344 333.557 95.7044 332.974 95.6646 332.245C95.6245 331.517 95.8942 330.65 96.4752 329.643C96.9218 328.87 97.4445 328.187 98.0437 327.594C98.6417 327.001 99.2785 326.502 99.9512 326.095C100.625 325.688 101.311 325.383 102.011 325.176C102.712 324.97 103.387 324.867 104.037 324.867H106.938L98.3288 339.778H96.5372L99.7307 334.247H98.5539L92.0052 339.778Z" fill="#FF0000"/>
<path fill-rule="evenodd" clip-rule="evenodd" d="M115.135 341.713H113.527L114.655 339.76H109.647L108.52 341.713H106.91L108.764 338.502H109.466C110.164 337.922 110.808 337.297 111.4 336.626C111.992 335.955 112.536 335.278 113.036 334.595C113.537 333.912 113.991 333.235 114.402 332.564C114.812 331.894 115.192 331.256 115.542 330.649L116.033 329.799H121.108L116.083 338.503H116.99L115.137 341.713H115.135ZM124.361 339.314C123.878 339.495 123.369 339.652 122.83 339.788C122.291 339.924 121.733 339.991 121.16 339.991C119.982 339.991 119.279 339.573 119.053 338.735C118.828 337.897 119.153 336.717 120.032 335.195C120.456 334.46 120.937 333.754 121.47 333.078C122.005 332.4 122.57 331.801 123.166 331.279C123.763 330.756 124.378 330.337 125.014 330.022C125.649 329.706 126.284 329.547 126.917 329.547C127.854 329.547 128.379 329.948 128.491 330.747C128.604 331.546 128.211 332.726 127.31 334.286L126.818 335.137H121.946C121.321 336.22 121.048 337.065 121.129 337.67C121.21 338.277 121.71 338.58 122.632 338.58C122.979 338.58 123.362 338.538 123.78 338.455C124.2 338.37 124.537 338.29 124.793 338.212L124.361 339.315L124.361 339.314ZM126.134 330.786C125.879 330.786 125.608 330.863 125.321 331.017C125.035 331.173 124.745 331.388 124.45 331.665C124.153 331.942 123.859 332.268 123.568 332.642C123.277 333.016 122.989 333.422 122.705 333.861H125.697L125.819 333.649C125.857 333.584 125.894 333.513 125.931 333.435C125.969 333.358 126.012 333.274 126.065 333.184C126.444 332.423 126.64 331.833 126.656 331.413C126.67 330.995 126.498 330.785 126.135 330.785L126.134 330.786ZM118.603 331.037L114.293 338.502H111.053C111.6 338.077 112.14 337.574 112.671 336.993C113.204 336.413 113.717 335.797 114.213 335.147C114.71 334.495 115.177 333.832 115.613 333.154C116.049 332.477 116.442 331.836 116.792 331.23L116.904 331.037H118.603V331.037ZM112.746 329.799L106.995 339.76H105.205L107.952 335.001H105.279L102.532 339.759H100.719L106.47 329.798H108.283L106.016 333.724H108.69L110.956 329.799H112.747H112.746ZM132.76 339.76H130.743L130.792 334.847L130.71 334.635L127.752 339.759H125.939L131.69 329.798H133.502L130.89 334.324L131.206 334.13L136.178 329.798H138.103L132.658 334.285L132.761 339.759L132.76 339.76ZM137.953 334.808C137.275 335.981 136.955 336.903 136.99 337.574C137.027 338.244 137.482 338.579 138.358 338.579C138.691 338.579 139.055 338.538 139.45 338.455C139.847 338.37 140.174 338.289 140.43 338.211L139.974 339.314C139.523 339.495 139.043 339.652 138.534 339.788C138.024 339.924 137.499 339.991 136.955 339.991C135.793 339.991 135.089 339.579 134.848 338.754C134.608 337.929 134.933 336.743 135.826 335.195C136.318 334.344 136.867 333.571 137.473 332.875C138.078 332.178 138.696 331.585 139.326 331.095C139.956 330.606 140.592 330.226 141.231 329.955C141.87 329.684 142.47 329.549 143.03 329.549C143.527 329.549 143.944 329.607 144.277 329.723C144.61 329.839 144.88 329.993 145.085 330.187L143.385 331.522C143.292 331.315 143.155 331.141 142.972 330.999C142.791 330.858 142.563 330.787 142.291 330.787C141.974 330.787 141.62 330.902 141.23 331.135C140.84 331.367 140.453 331.67 140.071 332.044C139.688 332.418 139.313 332.846 138.943 333.33C138.573 333.813 138.243 334.306 137.953 334.809L137.953 334.808ZM148.878 337.446H149.759L156.612 329.767C157.126 329.188 157.608 328.628 158.256 327.857H158.348C157.901 328.552 157.455 329.246 157.075 329.903L151.495 339.569H152.58L160.545 325.772H159.279L151.432 334.59C151.117 334.938 150.512 335.671 150.122 336.192H150.054C150.286 335.671 150.54 334.958 150.639 334.591L152.995 325.772H151.684L143.718 339.568H144.713L150.293 329.902C150.695 329.207 151.074 328.512 151.407 327.856H151.475C151.244 328.492 151.069 329.11 150.882 329.824L148.877 337.445L148.878 337.446ZM157.684 339.029C158.747 339.029 159.994 338.161 161.002 337.118L162.55 334.437H161.33C159.454 334.437 158.127 335.17 157.146 336.867C156.355 338.237 156.6 339.029 157.684 339.029V339.029ZM159.905 339.569C159.959 339.318 160.058 338.951 160.392 338.257C159.314 339.183 158.165 339.762 157.035 339.762C155.498 339.762 155.037 338.72 156.062 336.945C157.265 334.861 159.223 333.78 161.687 333.78H162.93L163.632 332.565C164.49 331.079 164.202 330.442 162.959 330.442C161.987 330.442 160.882 330.829 159.95 331.504L160.158 330.635C160.899 330.134 162.127 329.651 163.416 329.651C165.292 329.651 165.842 330.539 164.728 332.468L161.664 337.775C161.274 338.45 160.953 339.203 160.877 339.569H159.905V339.569ZM166.547 339.029C167.994 339.029 169.789 337.562 171.561 334.494C173.031 331.947 173.087 330.441 171.776 330.441C170.758 330.441 169.364 331.368 168.266 332.41L165.125 337.85C165.119 338.642 165.53 339.027 166.547 339.027L166.547 339.029ZM166.066 339.743C165.208 339.743 164.674 339.376 164.523 338.894L162.395 342.579H161.332L168.685 329.844H169.612L168.778 331.445C169.81 330.519 171.148 329.65 172.414 329.65C174.313 329.65 174.296 331.599 172.669 334.417C170.609 337.985 168.192 339.742 166.067 339.742L166.066 339.743ZM175.699 334.533L176.748 339.568H177.925L176.907 334.359L183.266 329.844H182.227L175.766 334.417L178.406 329.844H177.343L171.729 339.569H172.791L175.699 334.532L175.699 334.533ZM185.539 337.929L185.455 338.662C185.455 338.662 183.961 339.762 182.153 339.762C179.734 339.762 179.707 337.891 181.545 334.706C183.384 331.522 185.866 329.65 187.787 329.65C189.754 329.65 190.006 331.407 187.651 334.86H182.497C181.003 337.524 180.983 338.971 182.633 338.971C184.146 338.971 185.539 337.929 185.541 337.928L185.539 337.929ZM187.351 330.405C186.152 330.405 184.423 331.716 182.93 334.148H187.067C188.742 331.561 188.504 330.405 187.352 330.405H187.351ZM197.639 330.597L198.074 329.844H191.744L191.31 330.596H193.956L188.776 339.568H189.837L195.017 330.597H197.639V330.597Z" fill="black"/>
</g>
<path d="M37.4868 401.158L180.971 401.141L252.699 525.378L113.552 525.375L106.884 521.356L37.4868 401.158Z" fill="#E8CE00"/>
<g opacity="0.7" clip-path="url(#clip2)" filter="url(#filter4_f)">
<path d="M96.1475 455.568H94.9707C94.6074 455.568 94.2936 455.633 94.0283 455.762C93.7622 455.891 93.5785 456.097 93.4792 456.381C93.3785 456.664 93.378 457.028 93.4743 457.474C93.5729 457.918 93.8009 458.449 94.1582 459.068C94.5076 459.674 94.8917 460.187 95.3067 460.606C95.7227 461.025 96.1521 461.37 96.5961 461.641C97.0393 461.911 97.4773 462.108 97.9105 462.23C98.3433 462.353 98.7565 462.414 99.1498 462.414H100.1L96.1472 455.568L96.1475 455.568ZM99.4878 469.203H97.4264L97.7583 463.42C96.4331 462.982 95.3295 462.399 94.4483 461.67C93.5674 460.942 92.8358 460.075 92.2548 459.068C91.8081 458.295 91.5427 457.612 91.4567 457.019C91.3704 456.426 91.4309 455.927 91.6339 455.52C91.8376 455.114 92.1706 454.808 92.6325 454.601C93.0962 454.395 93.6515 454.292 94.302 454.292H97.2025L105.811 469.203H104.02L100.826 463.672H99.6493L99.4878 469.203Z" fill="#730000"/>
<path fill-rule="evenodd" clip-rule="evenodd" d="M124.851 471.138H123.242L122.115 469.185H117.108L118.235 471.138H116.626L114.772 467.927H115.474C115.502 467.347 115.424 466.722 115.242 466.051C115.059 465.38 114.822 464.703 114.533 464.02C114.245 463.337 113.918 462.66 113.554 461.99C113.19 461.319 112.833 460.681 112.482 460.074L111.992 459.224H117.068L122.092 467.928H122.999L124.852 471.138H124.851ZM131.307 468.739C131.034 468.92 130.705 469.078 130.323 469.214C129.941 469.349 129.461 469.416 128.888 469.416C127.71 469.416 126.524 468.998 125.33 468.16C124.137 467.322 123.1 466.142 122.222 464.62C121.797 463.886 121.463 463.179 121.215 462.503C120.967 461.825 120.84 461.226 120.834 460.704C120.827 460.181 120.958 459.762 121.229 459.447C121.5 459.131 121.952 458.972 122.586 458.972C123.523 458.972 124.51 459.373 125.544 460.172C126.58 460.971 127.549 462.151 128.45 463.711L128.941 464.562H124.069C124.694 465.646 125.397 466.49 126.177 467.095C126.958 467.702 127.809 468.005 128.73 468.005C129.078 468.005 129.412 467.963 129.734 467.88C130.056 467.795 130.3 467.715 130.467 467.637L131.308 468.74L131.307 468.739ZM123.233 460.211C122.977 460.211 122.794 460.288 122.686 460.442C122.58 460.598 122.539 460.813 122.564 461.091C122.587 461.368 122.669 461.693 122.809 462.067C122.95 462.441 123.131 462.847 123.355 463.286H126.346L126.223 463.074C126.186 463.009 126.141 462.938 126.089 462.86C126.037 462.783 125.984 462.7 125.932 462.609C125.432 461.848 124.947 461.258 124.479 460.838C124.011 460.42 123.596 460.21 123.233 460.21L123.233 460.211ZM115.991 460.462L120.301 467.927H117.062C117.117 467.502 117.076 466.999 116.938 466.418C116.8 465.838 116.602 465.223 116.347 464.572C116.092 463.92 115.792 463.257 115.446 462.579C115.101 461.902 114.753 461.261 114.403 460.655L114.292 460.462H115.991V460.462ZM108.705 459.224L114.456 469.185H112.665L109.918 464.426H107.245L109.992 469.184H108.179L102.428 459.223H104.241L106.507 463.149H109.181L106.915 459.224H108.706H108.705ZM140.221 469.185H138.203L132.58 464.272L132.253 464.06L135.211 469.184H133.399L127.648 459.223H129.46L132.073 463.749L132.166 463.555L132.136 459.223H134.061L133.797 463.71L140.22 469.184L140.221 469.185ZM139.695 464.233C140.372 465.406 141.117 466.328 141.927 466.999C142.738 467.669 143.579 468.004 144.456 468.004C144.788 468.004 145.104 467.963 145.404 467.88C145.702 467.795 145.937 467.714 146.102 467.636L146.92 468.739C146.678 468.92 146.379 469.078 146.027 469.214C145.674 469.349 145.226 469.416 144.683 469.416C143.52 469.416 142.341 469.005 141.147 468.179C139.954 467.354 138.91 466.168 138.016 464.62C137.525 463.769 137.181 462.996 136.983 462.3C136.785 461.603 136.718 461.01 136.782 460.52C136.847 460.031 137.043 459.651 137.37 459.38C137.696 459.109 138.14 458.974 138.7 458.974C139.197 458.974 139.68 459.032 140.148 459.148C140.615 459.264 141.063 459.418 141.492 459.612L141.333 460.947C141.001 460.74 140.664 460.566 140.317 460.424C139.972 460.283 139.663 460.212 139.39 460.212C139.074 460.212 138.853 460.327 138.731 460.56C138.609 460.792 138.572 461.095 138.621 461.469C138.671 461.843 138.79 462.271 138.979 462.755C139.167 463.239 139.406 463.731 139.696 464.234L139.695 464.233ZM153.666 466.871H154.548L152.534 459.192C152.38 458.613 152.215 458.053 151.972 457.282H152.063C152.419 457.977 152.775 458.671 153.154 459.328L158.735 468.994H159.82L151.854 455.197H150.588L152.923 464.015C153.009 464.363 153.251 465.096 153.462 465.617H153.394C153.026 465.096 152.455 464.383 152.131 464.016L144.304 455.197H142.993L150.958 468.993H151.952L146.371 459.327C145.97 458.632 145.547 457.937 145.123 457.281H145.191C145.694 457.917 146.232 458.535 146.87 459.249L153.665 466.87L153.666 466.871ZM164.301 468.454C165.363 468.454 165.609 467.586 165.413 466.543L163.864 463.862H162.644C160.768 463.862 160.287 464.595 161.267 466.292C162.058 467.663 163.217 468.454 164.301 468.454V468.454ZM167.145 468.994C166.909 468.743 166.585 468.376 166.117 467.682C166.108 468.608 165.628 469.187 164.498 469.187C162.962 469.187 161.298 468.145 160.272 466.37C159.069 464.286 159.779 463.205 162.244 463.205H163.486L162.784 461.99C161.926 460.504 160.904 459.867 159.66 459.867C158.688 459.867 158.03 460.254 157.877 460.929L157.082 460.06C157.244 459.559 157.915 459.076 159.204 459.076C161.08 459.076 162.655 459.964 163.769 461.893L166.832 467.2C167.222 467.875 167.771 468.628 168.117 468.994H167.145V468.994ZM173.163 468.454C174.61 468.454 174.712 466.987 172.941 463.919C171.47 461.372 169.788 459.866 168.476 459.866C167.459 459.866 167.135 460.793 167.239 461.835L170.38 467.275C171.289 468.067 172.145 468.452 173.162 468.452L173.163 468.454ZM173.507 469.168C172.649 469.168 171.691 468.801 170.984 468.319L173.111 472.004H172.048L164.696 459.269H165.622L166.638 460.87C166.6 459.944 166.935 459.075 168.201 459.075C170.1 459.075 172.333 461.024 173.96 463.842C176.02 467.41 175.633 469.167 173.508 469.167L173.507 469.168ZM177.124 463.959L183.987 468.993H185.164L178.131 463.784L179.277 459.269H178.238L177.057 463.842L174.417 459.269H173.354L178.969 468.994H180.031L177.122 463.957L177.124 463.959ZM190.885 467.354L191.648 468.087C191.648 468.087 191.425 469.187 189.616 469.187C187.197 469.187 185.009 467.316 183.17 464.131C181.332 460.947 181.653 459.075 183.574 459.075C185.541 459.075 187.821 460.832 189.453 464.285H184.3C185.882 466.949 187.533 468.396 189.183 468.396C190.696 468.396 190.886 467.354 190.886 467.353L190.885 467.354ZM184.009 459.83C182.81 459.83 182.595 461.141 183.91 463.573H188.047C186.735 460.986 185.163 459.83 184.01 459.83H184.009ZM194.519 460.022L194.085 459.269H187.755L188.189 460.021H190.835L196.015 468.993H197.076L191.897 460.022H194.519V460.022Z" fill="black"/>
</g>
<g clip-path="url(#clip3)">
<path d="M95.3191 456.521H94.1423C93.779 456.521 93.4652 456.585 93.1999 456.714C92.9338 456.843 92.7501 457.049 92.6508 457.333C92.5501 457.617 92.5496 457.981 92.646 458.426C92.7446 458.87 92.9725 459.402 93.3298 460.021C93.6792 460.626 94.0634 461.139 94.4783 461.558C94.8943 461.977 95.3238 462.322 95.7677 462.594C96.211 462.864 96.649 463.06 97.0821 463.183C97.5149 463.305 97.9281 463.367 98.3214 463.367H99.2716L95.3188 456.52L95.3191 456.521ZM98.6594 470.156H96.5981L96.9299 464.372C95.6047 463.934 94.5011 463.351 93.6199 462.622C92.7391 461.894 92.0074 461.027 91.4264 460.021C90.9797 459.247 90.7143 458.565 90.6283 457.971C90.542 457.379 90.6025 456.879 90.8055 456.473C91.0092 456.066 91.3422 455.76 91.8041 455.554C92.2678 455.348 92.8231 455.245 93.4737 455.245H96.3741L104.983 470.156H103.191L99.9978 464.624H98.821L98.6594 470.156Z" fill="#FF0000"/>
<path fill-rule="evenodd" clip-rule="evenodd" d="M124.023 472.09H122.415L121.287 470.137H116.28L117.407 472.09H115.798L113.944 468.879H114.646C114.674 468.299 114.596 467.674 114.414 467.003C114.231 466.333 113.994 465.656 113.705 464.972C113.417 464.289 113.09 463.612 112.726 462.942C112.362 462.271 112.005 461.633 111.655 461.026L111.164 460.177H116.24L121.265 468.88H122.171L124.024 472.09H124.023ZM130.479 469.692C130.206 469.872 129.878 470.03 129.496 470.166C129.113 470.301 128.633 470.368 128.06 470.368C126.882 470.368 125.696 469.95 124.502 469.112C123.309 468.274 122.272 467.094 121.394 465.573C120.969 464.838 120.635 464.131 120.387 463.455C120.139 462.777 120.012 462.178 120.006 461.656C119.999 461.133 120.13 460.714 120.401 460.399C120.672 460.083 121.124 459.925 121.758 459.925C122.695 459.925 123.682 460.325 124.716 461.124C125.752 461.923 126.721 463.103 127.622 464.664L128.114 465.515H123.241C123.866 466.598 124.569 467.442 125.349 468.048C126.13 468.654 126.981 468.957 127.902 468.957C128.25 468.957 128.584 468.915 128.906 468.832C129.228 468.748 129.472 468.667 129.639 468.589L130.48 469.692L130.479 469.692ZM122.405 461.163C122.149 461.163 121.967 461.24 121.858 461.394C121.752 461.55 121.711 461.765 121.736 462.043C121.759 462.32 121.841 462.645 121.981 463.019C122.122 463.393 122.303 463.799 122.527 464.238H125.518L125.395 464.026C125.358 463.961 125.313 463.89 125.261 463.813C125.209 463.735 125.157 463.652 125.104 463.561C124.604 462.8 124.119 462.21 123.651 461.791C123.183 461.373 122.768 461.162 122.405 461.162L122.405 461.163ZM115.163 461.414L119.473 468.879H116.234C116.289 468.454 116.248 467.951 116.11 467.371C115.972 466.79 115.774 466.175 115.519 465.524C115.264 464.873 114.964 464.209 114.618 463.531C114.273 462.854 113.925 462.213 113.575 461.607L113.464 461.414H115.163V461.414ZM107.877 460.176L113.628 470.137H111.837L109.09 465.379H106.417L109.164 470.136H107.351L101.6 460.175H103.413L105.68 464.101H108.353L106.087 460.176H107.878H107.877ZM139.393 470.137H137.376L131.752 465.224L131.425 465.012L134.383 470.136H132.571L126.82 460.175H128.632L131.245 464.701L131.338 464.508L131.308 460.175H133.233L132.969 464.662L139.392 470.136L139.393 470.137ZM138.867 465.185C139.545 466.358 140.289 467.28 141.099 467.951C141.91 468.622 142.752 468.957 143.628 468.957C143.961 468.957 144.276 468.915 144.576 468.832C144.875 468.747 145.109 468.666 145.274 468.588L146.092 469.692C145.85 469.872 145.552 470.03 145.2 470.166C144.846 470.301 144.399 470.368 143.855 470.368C142.692 470.368 141.513 469.957 140.319 469.131C139.126 468.306 138.082 467.12 137.188 465.573C136.697 464.722 136.353 463.948 136.155 463.252C135.957 462.555 135.89 461.962 135.954 461.472C136.019 460.983 136.215 460.603 136.542 460.332C136.868 460.061 137.312 459.926 137.872 459.926C138.369 459.926 138.853 459.984 139.32 460.1C139.787 460.216 140.235 460.371 140.664 460.564L140.505 461.899C140.174 461.692 139.836 461.519 139.489 461.376C139.144 461.235 138.835 461.164 138.563 461.164C138.246 461.164 138.025 461.28 137.903 461.512C137.781 461.744 137.744 462.047 137.793 462.421C137.843 462.795 137.962 463.223 138.151 463.707C138.339 464.191 138.579 464.684 138.868 465.186L138.867 465.185ZM152.839 467.823H153.72L151.706 460.144C151.552 459.565 151.387 459.006 151.144 458.234H151.236C151.592 458.929 151.947 459.623 152.326 460.28L157.907 469.946H158.992L151.026 456.149H149.76L152.095 464.967C152.181 465.315 152.423 466.048 152.634 466.569H152.566C152.198 466.049 151.627 465.335 151.303 464.968L143.476 456.149H142.165L150.13 469.945H151.124L145.543 460.28C145.142 459.584 144.719 458.89 144.295 458.233H144.363C144.866 458.87 145.404 459.487 146.042 460.202L152.837 467.822L152.839 467.823ZM163.473 469.406C164.536 469.406 164.781 468.539 164.585 467.495L163.036 464.814H161.816C159.94 464.814 159.459 465.547 160.439 467.245C161.23 468.615 162.389 469.406 163.473 469.406V469.406ZM166.317 469.946C166.081 469.695 165.757 469.328 165.289 468.634C165.281 469.56 164.801 470.139 163.67 470.139C162.134 470.139 160.47 469.098 159.445 467.322C158.241 465.238 158.952 464.158 161.416 464.158H162.658L161.957 462.942C161.099 461.456 160.076 460.819 158.833 460.819C157.86 460.819 157.202 461.206 157.05 461.881L156.254 461.013C156.416 460.511 157.087 460.028 158.376 460.028C160.252 460.028 161.827 460.916 162.941 462.846L166.004 468.152C166.394 468.827 166.943 469.58 167.289 469.946H166.317V469.946ZM172.335 469.406C173.782 469.406 173.885 467.94 172.113 464.871C170.642 462.324 168.96 460.819 167.648 460.819C166.631 460.819 166.307 461.745 166.411 462.787L169.552 468.227C170.461 469.02 171.317 469.405 172.334 469.405L172.335 469.406ZM172.679 470.12C171.821 470.12 170.863 469.753 170.156 469.272L172.283 472.956H171.221L163.868 460.221H164.795L165.81 461.822C165.772 460.896 166.108 460.027 167.373 460.027C169.272 460.027 171.505 461.977 173.132 464.794C175.192 468.363 174.805 470.119 172.68 470.119L172.679 470.12ZM176.296 464.911L183.159 469.945H184.336L177.303 464.736L178.449 460.222H177.41L176.229 464.795L173.589 460.222H172.526L178.141 469.946H179.203L176.295 464.909L176.296 464.911ZM190.057 468.306L190.82 469.04C190.82 469.04 190.597 470.139 188.789 470.139C186.369 470.139 184.181 468.268 182.343 465.083C180.504 461.899 180.825 460.027 182.746 460.027C184.713 460.027 186.993 461.784 188.625 465.237H183.472C185.054 467.901 186.705 469.348 188.355 469.348C189.868 469.348 190.058 468.306 190.058 468.305L190.057 468.306ZM183.181 460.782C181.982 460.782 181.767 462.093 183.082 464.525H187.22C185.907 461.938 184.335 460.782 183.182 460.782H183.181ZM193.692 460.974L193.257 460.221H186.927L187.361 460.973H190.007L195.187 469.945H196.248L191.069 460.974H193.692V460.974Z" fill="black"/>
</g>
<path d="M184.387 399.169L256.143 274.916L325.63 395.27L325.686 402.899L256.115 523.405L184.387 399.169Z" fill="#C7AF04"/>
<g opacity="0.7" clip-path="url(#clip4)" filter="url(#filter5_f)">
<path d="M229.424 429.983L228.836 431.002C228.654 431.316 228.516 431.685 228.42 432.108C228.325 432.532 228.292 433 228.324 433.512C228.356 434.025 228.461 434.571 228.638 435.156C228.815 435.737 229.083 436.337 229.44 436.955C229.789 437.561 230.13 437.998 230.458 438.267C230.787 438.535 231.101 438.681 231.402 438.704C231.701 438.725 231.977 438.64 232.229 438.449C232.481 438.258 232.705 437.992 232.901 437.652L233.377 436.829L229.424 429.982L229.424 429.983ZM235.03 447.543L234 449.328L232.496 440.365C231.707 440.856 230.987 440.937 230.336 440.607C229.685 440.277 229.069 439.61 228.488 438.604C228.041 437.83 227.712 437.036 227.497 436.221C227.283 435.407 227.169 434.605 227.153 433.82C227.138 433.033 227.216 432.286 227.387 431.576C227.56 430.866 227.808 430.231 228.133 429.667L229.583 427.155L238.192 442.066L237.296 443.618L234.103 438.086L233.514 439.106L235.03 447.543Z" fill="#620000"/>
<path fill-rule="evenodd" clip-rule="evenodd" d="M248.27 428.478L247.466 429.871L246.339 427.918L243.835 432.255L244.962 434.207L244.158 435.601L242.304 432.391L242.655 431.783C242.502 430.888 242.282 430.018 241.997 429.17C241.712 428.322 241.398 427.512 241.057 426.737C240.715 425.962 240.356 425.231 239.981 424.54C239.605 423.849 239.242 423.201 238.892 422.594L238.402 421.745L240.94 417.349L245.964 426.052L246.418 425.267L248.271 428.477L248.27 428.478ZM250.806 419.29C250.721 419.798 250.603 420.318 250.451 420.853C250.299 421.387 250.078 421.904 249.792 422.4C249.203 423.42 248.489 423.82 247.65 423.596C246.812 423.373 245.953 422.501 245.074 420.979C244.65 420.245 244.279 419.475 243.96 418.675C243.64 417.872 243.403 417.084 243.25 416.306C243.095 415.528 243.04 414.786 243.084 414.078C243.129 413.37 243.309 412.741 243.626 412.192C244.094 411.381 244.703 411.127 245.451 411.43C246.2 411.731 247.025 412.662 247.926 414.222L248.417 415.073L245.981 419.293C246.606 420.376 247.202 421.034 247.766 421.267C248.332 421.5 248.845 421.218 249.306 420.42C249.479 420.119 249.635 419.766 249.772 419.363C249.908 418.957 250.007 418.625 250.067 418.364L250.807 419.29L250.806 419.29ZM244.307 413.489C244.179 413.711 244.11 413.984 244.1 414.309C244.092 414.635 244.134 414.994 244.226 415.388C244.318 415.784 244.453 416.201 244.631 416.64C244.809 417.08 245.017 417.531 245.255 417.997L246.751 415.406L246.629 415.194C246.591 415.129 246.548 415.061 246.5 414.99C246.452 414.919 246.401 414.839 246.349 414.749C245.879 414.04 245.466 413.575 245.111 413.352C244.756 413.13 244.488 413.174 244.307 413.488L244.307 413.489ZM240.758 420.137L245.069 427.603L243.449 430.408C243.354 429.722 243.188 429.003 242.951 428.253C242.715 427.501 242.438 426.749 242.123 425.994C241.807 425.238 241.466 424.502 241.097 423.785C240.729 423.069 240.37 422.408 240.02 421.802L239.909 421.609L240.758 420.137V420.137ZM236.758 424.59L242.509 434.551L241.614 436.102L238.866 431.344L237.53 433.659L240.277 438.417L239.37 439.986L233.619 430.025L234.526 428.456L236.792 432.382L238.129 430.066L235.863 426.141L236.758 424.59L236.758 424.59ZM255.391 412.238L254.383 413.985L250.153 411.486L249.928 411.451L252.886 416.576L251.98 418.146L246.229 408.185L247.136 406.615L249.748 411.14L249.739 410.77L248.473 404.298L249.436 402.63L250.599 409.589L255.391 412.237L255.391 412.238ZM253.699 405.266C254.376 406.439 255.015 407.177 255.613 407.482C256.212 407.785 256.73 407.559 257.168 406.8C257.335 406.512 257.48 406.176 257.606 405.792C257.731 405.406 257.825 405.082 257.885 404.822L258.613 405.768C258.543 406.25 258.44 406.744 258.303 407.253C258.166 407.761 257.961 408.25 257.689 408.721C257.108 409.728 256.4 410.132 255.564 409.928C254.729 409.723 253.865 408.848 252.972 407.301C252.48 406.45 252.085 405.588 251.785 404.714C251.485 403.842 251.28 403.01 251.171 402.22C251.062 401.43 251.05 400.689 251.135 400C251.22 399.311 251.404 398.724 251.683 398.24C251.932 397.809 252.19 397.477 252.458 397.246C252.724 397.015 252.993 396.859 253.264 396.778L253.569 398.918C253.344 398.895 253.125 398.927 252.911 399.014C252.697 399.1 252.522 399.262 252.386 399.498C252.228 399.772 252.151 400.137 252.157 400.591C252.163 401.044 252.232 401.531 252.364 402.049C252.497 402.567 252.68 403.107 252.914 403.669C253.148 404.231 253.41 404.763 253.7 405.266L253.699 405.266ZM261.446 397.123L261.887 396.36L258.663 386.585C258.419 385.851 258.175 385.154 257.831 384.207L257.877 384.127C258.255 384.862 258.633 385.595 259.013 386.252L264.593 395.918L265.136 394.979L257.17 381.182L256.537 382.279L260.25 393.484C260.394 393.93 260.726 394.82 260.982 395.419L260.948 395.478C260.614 395.016 260.122 394.44 259.854 394.171L253.395 387.721L252.74 388.856L260.705 402.652L261.202 401.791L255.621 392.126C255.219 391.43 254.808 390.755 254.406 390.137L254.44 390.079C254.875 390.597 255.323 391.058 255.848 391.577L261.445 397.124L261.446 397.123ZM267.22 390.288C267.752 389.367 267.624 387.854 267.225 386.459L265.677 383.778L265.066 384.835C264.128 386.459 264.1 387.975 265.08 389.673C265.871 391.043 266.678 391.226 267.22 390.288V390.288ZM268.798 388.635C268.608 388.463 268.34 388.194 267.905 387.557C268.169 388.954 268.096 390.238 267.531 391.217C266.763 392.548 265.63 392.426 264.605 390.651C263.402 388.567 263.445 386.331 264.677 384.197L265.298 383.121L264.596 381.906C263.738 380.419 263.043 380.35 262.421 381.426C261.935 382.268 261.718 383.419 261.836 384.563L261.188 383.949C261.124 383.057 261.32 381.751 261.965 380.635C262.903 379.01 263.946 378.978 265.061 380.908L268.124 386.214C268.514 386.889 269.006 387.544 269.284 387.793L268.798 388.635V388.635ZM271.651 382.613C272.375 381.359 272.003 379.072 270.231 376.003C268.761 373.456 267.485 372.655 266.829 373.791C266.32 374.672 266.426 376.342 266.779 377.815L269.92 383.255C270.603 383.656 271.142 383.493 271.651 382.612L271.651 382.613ZM272.03 383.386C271.601 384.129 271.016 384.409 270.523 384.299L272.651 387.983L272.119 388.904L264.766 376.168L265.23 375.366L266.2 376.889C265.913 375.532 265.83 373.938 266.463 372.843C267.413 371.198 269.092 372.187 270.719 375.005C272.779 378.574 273.092 381.545 272.03 383.385L272.03 383.386ZM272.334 372.439L277.219 374.048L277.808 373.029L272.787 371.306L272.057 363.541L271.538 364.441L272.267 372.323L269.627 367.75L269.096 368.671L274.71 378.395L275.241 377.475L272.333 372.438L272.334 372.439ZM280.195 365.615L280.788 366.055C280.788 366.055 280.994 367.898 280.09 369.464C278.88 371.559 277.246 370.647 275.407 367.463C273.569 364.278 273.189 361.193 274.15 359.529C275.133 357.826 276.78 358.485 278.593 362.252L276.016 366.715C277.576 369.341 278.82 370.082 279.645 368.653C280.401 367.342 280.196 365.615 280.195 365.613L280.195 365.615ZM274.585 360.284C273.986 361.322 274.257 363.475 275.616 365.984L277.685 362.401C276.282 359.658 275.162 359.285 274.585 360.283L274.585 360.284ZM279.896 351.47L279.461 350.717L276.296 356.199L276.73 356.951L278.053 354.66L283.233 363.631L283.764 362.712L278.584 353.741L279.896 351.47V351.47Z" fill="black"/>
</g>
<g clip-path="url(#clip5)">
<path d="M230.642 429.815L230.053 430.835C229.872 431.149 229.733 431.517 229.638 431.941C229.542 432.365 229.51 432.833 229.542 433.345C229.574 433.858 229.678 434.404 229.855 434.988C230.033 435.569 230.3 436.169 230.657 436.788C231.007 437.393 231.347 437.831 231.675 438.1C232.004 438.368 232.319 438.514 232.619 438.536C232.919 438.558 233.194 438.473 233.446 438.281C233.698 438.091 233.922 437.825 234.119 437.484L234.594 436.661L230.641 429.815L230.642 429.815ZM236.248 447.375L235.217 449.16L233.714 440.198C232.925 440.689 232.204 440.769 231.553 440.439C230.903 440.11 230.287 439.443 229.706 438.437C229.259 437.663 228.929 436.869 228.715 436.054C228.501 435.239 228.387 434.438 228.371 433.652C228.355 432.866 228.434 432.119 228.605 431.409C228.777 430.699 229.025 430.063 229.351 429.5L230.801 426.988L239.41 441.899L238.514 443.45L235.32 437.919L234.732 438.938L236.248 447.375Z" fill="#FF0000"/>
<path fill-rule="evenodd" clip-rule="evenodd" d="M249.488 428.312L248.683 429.704L247.556 427.752L245.053 432.088L246.18 434.041L245.375 435.435L243.522 432.224L243.872 431.616C243.719 430.721 243.5 429.851 243.215 429.003C242.93 428.155 242.616 427.346 242.274 426.571C241.933 425.796 241.574 425.064 241.198 424.373C240.823 423.682 240.46 423.034 240.11 422.428L239.619 421.578L242.157 417.182L247.182 425.885L247.635 425.1L249.488 428.31L249.488 428.312ZM252.023 419.123C251.939 419.631 251.82 420.151 251.669 420.686C251.516 421.22 251.296 421.737 251.009 422.233C250.42 423.254 249.707 423.654 248.868 423.43C248.029 423.206 247.17 422.334 246.292 420.813C245.867 420.078 245.496 419.308 245.177 418.508C244.858 417.706 244.621 416.917 244.467 416.139C244.313 415.362 244.257 414.619 244.302 413.911C244.346 413.203 244.526 412.574 244.843 412.025C245.312 411.214 245.921 410.96 246.669 411.263C247.417 411.564 248.243 412.495 249.144 414.055L249.635 414.906L247.199 419.126C247.824 420.209 248.419 420.868 248.984 421.1C249.55 421.333 250.062 421.051 250.523 420.253C250.697 419.952 250.852 419.6 250.989 419.196C251.125 418.79 251.224 418.458 251.285 418.197L252.024 419.123L252.023 419.123ZM245.524 413.323C245.396 413.544 245.327 413.817 245.318 414.142C245.31 414.468 245.351 414.827 245.444 415.222C245.535 415.617 245.67 416.034 245.848 416.473C246.027 416.913 246.234 417.365 246.473 417.83L247.969 415.239L247.846 415.027C247.809 414.962 247.766 414.894 247.717 414.823C247.669 414.752 247.619 414.673 247.566 414.582C247.097 413.874 246.684 413.408 246.329 413.185C245.974 412.963 245.706 413.008 245.524 413.321L245.524 413.323ZM241.976 419.97L246.286 427.436L244.666 430.241C244.571 429.555 244.405 428.836 244.169 428.086C243.932 427.335 243.656 426.582 243.34 425.828C243.025 425.071 242.683 424.335 242.315 423.618C241.947 422.902 241.588 422.241 241.238 421.636L241.126 421.442L241.976 419.97V419.97ZM237.976 424.423L243.727 434.384L242.831 435.935L240.084 431.177L238.747 433.492L241.494 438.25L240.588 439.82L234.837 429.859L235.743 428.289L238.01 432.215L239.347 429.899L237.081 425.974L237.976 424.423L237.976 424.423ZM256.609 412.071L255.6 413.819L251.37 411.319L251.145 411.284L254.104 416.409L253.198 417.979L247.447 408.018L248.353 406.448L250.966 410.974L250.957 410.603L249.691 404.131L250.653 402.464L251.817 409.423L256.608 412.07L256.609 412.071ZM254.917 405.099C255.594 406.272 256.232 407.01 256.831 407.315C257.43 407.619 257.948 407.392 258.386 406.633C258.552 406.345 258.698 406.009 258.824 405.625C258.949 405.239 259.042 404.916 259.103 404.655L259.83 405.601C259.761 406.083 259.657 406.577 259.521 407.086C259.383 407.595 259.179 408.084 258.907 408.555C258.326 409.561 257.617 409.965 256.782 409.761C255.947 409.556 255.082 408.681 254.189 407.134C253.698 406.283 253.302 405.421 253.003 404.547C252.702 403.675 252.497 402.843 252.388 402.053C252.28 401.263 252.268 400.522 252.353 399.833C252.438 399.144 252.621 398.558 252.901 398.073C253.15 397.642 253.408 397.31 253.675 397.079C253.942 396.849 254.211 396.693 254.481 396.611L254.787 398.752C254.561 398.728 254.343 398.76 254.128 398.847C253.915 398.934 253.74 399.095 253.604 399.331C253.445 399.606 253.368 399.97 253.374 400.424C253.38 400.878 253.449 401.364 253.582 401.883C253.715 402.401 253.898 402.94 254.132 403.503C254.366 404.065 254.627 404.597 254.917 405.099L254.917 405.099ZM262.664 396.956L263.105 396.193L259.881 386.419C259.637 385.684 259.393 384.987 259.048 384.04L259.094 383.961C259.473 384.695 259.851 385.429 260.23 386.086L265.811 395.751L266.353 394.812L258.388 381.015L257.755 382.112L261.468 393.317C261.611 393.763 261.944 394.653 262.2 395.252L262.166 395.311C261.831 394.85 261.34 394.273 261.072 394.004L254.613 387.554L253.957 388.69L261.922 402.486L262.419 401.625L256.839 391.959C256.437 391.263 256.025 390.588 255.624 389.971L255.658 389.912C256.093 390.43 256.54 390.891 257.066 391.41L262.663 396.957L262.664 396.956ZM268.438 390.121C268.969 389.201 268.842 387.687 268.442 386.293L266.894 383.611L266.284 384.668C265.346 386.293 265.317 387.809 266.297 389.506C267.088 390.876 267.896 391.06 268.438 390.121V390.121ZM270.016 388.468C269.826 388.296 269.558 388.027 269.123 387.391C269.386 388.787 269.313 390.072 268.748 391.05C267.98 392.381 266.847 392.259 265.822 390.484C264.619 388.4 264.662 386.164 265.894 384.03L266.516 382.954L265.814 381.739C264.956 380.253 264.261 380.183 263.639 381.26C263.153 382.102 262.935 383.252 263.054 384.397L262.406 383.783C262.342 382.89 262.538 381.585 263.182 380.469C264.12 378.844 265.164 378.812 266.278 380.741L269.342 386.047C269.731 386.722 270.224 387.377 270.502 387.626L270.016 388.468V388.468ZM272.869 382.446C273.593 381.193 273.22 378.905 271.449 375.837C269.978 373.289 268.702 372.488 268.047 373.624C267.538 374.505 267.643 376.176 267.996 377.648L271.137 383.088C271.821 383.489 272.359 383.326 272.868 382.445L272.869 382.446ZM273.247 383.219C272.818 383.962 272.233 384.242 271.741 384.132L273.868 387.817L273.337 388.737L265.984 376.002L266.447 375.199L267.417 376.722C267.131 375.365 267.048 373.772 267.681 372.676C268.63 371.031 270.309 372.021 271.936 374.838C273.996 378.407 274.31 381.378 273.247 383.218L273.247 383.219ZM273.552 372.273L278.437 373.881L279.025 372.862L274.005 371.139L273.275 363.375L272.755 364.275L273.485 372.157L270.845 367.584L270.313 368.504L275.928 378.229L276.459 377.309L273.551 372.271L273.552 372.273ZM281.413 365.448L282.006 365.888C282.006 365.888 282.212 367.731 281.307 369.297C280.098 371.393 278.463 370.48 276.625 367.296C274.786 364.111 274.407 361.026 275.367 359.362C276.351 357.659 277.998 358.318 279.811 362.085L277.234 366.548C278.794 369.174 280.037 369.915 280.862 368.486C281.619 367.176 281.413 365.448 281.413 365.446L281.413 365.448ZM275.802 360.117C275.203 361.155 275.474 363.308 276.834 365.818L278.902 362.235C277.499 359.491 276.379 359.118 275.803 360.116L275.802 360.117ZM281.113 351.303L280.678 350.55L277.513 356.032L277.948 356.784L279.271 354.493L284.45 363.464L284.981 362.545L279.802 353.574L281.113 351.303V351.303Z" fill="black"/>
</g>
<path d="M256.115 523.406L252.699 525.378L180.971 401.142L182.051 399.068L184.387 399.169L256.115 523.406Z" fill="#D2B905"/>
<path d="M37.6704 397.531L37.4864 401.158L180.971 401.142L182.051 399.068L181.961 398.913L181.065 397.36L37.6704 397.531Z" fill="#F7DB00"/>
<path d="M184.387 399.169L182.051 399.068L181.065 397.36L252.821 273.107L256.143 274.916L184.387 399.169Z" fill="#D8BE05"/>
<defs>
<filter id="filter0_f" x="58.668" y="400.04" width="279.4" height="189.024" filterUnits="userSpaceOnUse" color-interpolation-filters="sRGB">
<feFlood flood-opacity="0" result="BackgroundImageFix"/>
<feBlend mode="normal" in="SourceGraphic" in2="BackgroundImageFix" result="shape"/>
<feGaussianBlur stdDeviation="23.2469" result="effect1_foregroundBlur"/>
</filter>
<filter id="filter1_f" x="58.2969" y="413.565" width="279.4" height="189.024" filterUnits="userSpaceOnUse" color-interpolation-filters="sRGB">
<feFlood flood-opacity="0" result="BackgroundImageFix"/>
<feBlend mode="normal" in="SourceGraphic" in2="BackgroundImageFix" result="shape"/>
<feGaussianBlur stdDeviation="23.2469" result="effect1_foregroundBlur"/>
</filter>
<filter id="filter2_f" x="105.276" y="432.297" width="186.078" height="124.416" filterUnits="userSpaceOnUse" color-interpolation-filters="sRGB">
<feFlood flood-opacity="0" result="BackgroundImageFix"/>
<feBlend mode="normal" in="SourceGraphic" in2="BackgroundImageFix" result="shape"/>
<feGaussianBlur stdDeviation="14.7231" result="effect1_foregroundBlur"/>
</filter>
<filter id="filter3_f" x="86.856" y="324.418" width="117.098" height="21.6791" filterUnits="userSpaceOnUse" color-interpolation-filters="sRGB">
<feFlood flood-opacity="0" result="BackgroundImageFix"/>
<feBlend mode="normal" in="SourceGraphic" in2="BackgroundImageFix" result="shape"/>
<feGaussianBlur stdDeviation="0.896601" result="effect1_foregroundBlur"/>
</filter>
<filter id="filter4_f" x="86.762" y="452.437" width="117.098" height="21.6791" filterUnits="userSpaceOnUse" color-interpolation-filters="sRGB">
<feFlood flood-opacity="0" result="BackgroundImageFix"/>
<feBlend mode="normal" in="SourceGraphic" in2="BackgroundImageFix" result="shape"/>
<feGaussianBlur stdDeviation="0.896601" result="effect1_foregroundBlur"/>
</filter>
<filter id="filter5_f" x="223.269" y="343.32" width="65.9237" height="111.295" filterUnits="userSpaceOnUse" color-interpolation-filters="sRGB">
<feFlood flood-opacity="0" result="BackgroundImageFix"/>
<feBlend mode="normal" in="SourceGraphic" in2="BackgroundImageFix" result="shape"/>
<feGaussianBlur stdDeviation="0.986262" result="effect1_foregroundBlur"/>
</filter>
<clipPath id="clip0">
<rect width="103.066" height="20.8917" fill="white" transform="matrix(1 0 -0.5 0.866025 99.095 326.211)"/>
</clipPath>
<clipPath id="clip1">
<rect width="103.066" height="20.8917" fill="white" transform="matrix(1 0 -0.5 0.866025 98.3628 324.805)"/>
</clipPath>
<clipPath id="clip2">
<rect width="103.066" height="20.8917" fill="white" transform="matrix(1 0 0.5 0.866025 88.5552 454.23)"/>
</clipPath>
<clipPath id="clip3">
<rect width="103.066" height="20.8917" fill="white" transform="matrix(1 0 0.5 0.866025 87.7275 455.183)"/>
</clipPath>
<clipPath id="clip4">
<rect width="103.066" height="20.8917" fill="white" transform="matrix(0.5 -0.866025 0.5 0.866025 225.242 434.55)"/>
</clipPath>
<clipPath id="clip5">
<rect width="103.066" height="20.8917" fill="white" transform="matrix(0.5 -0.866025 0.5 0.866025 226.459 434.383)"/>
</clipPath>
</defs>
</svg>
