<svg width="520" height="590" viewBox="0 0 520 590" fill="none" xmlns="http://www.w3.org/2000/svg">
<g opacity="0.1" filter="url(#filter0_f)">
<path d="M125.923 254.533L65.9541 219.882L127.03 184.136L186.236 217.596L125.923 254.533Z" fill="black"/>
</g>
<g opacity="0.3" filter="url(#filter1_f)">
<path d="M125.684 264.448L65.7146 229.797L126.79 194.05L185.997 227.511L125.684 264.448Z" fill="#024EBA"/>
</g>
<g opacity="0.2" filter="url(#filter2_f)">
<path d="M125.944 243.316L85.028 219.674L126.699 195.285L167.094 218.114L125.944 243.316Z" fill="black"/>
</g>
<path d="M158.017 58.9542L160.366 59.6215L218.505 119.503L136.272 140.174L77.1833 79.361L158.017 58.9542Z" fill="url(#paint0_linear)"/>
<g clip-path="url(#clip0)" filter="url(#filter3_f)">
<path fill-rule="evenodd" clip-rule="evenodd" d="M139.511 83.4841C138.807 82.6034 137.738 81.8062 136.45 81.2021C135.162 80.5979 133.72 80.2165 132.32 80.1102C130.921 80.0039 129.633 80.178 128.635 80.6085C127.636 81.0391 126.976 81.7049 126.744 82.5144C126.512 83.324 126.72 84.2377 127.34 85.1297C127.96 86.0218 128.961 86.8486 130.205 87.4963C131.45 88.1441 132.876 88.5811 134.29 88.7473C135.703 88.9135 137.033 88.8006 138.097 88.4243C139.281 88.007 140.067 87.2878 140.325 86.388C140.583 85.4882 140.295 84.4627 139.511 83.4841ZM130.867 85.4954C130.34 85.059 130.002 84.5657 129.899 84.0846C129.796 83.6035 129.934 83.159 130.293 82.8134C130.652 82.4679 131.215 82.2387 131.902 82.1581C132.589 82.0775 133.366 82.1496 134.123 82.3641C134.881 82.5786 135.58 82.9249 136.124 83.3542C136.668 83.7835 137.029 84.2743 137.156 84.7576C137.283 85.2409 137.17 85.6924 136.832 86.0486C136.494 86.4048 135.949 86.6479 135.273 86.7436C134.562 86.8445 133.745 86.7769 132.949 86.5512C132.152 86.3256 131.42 85.9545 130.867 85.4954ZM145.013 89.4361C144.873 89.2927 144.692 89.1621 144.483 89.0537C144.273 88.9454 144.041 88.862 143.803 88.8097C143.564 88.7574 143.326 88.7375 143.105 88.7514C142.884 88.7653 142.686 88.8127 142.525 88.8901C141.999 89.1357 141.991 89.6664 142.441 90.1293L145.048 92.8157L133.52 90.5177C133.434 90.5006 133.35 90.4983 133.277 90.5108C133.203 90.5233 133.143 90.5503 133.103 90.5886C133.063 90.627 133.045 90.6752 133.051 90.7279C133.056 90.7806 133.085 90.8356 133.135 90.8869L139.499 97.4445C139.948 97.9071 140.78 98.2266 141.483 98.1626C141.701 98.1444 141.896 98.093 142.051 98.012C142.207 97.931 142.321 97.8224 142.384 97.6942C142.447 97.566 142.458 97.4214 142.416 97.2709C142.375 97.1204 142.281 96.9678 142.142 96.8241L138.966 93.551L150.485 95.8473C150.571 95.8645 150.656 95.8669 150.73 95.8542C150.804 95.8416 150.865 95.8144 150.905 95.7756C150.946 95.7369 150.964 95.6882 150.958 95.635C150.952 95.5818 150.923 95.5262 150.873 95.4744L145.013 89.4361ZM170.414 115.647C170.134 115.448 169.779 115.297 169.408 115.22C169.037 115.143 168.672 115.144 168.375 115.224L164.034 116.318L164.576 109.698C164.58 109.647 164.56 109.591 164.517 109.537C164.474 109.483 164.411 109.434 164.335 109.394C164.259 109.355 164.172 109.328 164.086 109.315C163.999 109.303 163.916 109.305 163.846 109.323L154.883 111.582C154.578 111.654 154.355 111.801 154.25 111.998C154.145 112.195 154.164 112.43 154.305 112.665C154.4 112.816 154.543 112.962 154.724 113.091C154.905 113.221 155.119 113.33 155.351 113.412C155.582 113.493 155.825 113.545 156.061 113.563C156.297 113.581 156.521 113.565 156.716 113.515L161.094 112.412L160.552 119.031C160.548 119.083 160.568 119.139 160.611 119.193C160.654 119.247 160.717 119.296 160.793 119.335C160.869 119.375 160.955 119.402 161.042 119.415C161.128 119.427 161.212 119.424 161.282 119.406L170.278 117.14C170.473 117.091 170.634 117.01 170.749 116.903C170.865 116.797 170.931 116.667 170.944 116.524C170.958 116.381 170.917 116.228 170.825 116.076C170.733 115.924 170.593 115.778 170.414 115.647ZM154.924 102.672C157.062 104.875 157.088 106.917 155.681 107.272C154.275 107.626 151.105 106.376 148.967 104.173C146.828 101.97 146.803 99.9272 148.209 99.5728C149.616 99.2184 152.786 100.468 154.924 102.672ZM157.531 102.015C154.436 98.8257 149.426 96.8707 146.341 97.648C143.256 98.4254 143.264 101.641 146.359 104.83C149.454 108.019 154.464 109.974 157.549 109.196C160.634 108.419 160.626 105.204 157.531 102.015Z" fill="#0C274F"/>
</g>
<g clip-path="url(#clip1)">
<path fill-rule="evenodd" clip-rule="evenodd" d="M139.891 82.1642C139.187 81.2836 138.118 80.4864 136.83 79.8822C135.542 79.2781 134.1 78.8967 132.7 78.7904C131.301 78.6841 130.013 78.8582 129.015 79.2887C128.016 79.7192 127.356 80.385 127.124 81.1946C126.892 82.0042 127.101 82.9178 127.72 83.8099C128.34 84.702 129.341 85.5288 130.585 86.1765C131.83 86.8243 133.257 87.2613 134.67 87.4275C136.083 87.5936 137.413 87.4808 138.477 87.1045C139.661 86.6871 140.448 85.968 140.705 85.0682C140.963 84.1684 140.675 83.1428 139.891 82.1642ZM131.247 84.1756C130.72 83.7392 130.382 83.2458 130.279 82.7648C130.176 82.2837 130.314 81.8392 130.673 81.4936C131.033 81.1481 131.595 80.9189 132.282 80.8383C132.969 80.7577 133.746 80.8297 134.503 81.0443C135.261 81.2588 135.961 81.6051 136.505 82.0344C137.049 82.4637 137.409 82.9545 137.536 83.4378C137.663 83.9211 137.55 84.3725 137.212 84.7288C136.874 85.085 136.329 85.3281 135.653 85.4238C134.942 85.5247 134.125 85.457 133.329 85.2314C132.532 85.0057 131.801 84.6347 131.247 84.1756ZM145.393 88.1163C145.253 87.9729 145.072 87.8423 144.863 87.7339C144.653 87.6255 144.421 87.5422 144.183 87.4899C143.945 87.4376 143.706 87.4177 143.485 87.4316C143.264 87.4455 143.066 87.4929 142.905 87.5703C142.379 87.8159 142.372 88.3466 142.821 88.8095L145.428 91.4959L133.9 89.1978C133.815 89.1808 133.731 89.1784 133.657 89.191C133.583 89.2035 133.523 89.2305 133.483 89.2688C133.443 89.3071 133.425 89.3553 133.431 89.408C133.436 89.4607 133.466 89.5158 133.515 89.5671L139.879 96.1247C140.328 96.5873 141.161 96.9068 141.863 96.8427C142.082 96.8246 142.276 96.7732 142.432 96.6922C142.587 96.6111 142.701 96.5026 142.764 96.3744C142.827 96.2462 142.838 96.1016 142.797 95.9511C142.755 95.8006 142.661 95.648 142.522 95.5043L139.346 92.2312L150.865 94.5275C150.951 94.5447 151.036 94.5471 151.11 94.5344C151.184 94.5218 151.245 94.4945 151.285 94.4558C151.326 94.4171 151.344 94.3684 151.338 94.3152C151.333 94.2619 151.303 94.2063 151.253 94.1546L145.393 88.1163ZM170.794 114.328C170.514 114.128 170.159 113.977 169.788 113.9C169.417 113.823 169.053 113.825 168.755 113.904L164.414 114.998L164.956 108.379C164.96 108.327 164.94 108.271 164.897 108.217C164.855 108.163 164.791 108.114 164.715 108.075C164.639 108.035 164.553 108.008 164.466 107.995C164.379 107.983 164.296 107.986 164.226 108.003L155.263 110.262C154.958 110.334 154.735 110.481 154.63 110.678C154.525 110.875 154.544 111.11 154.685 111.345C154.78 111.496 154.924 111.642 155.105 111.772C155.285 111.901 155.5 112.01 155.731 112.092C155.962 112.174 156.205 112.225 156.441 112.243C156.678 112.261 156.901 112.245 157.096 112.196L161.475 111.092L160.932 117.712C160.928 117.763 160.949 117.82 160.991 117.873C161.034 117.927 161.097 117.976 161.173 118.016C161.249 118.055 161.336 118.082 161.422 118.095C161.509 118.107 161.592 118.105 161.662 118.087L170.658 115.82C170.853 115.771 171.014 115.69 171.129 115.584C171.245 115.477 171.312 115.347 171.325 115.204C171.338 115.061 171.297 114.908 171.205 114.756C171.113 114.604 170.973 114.458 170.794 114.328ZM155.304 101.352C157.442 103.555 157.468 105.597 156.061 105.952C154.655 106.306 151.485 105.056 149.347 102.853C147.208 100.65 147.183 98.6074 148.589 98.253C149.996 97.8986 153.166 99.1486 155.304 101.352ZM157.911 100.695C154.816 97.5058 149.806 95.5509 146.721 96.3282C143.636 97.1055 143.645 100.321 146.74 103.51C149.835 106.699 154.844 108.654 157.929 107.876C161.014 107.099 161.006 103.884 157.911 100.695Z" fill="#FBFBFB"/>
</g>
<path d="M77.183 79.361L75.5667 80.7779L134.626 141.693L135.952 141.298L135.981 141.195L136.271 140.174L77.183 79.361Z" fill="url(#paint1_linear)"/>
<path d="M75.5667 80.7778L134.626 141.693L111.451 223.28L53.5898 163.588L52.8853 160.629L75.5667 80.7778Z" fill="#378AFF"/>
<path d="M75.5667 80.7778L134.626 141.693L111.451 223.28L53.5898 163.588L52.8853 160.629L75.5667 80.7778Z" fill="url(#paint2_linear)"/>
<g clip-path="url(#clip2)" filter="url(#filter4_f)">
<path fill-rule="evenodd" clip-rule="evenodd" d="M81.0822 131.895C80.2911 130.924 79.3923 130.303 78.5094 130.116C77.6265 129.929 76.8027 130.185 76.1514 130.85C75.5 131.514 75.0531 132.554 74.8719 133.827C74.6907 135.1 74.7843 136.542 75.1397 137.957C75.4951 139.372 76.0949 140.689 76.8567 141.727C77.6184 142.765 78.5048 143.474 79.3938 143.756C80.2829 144.037 81.131 143.878 81.8217 143.3C82.5124 142.722 83.0116 141.753 83.2509 140.527C83.5178 139.165 83.4478 137.563 83.0528 135.99C82.6578 134.418 81.9618 132.972 81.0822 131.895ZM78.5529 140.207C78.0857 139.832 77.6662 139.255 77.3533 138.557C77.0403 137.86 76.8497 137.077 76.8081 136.318C76.7665 135.56 76.8762 134.864 77.1216 134.328C77.367 133.792 77.7358 133.444 78.1763 133.332C78.6167 133.22 79.1066 133.35 79.5771 133.704C80.0477 134.057 80.4751 134.617 80.7994 135.303C81.1238 135.99 81.3287 136.77 81.3854 137.532C81.442 138.295 81.3476 139.002 81.1154 139.555C80.8713 140.137 80.488 140.516 80.0247 140.634C79.5614 140.752 79.0441 140.602 78.5529 140.207ZM86.7424 138.01C86.603 137.867 86.4532 137.769 86.304 137.722C86.1548 137.676 86.0099 137.683 85.8798 137.742C85.7498 137.801 85.6378 137.911 85.5522 138.065C85.4665 138.218 85.4092 138.411 85.3846 138.628C85.2996 139.329 85.5937 140.17 86.043 140.633L88.6501 143.319L82.4877 146.55C82.4421 146.574 82.4052 146.62 82.3811 146.683C82.3571 146.747 82.3467 146.825 82.3513 146.909C82.3559 146.994 82.3752 147.08 82.4071 147.16C82.4389 147.24 82.4821 147.31 82.5317 147.361L88.896 153.919C89.345 154.381 89.876 154.39 90.1372 153.871C90.2194 153.713 90.2727 153.516 90.2933 153.296C90.3138 153.075 90.3011 152.837 90.256 152.597C90.2109 152.357 90.1345 152.123 90.0325 151.91C89.9305 151.698 89.8054 151.513 89.6663 151.369L86.4897 148.096L92.6474 144.867C92.6934 144.843 92.7306 144.797 92.755 144.733C92.7793 144.668 92.7897 144.589 92.785 144.504C92.7804 144.419 92.7609 144.332 92.7287 144.251C92.6965 144.171 92.6528 144.1 92.6027 144.048L86.7424 138.01ZM112.165 164.244C111.935 164.096 111.7 164.069 111.5 164.168C111.3 164.267 111.147 164.486 111.066 164.789L109.842 169.095L106.364 158.333C106.337 158.249 106.297 158.173 106.249 158.113C106.201 158.054 106.146 158.013 106.092 157.997C106.038 157.98 105.986 157.988 105.943 158.02C105.899 158.052 105.865 158.106 105.846 158.176L103.32 167.067C103.232 167.362 103.219 167.727 103.285 168.1C103.351 168.473 103.491 168.832 103.682 169.118C103.807 169.301 103.95 169.446 104.098 169.542C104.247 169.638 104.399 169.684 104.543 169.675C104.686 169.666 104.818 169.603 104.928 169.491C105.038 169.379 105.123 169.22 105.178 169.026L106.412 164.683L109.89 175.445C109.917 175.529 109.957 175.605 110.005 175.665C110.054 175.724 110.108 175.764 110.162 175.781C110.216 175.797 110.268 175.789 110.312 175.758C110.355 175.726 110.389 175.672 110.409 175.602L112.943 166.678C112.999 166.485 113.021 166.262 113.011 166.025C113 165.789 112.955 165.544 112.881 165.311C112.806 165.077 112.703 164.86 112.579 164.675C112.455 164.491 112.314 164.343 112.165 164.244ZM98.3469 152.99C100.485 155.194 101.64 158.4 101.243 159.795C100.847 161.19 98.8065 161.103 96.6682 158.9C94.53 156.697 93.3754 153.491 93.7716 152.096C94.1679 150.701 96.2086 150.787 98.3469 152.99ZM99.0815 150.404C95.9865 147.215 92.7729 147.111 91.9036 150.171C91.0344 153.231 92.8386 158.297 95.9336 161.486C99.0286 164.675 102.242 164.78 103.111 161.719C103.981 158.659 102.176 153.593 99.0815 150.404Z" fill="#12315C"/>
</g>
<g clip-path="url(#clip3)">
<path fill-rule="evenodd" clip-rule="evenodd" d="M80.0128 131.823C79.2218 130.853 78.323 130.232 77.4401 130.045C76.5571 129.858 75.7334 130.114 75.082 130.779C74.4307 131.443 73.9837 132.483 73.8026 133.756C73.6214 135.029 73.715 136.471 74.0704 137.886C74.4258 139.301 75.0256 140.618 75.7873 141.656C76.5491 142.694 77.4354 143.403 78.3245 143.685C79.2136 143.966 80.0617 143.807 80.7524 143.229C81.443 142.651 81.9423 141.682 82.1816 140.456C82.4484 139.094 82.3785 137.492 81.9835 135.919C81.5885 134.347 80.8925 132.901 80.0128 131.823ZM77.4835 140.136C77.0164 139.761 76.5969 139.184 76.2839 138.486C75.971 137.789 75.7803 137.006 75.7388 136.247C75.6972 135.489 75.8068 134.792 76.0522 134.257C76.2977 133.721 76.6665 133.373 77.1069 133.261C77.5474 133.149 78.0373 133.279 78.5078 133.633C78.9783 133.986 79.4058 134.546 79.7301 135.232C80.0544 135.919 80.2594 136.699 80.316 137.461C80.3727 138.224 80.2783 138.931 80.0461 139.484C79.802 140.066 79.4186 140.445 78.9554 140.563C78.4921 140.681 77.9748 140.531 77.4835 140.136ZM85.6731 137.939C85.5337 137.796 85.3839 137.698 85.2347 137.651C85.0855 137.605 84.9406 137.612 84.8105 137.671C84.6804 137.73 84.5685 137.84 84.4828 137.994C84.3971 138.147 84.3399 138.34 84.3152 138.557C84.2302 139.258 84.5244 140.099 84.9736 140.562L87.5808 143.248L81.4183 146.479C81.3728 146.503 81.3359 146.549 81.3118 146.612C81.2877 146.676 81.2774 146.754 81.282 146.838C81.2865 146.923 81.3058 147.009 81.3377 147.089C81.3696 147.169 81.4128 147.239 81.4624 147.29L87.8267 153.848C88.2757 154.31 88.8066 154.319 89.0679 153.8C89.1501 153.642 89.2034 153.445 89.2239 153.225C89.2445 153.004 89.2317 152.766 89.1866 152.526C89.1415 152.286 89.0652 152.052 88.9632 151.839C88.8612 151.627 88.7361 151.442 88.597 151.298L85.4204 148.025L91.5781 144.796C91.6241 144.772 91.6613 144.726 91.6856 144.662C91.7099 144.597 91.7204 144.518 91.7157 144.433C91.7111 144.348 91.6915 144.261 91.6593 144.18C91.6271 144.099 91.5835 144.029 91.5334 143.977L85.6731 137.939ZM111.096 164.173C110.866 164.025 110.631 163.998 110.431 164.097C110.231 164.196 110.078 164.415 109.996 164.717L108.773 169.024L105.295 158.262C105.268 158.178 105.228 158.102 105.18 158.042C105.131 157.983 105.077 157.942 105.023 157.926C104.969 157.909 104.917 157.917 104.873 157.949C104.83 157.981 104.796 158.035 104.776 158.105L102.251 166.996C102.162 167.291 102.15 167.656 102.216 168.029C102.282 168.402 102.422 168.761 102.613 169.047C102.738 169.23 102.88 169.375 103.029 169.471C103.178 169.567 103.33 169.613 103.473 169.604C103.617 169.595 103.749 169.532 103.859 169.42C103.969 169.308 104.054 169.149 104.109 168.955L105.343 164.612L108.821 175.374C108.848 175.458 108.888 175.534 108.936 175.594C108.984 175.653 109.038 175.693 109.093 175.71C109.147 175.726 109.199 175.718 109.242 175.687C109.286 175.655 109.32 175.601 109.339 175.531L111.874 166.607C111.929 166.414 111.952 166.191 111.941 165.954C111.93 165.718 111.886 165.473 111.811 165.24C111.737 165.006 111.634 164.789 111.51 164.604C111.386 164.42 111.245 164.272 111.096 164.173ZM97.2775 152.919C99.4158 155.123 100.57 158.328 100.174 159.724C99.7779 161.119 97.7372 161.032 95.5989 158.829C93.4607 156.626 92.306 153.42 92.7023 152.025C93.0986 150.63 95.1393 150.716 97.2775 152.919ZM98.0122 150.333C94.9172 147.144 91.7035 147.04 90.8343 150.1C89.965 153.16 91.7693 158.226 94.8643 161.415C97.9593 164.604 101.173 164.709 102.042 161.648C102.911 158.588 101.107 153.522 98.0122 150.333Z" fill="white"/>
</g>
<path d="M136.872 142.331L219.106 121.66L196.396 201.613L194.27 203.657L113.698 223.918L136.872 142.331Z" fill="#024EBA"/>
<path d="M136.872 142.331L219.106 121.66L196.396 201.613L194.27 203.657L113.698 223.918L136.872 142.331Z" fill="url(#paint3_linear)"/>
<g clip-path="url(#clip4)" filter="url(#filter5_f)">
<path fill-rule="evenodd" clip-rule="evenodd" d="M148.469 172.041C147.355 172.21 146.129 172.738 144.962 173.551C143.795 174.364 142.744 175.423 141.952 176.581C141.16 177.74 140.667 178.942 140.541 180.022C140.414 181.102 140.661 182.007 141.246 182.613C141.831 183.218 142.727 183.495 143.809 183.404C144.892 183.313 146.108 182.86 147.291 182.106C148.474 181.352 149.566 180.335 150.417 179.194C151.267 178.054 151.834 176.845 152.04 175.736C152.271 174.502 152.042 173.461 151.391 172.788C150.741 172.115 149.709 171.851 148.469 172.041ZM145.889 180.533C145.248 180.771 144.651 180.817 144.183 180.666C143.715 180.514 143.399 180.172 143.279 179.688C143.16 179.204 143.243 178.603 143.516 177.967C143.79 177.332 144.241 176.695 144.805 176.147C145.37 175.598 146.02 175.165 146.663 174.909C147.307 174.652 147.913 174.585 148.395 174.717C148.877 174.849 149.211 175.173 149.351 175.643C149.49 176.114 149.428 176.708 149.173 177.341C148.905 178.007 148.438 178.68 147.844 179.257C147.251 179.834 146.563 180.283 145.889 180.533ZM156.375 170.252C156.181 170.301 155.977 170.393 155.778 170.52C155.58 170.647 155.392 170.807 155.227 170.987C155.063 171.167 154.926 171.364 154.828 171.562C154.729 171.76 154.671 171.956 154.658 172.134C154.608 172.712 155.064 172.984 155.689 172.826L159.319 171.912L151.565 180.746C151.507 180.811 151.463 180.883 151.437 180.953C151.412 181.023 151.405 181.089 151.418 181.142C151.431 181.196 151.464 181.236 151.512 181.257C151.561 181.279 151.623 181.281 151.692 181.264L160.553 179.031C161.178 178.874 161.871 178.313 162.167 177.672C162.261 177.474 162.313 177.28 162.321 177.105C162.329 176.929 162.292 176.776 162.212 176.658C162.133 176.539 162.013 176.457 161.862 176.418C161.71 176.379 161.531 176.384 161.338 176.432L156.915 177.547L164.663 168.719C164.721 168.653 164.765 168.581 164.792 168.51C164.818 168.439 164.824 168.373 164.811 168.319C164.798 168.265 164.765 168.224 164.716 168.203C164.667 168.181 164.604 168.179 164.534 168.196L156.375 170.252ZM191.775 161.36C191.462 161.503 191.154 161.735 190.902 162.017C190.65 162.3 190.469 162.616 190.388 162.914L189.165 167.22L183.704 163.441C183.661 163.412 183.602 163.401 183.534 163.411C183.467 163.421 183.392 163.451 183.32 163.498C183.248 163.544 183.181 163.605 183.127 163.674C183.073 163.743 183.034 163.816 183.014 163.886L180.488 172.777C180.399 173.077 180.414 173.344 180.532 173.534C180.65 173.723 180.864 173.824 181.138 173.819C181.316 173.812 181.514 173.761 181.717 173.669C181.919 173.577 182.121 173.447 182.307 173.287C182.494 173.127 182.66 172.943 182.793 172.747C182.927 172.552 183.025 172.35 183.08 172.157L184.313 167.813L189.775 171.592C189.818 171.622 189.876 171.632 189.944 171.622C190.012 171.612 190.086 171.582 190.158 171.536C190.23 171.489 190.297 171.428 190.351 171.36C190.406 171.291 190.445 171.218 190.464 171.148L192.999 162.224C193.054 162.03 193.065 161.851 193.03 161.697C192.996 161.544 192.917 161.421 192.799 161.339C192.682 161.256 192.529 161.214 192.352 161.218C192.174 161.222 191.977 161.27 191.775 161.36ZM172.793 168.287C175.77 167.536 177.551 168.536 177.155 169.931C176.759 171.326 174.091 173.446 171.114 174.196C168.137 174.947 166.355 173.947 166.752 172.552C167.148 171.157 169.815 169.037 172.793 168.287ZM173.527 165.7C169.218 166.786 165.02 170.147 164.151 173.208C163.281 176.268 166.07 177.869 170.379 176.783C174.689 175.697 178.886 172.336 179.756 169.275C180.625 166.215 177.836 164.614 173.527 165.7Z" fill="#0A1D37"/>
</g>
<g clip-path="url(#clip5)">
<path fill-rule="evenodd" clip-rule="evenodd" d="M149.407 172.672C148.292 172.842 147.067 173.369 145.9 174.182C144.733 174.995 143.681 176.054 142.889 177.213C142.098 178.372 141.605 179.574 141.478 180.654C141.352 181.734 141.598 182.639 142.183 183.244C142.769 183.85 143.664 184.126 144.747 184.035C145.829 183.945 147.045 183.491 148.229 182.737C149.412 181.984 150.504 180.967 151.354 179.826C152.204 178.685 152.772 177.477 152.978 176.367C153.208 175.133 152.979 174.092 152.329 173.419C151.678 172.746 150.646 172.482 149.407 172.672ZM146.826 181.164C146.185 181.402 145.589 181.449 145.121 181.297C144.653 181.146 144.337 180.804 144.217 180.32C144.097 179.836 144.18 179.234 144.454 178.599C144.728 177.964 145.178 177.327 145.743 176.778C146.307 176.23 146.957 175.797 147.601 175.54C148.245 175.284 148.85 175.217 149.332 175.349C149.814 175.48 150.148 175.804 150.288 176.275C150.428 176.745 150.366 177.339 150.111 177.972C149.843 178.638 149.376 179.312 148.782 179.889C148.188 180.466 147.501 180.914 146.826 181.164ZM157.312 170.884C157.118 170.933 156.914 171.025 156.716 171.152C156.517 171.279 156.329 171.438 156.165 171.618C156 171.799 155.864 171.995 155.765 172.193C155.667 172.392 155.609 172.587 155.596 172.765C155.545 173.344 156.001 173.615 156.627 173.458L160.257 172.543L152.502 181.378C152.445 181.443 152.401 181.515 152.375 181.585C152.349 181.655 152.342 181.72 152.356 181.774C152.369 181.828 152.401 181.868 152.45 181.889C152.498 181.911 152.561 181.913 152.63 181.896L161.491 179.663C162.116 179.505 162.809 178.944 163.105 178.304C163.198 178.106 163.251 177.912 163.258 177.736C163.266 177.561 163.229 177.408 163.15 177.289C163.07 177.171 162.95 177.089 162.799 177.05C162.648 177.011 162.469 177.015 162.275 177.064L157.852 178.178L165.601 169.35C165.658 169.285 165.703 169.212 165.729 169.142C165.755 169.071 165.762 169.005 165.749 168.95C165.735 168.896 165.702 168.856 165.653 168.834C165.604 168.813 165.541 168.81 165.472 168.828L157.312 170.884ZM192.712 161.991C192.399 162.134 192.091 162.366 191.839 162.649C191.587 162.932 191.406 163.248 191.326 163.546L190.103 167.852L184.641 164.073C184.599 164.043 184.54 164.033 184.472 164.043C184.404 164.053 184.33 164.083 184.258 164.129C184.186 164.176 184.119 164.237 184.065 164.305C184.01 164.374 183.971 164.448 183.952 164.517L181.426 173.409C181.336 173.709 181.352 173.976 181.47 174.165C181.588 174.355 181.801 174.455 182.075 174.45C182.254 174.444 182.452 174.393 182.654 174.301C182.857 174.209 183.058 174.078 183.245 173.919C183.431 173.759 183.597 173.575 183.731 173.379C183.865 173.183 183.962 172.981 184.017 172.788L185.251 168.445L190.712 172.224C190.755 172.253 190.814 172.264 190.882 172.254C190.95 172.244 191.024 172.214 191.096 172.167C191.168 172.121 191.235 172.06 191.289 171.991C191.343 171.923 191.382 171.849 191.402 171.779L193.937 162.855C193.992 162.662 194.002 162.482 193.968 162.329C193.933 162.176 193.854 162.053 193.737 161.97C193.619 161.887 193.466 161.846 193.289 161.85C193.112 161.853 192.915 161.902 192.712 161.991ZM173.73 168.918C176.707 168.168 178.489 169.167 178.092 170.562C177.696 171.958 175.029 174.078 172.051 174.828C169.074 175.578 167.293 174.579 167.689 173.184C168.085 171.789 170.753 169.668 173.73 168.918ZM174.465 166.332C170.155 167.418 165.957 170.779 165.088 173.839C164.219 176.899 167.007 178.5 171.317 177.414C175.626 176.328 179.824 172.967 180.693 169.907C181.562 166.847 178.774 165.246 174.465 166.332Z" fill="#DFDFDF"/>
</g>
<path d="M136.872 142.331L135.952 141.297L136.271 140.174L218.505 119.503L219.106 121.66L136.872 142.331Z" fill="#0958C9"/>
<path d="M113.698 223.918L111.452 223.28L134.626 141.693L135.952 141.298L136.873 142.331L113.698 223.918Z" fill="#0D61DA"/>
<defs>
<filter id="filter0_f" x="31.4556" y="142.996" width="189.065" height="152.462" filterUnits="userSpaceOnUse" color-interpolation-filters="sRGB">
<feFlood flood-opacity="0" result="BackgroundImageFix"/>
<feBlend mode="normal" in="SourceGraphic" in2="BackgroundImageFix" result="shape"/>
<feGaussianBlur stdDeviation="15" result="effect1_foregroundBlur"/>
</filter>
<filter id="filter1_f" x="31.2161" y="152.911" width="189.065" height="152.462" filterUnits="userSpaceOnUse" color-interpolation-filters="sRGB">
<feFlood flood-opacity="0" result="BackgroundImageFix"/>
<feBlend mode="normal" in="SourceGraphic" in2="BackgroundImageFix" result="shape"/>
<feGaussianBlur stdDeviation="15" result="effect1_foregroundBlur"/>
</filter>
<filter id="filter2_f" x="62.9587" y="168.685" width="126.059" height="101.085" filterUnits="userSpaceOnUse" color-interpolation-filters="sRGB">
<feFlood flood-opacity="0" result="BackgroundImageFix"/>
<feBlend mode="normal" in="SourceGraphic" in2="BackgroundImageFix" result="shape"/>
<feGaussianBlur stdDeviation="9.5" result="effect1_foregroundBlur"/>
</filter>
<filter id="filter3_f" x="122.783" y="77.7625" width="50.2171" height="42.9699" filterUnits="userSpaceOnUse" color-interpolation-filters="sRGB">
<feFlood flood-opacity="0" result="BackgroundImageFix"/>
<feBlend mode="normal" in="SourceGraphic" in2="BackgroundImageFix" result="shape"/>
<feGaussianBlur stdDeviation="0.583828" result="effect1_foregroundBlur"/>
</filter>
<filter id="filter4_f" x="72.3616" y="126.151" width="42.1883" height="51.2426" filterUnits="userSpaceOnUse" color-interpolation-filters="sRGB">
<feFlood flood-opacity="0" result="BackgroundImageFix"/>
<feBlend mode="normal" in="SourceGraphic" in2="BackgroundImageFix" result="shape"/>
<feGaussianBlur stdDeviation="0.583828" result="effect1_foregroundBlur"/>
</filter>
<filter id="filter5_f" x="138.017" y="159.513" width="56.5879" height="26.3017" filterUnits="userSpaceOnUse" color-interpolation-filters="sRGB">
<feFlood flood-opacity="0" result="BackgroundImageFix"/>
<feBlend mode="normal" in="SourceGraphic" in2="BackgroundImageFix" result="shape"/>
<feGaussianBlur stdDeviation="0.583828" result="effect1_foregroundBlur"/>
</filter>
<linearGradient id="paint0_linear" x1="91.1808" y1="73.1213" x2="210.506" y2="123.135" gradientUnits="userSpaceOnUse">
<stop stop-color="#1A78FF"/>
<stop offset="1" stop-color="#036BFF"/>
</linearGradient>
<linearGradient id="paint1_linear" x1="78.1092" y1="84.2588" x2="135.489" y2="138.849" gradientUnits="userSpaceOnUse">
<stop stop-color="#65A4FD"/>
<stop offset="1" stop-color="#227DFF"/>
</linearGradient>
<linearGradient id="paint2_linear" x1="-23.0838" y1="79.3432" x2="111.652" y2="131.477" gradientUnits="userSpaceOnUse">
<stop stop-color="white"/>
<stop offset="1" stop-color="white" stop-opacity="0"/>
</linearGradient>
<linearGradient id="paint3_linear" x1="238.117" y1="291.993" x2="171.614" y2="172.897" gradientUnits="userSpaceOnUse">
<stop/>
<stop offset="1" stop-opacity="0"/>
</linearGradient>
<clipPath id="clip0">
<rect width="52.7001" height="11.5281" fill="white" transform="matrix(0.696452 0.717604 -0.969689 0.244343 135.129 78.9302)"/>
</clipPath>
<clipPath id="clip1">
<rect width="52.7001" height="11.5281" fill="white" transform="matrix(0.696452 0.717604 -0.969689 0.244343 135.51 77.6104)"/>
</clipPath>
<clipPath id="clip2">
<rect width="52.7001" height="11.5281" fill="white" transform="matrix(0.696452 0.717604 -0.273237 0.961947 76.6792 127.319)"/>
</clipPath>
<clipPath id="clip3">
<rect width="52.7001" height="11.5281" fill="white" transform="matrix(0.696452 0.717604 -0.273237 0.961947 75.6091 127.247)"/>
</clipPath>
<clipPath id="clip4">
<rect width="52.7001" height="11.5281" fill="white" transform="matrix(0.969689 -0.244343 -0.273237 0.961947 142.335 173.558)"/>
</clipPath>
<clipPath id="clip5">
<rect width="52.7001" height="11.5281" fill="white" transform="matrix(0.969689 -0.244343 -0.273237 0.961947 143.272 174.19)"/>
</clipPath>
</defs>
</svg>
