<svg width="20" height="20" viewBox="0 0 20 20" fill="none" xmlns="http://www.w3.org/2000/svg">
<g clip-path="url(#clip0)">
<path d="M10.6833 8.01524C4.64826 11.1252 8.66243 19.4694 16.1916 17.2911C16.8933 17.5636 17.5183 18.0052 18.1983 18.3336C18.0224 17.7419 17.8349 17.1569 17.6349 16.5744C19.9683 14.9119 20.4799 12.5594 19.6174 10.6261C18.2708 7.5619 13.9708 6.3069 10.6833 8.01524ZM12.7916 11.0636C12.6174 11.6094 11.8283 11.7727 11.4458 11.3577C11.0241 10.9736 11.1883 10.1711 11.7416 9.9994C12.3533 9.74107 13.0599 10.4502 12.7916 11.0636ZM16.7749 11.1419H16.7866C16.5724 11.6311 15.8358 11.7461 15.4741 11.3669C15.2999 11.2069 15.2491 10.9661 15.1874 10.7561C15.2741 10.3727 15.5374 9.97524 15.9624 9.9569C16.5499 9.87524 17.0758 10.6036 16.7749 11.1419Z" fill="#7F47F4"/>
<path d="M14.5116 6.87335C14.1483 5.08668 12.8983 3.57752 11.3249 2.70668H11.3474V2.70585C5.76408 -0.449149 -1.18758 3.95168 0.155752 9.14168C0.516585 10.6817 1.58159 11.9725 2.87408 12.8342C2.62408 13.545 2.38659 14.2559 2.16159 14.9717C2.97409 14.545 3.78659 14.0992 4.59992 13.6659C5.57492 13.98 6.61242 14.1334 7.64992 14.0992C6.36825 10.4225 9.65575 6.52752 14.5116 6.87335ZM9.44742 4.73918C10.1016 4.47585 10.8749 5.02668 10.8233 5.73085L10.8249 5.74085C10.8316 6.54502 9.76242 7.04668 9.16242 6.50168C8.53992 6.05335 8.71659 4.96418 9.44742 4.73918ZM5.77659 5.94502C5.63325 6.64335 4.70075 6.98085 4.15492 6.51168C3.52242 6.06418 3.69992 4.95502 4.44242 4.72918C5.16992 4.44752 5.99658 5.18918 5.77659 5.94502Z" fill="#7F47F4"/>
</g>
<defs>
<clipPath id="clip0">
<rect width="20" height="20" fill="white"/>
</clipPath>
</defs>
</svg>
