<svg width="24" height="25" viewBox="0 0 24 25" fill="none" xmlns="http://www.w3.org/2000/svg">
<path fill-rule="evenodd" clip-rule="evenodd" d="M15.6365 9.31063C15.988 9.6621 15.988 10.232 15.6365 10.5834L9.63649 16.5834C9.28502 16.9349 8.71517 16.9349 8.3637 16.5834C8.01223 16.232 8.01223 15.6621 8.3637 15.3106L14.3637 9.31063C14.7152 8.95916 15.285 8.95916 15.6365 9.31063Z" fill="white"/>
<path d="M9.5 10.947C9.77614 10.947 10 10.7232 10 10.447C10 10.1709 9.77614 9.94702 9.5 9.94702C9.22386 9.94702 9 10.1709 9 10.447C9 10.7232 9.22386 10.947 9.5 10.947Z" fill="white"/>
<path fill-rule="evenodd" clip-rule="evenodd" d="M9.5001 10.847C9.72101 10.847 9.9001 10.6679 9.9001 10.447C9.9001 10.2261 9.72101 10.047 9.5001 10.047C9.27918 10.047 9.1001 10.2261 9.1001 10.447C9.1001 10.6679 9.27918 10.847 9.5001 10.847ZM8.1001 10.447C8.1001 9.67383 8.7269 9.04703 9.5001 9.04703C10.2733 9.04703 10.9001 9.67383 10.9001 10.447C10.9001 11.2202 10.2733 11.847 9.5001 11.847C8.7269 11.847 8.1001 11.2202 8.1001 10.447Z" fill="white"/>
<path d="M14.5 15.947C14.7761 15.947 15 15.7232 15 15.447C15 15.1709 14.7761 14.947 14.5 14.947C14.2239 14.947 14 15.1709 14 15.447C14 15.7232 14.2239 15.947 14.5 15.947Z" fill="white"/>
<path fill-rule="evenodd" clip-rule="evenodd" d="M14.5001 15.847C14.721 15.847 14.9001 15.6679 14.9001 15.447C14.9001 15.2261 14.721 15.047 14.5001 15.047C14.2792 15.047 14.1001 15.2261 14.1001 15.447C14.1001 15.6679 14.2792 15.847 14.5001 15.847ZM13.1001 15.447C13.1001 14.6738 13.7269 14.047 14.5001 14.047C15.2733 14.047 15.9001 14.6738 15.9001 15.447C15.9001 16.2202 15.2733 16.847 14.5001 16.847C13.7269 16.847 13.1001 16.2202 13.1001 15.447Z" fill="white"/>
<path fill-rule="evenodd" clip-rule="evenodd" d="M12.0001 4.84703C7.52659 4.84703 3.9001 8.47352 3.9001 12.947C3.9001 17.4205 7.52659 21.047 12.0001 21.047C16.4736 21.047 20.1001 17.4205 20.1001 12.947C20.1001 8.47352 16.4736 4.84703 12.0001 4.84703ZM2.1001 12.947C2.1001 7.47941 6.53248 3.04703 12.0001 3.04703C17.4677 3.04703 21.9001 7.47941 21.9001 12.947C21.9001 18.4146 17.4677 22.847 12.0001 22.847C6.53248 22.847 2.1001 18.4146 2.1001 12.947Z" fill="white"/>
</svg>
