<svg width="16" height="16" viewBox="0 0 16 16" fill="none" xmlns="http://www.w3.org/2000/svg">
<path fill-rule="evenodd" clip-rule="evenodd" d="M7.99992 1.33325C11.6818 1.33325 14.6666 4.31802 14.6666 7.99992C14.6666 11.6818 11.6818 14.6666 7.99992 14.6666C4.31802 14.6666 1.33325 11.6818 1.33325 7.99992C1.33325 4.31802 4.31802 1.33325 7.99992 1.33325ZM7.33325 10.6666H8.66659V11.9999H7.33325V10.6666ZM7.99992 3.99992C8.36811 3.99992 8.66659 4.2984 8.66659 4.66658V8.66658C8.66659 9.03477 8.36811 9.33325 7.99992 9.33325C7.63173 9.33325 7.33325 9.03477 7.33325 8.66658V4.66658C7.33325 4.2984 7.63173 3.99992 7.99992 3.99992Z" fill="#FF0000"/>
</svg>
