<svg width="24" height="25" viewBox="0 0 24 25" fill="none" xmlns="http://www.w3.org/2000/svg">
<path fill-rule="evenodd" clip-rule="evenodd" d="M11.2392 4.12194C11.9957 3.97145 12.7799 4.04869 13.4925 4.34387C14.2051 4.63905 14.8142 5.13892 15.2428 5.78027C15.6713 6.42163 15.9 7.17565 15.9 7.947C15.9 8.44405 15.4971 8.847 15 8.847C14.503 8.847 14.1 8.44405 14.1 7.947C14.1 7.53166 13.9769 7.12564 13.7461 6.7803C13.5154 6.43496 13.1874 6.1658 12.8037 6.00685C12.4199 5.84791 11.9977 5.80632 11.5903 5.88735C11.183 5.96838 10.8088 6.16838 10.5151 6.46207C10.2214 6.75576 10.0214 7.12995 9.94037 7.53731C9.85934 7.94467 9.90093 8.36691 10.0599 8.75063C10.2188 9.13436 10.488 9.46233 10.8333 9.69308C11.1787 9.92384 11.5847 10.047 12 10.047C12.4971 10.047 12.9 10.4499 12.9 10.947V12.4529L21.1069 17.6755C21.107 17.6756 21.1071 17.6756 21.1072 17.6757C21.4213 17.8755 21.6621 18.1717 21.7934 18.52C21.9248 18.8684 21.9396 19.2501 21.8356 19.6076C21.7315 19.9651 21.5143 20.2792 21.2164 20.5027C20.9186 20.7262 20.5564 20.847 20.184 20.847M11.1 12.4529V11.7417C10.6506 11.6351 10.2213 11.449 9.8333 11.1897C9.19194 10.7612 8.69207 10.1521 8.39689 9.43946C8.10171 8.72683 8.02447 7.94267 8.17496 7.18615C8.32544 6.42962 8.69688 5.73471 9.2423 5.18928C9.78773 4.64386 10.4826 4.27242 11.2392 4.12194M11.1 12.4529L2.89317 17.6755C2.89306 17.6756 2.89295 17.6756 2.89283 17.6757C2.57876 17.8755 2.33797 18.1717 2.20661 18.52C2.0752 18.8684 2.06041 19.2501 2.16445 19.6076C2.2685 19.9651 2.48576 20.2792 2.78359 20.5027C3.0814 20.7262 3.44369 20.847 3.81602 20.847C3.81605 20.847 3.81607 20.847 3.8161 20.847H20.1839M12 14.0138L4.09067 19.047H19.9094L12 14.0138ZM20.1412 19.1945C20.1411 19.1944 20.1409 19.1944 20.1408 19.1943Z" fill="white"/>
</svg>
