<svg width="24" height="24" viewBox="0 0 24 24" fill="none" xmlns="http://www.w3.org/2000/svg">
<path d="M14.9999 7C14.9999 6.40666 14.824 5.82664 14.4943 5.33329C14.1647 4.83994 13.6962 4.45543 13.148 4.22836C12.5998 4.0013 11.9966 3.94189 11.4147 4.05765C10.8327 4.1734 10.2982 4.45912 9.8786 4.87868C9.45904 5.29824 9.17332 5.83279 9.05757 6.41473C8.94181 6.99667 9.00122 7.59987 9.22828 8.14805C9.45535 8.69623 9.83986 9.16477 10.3332 9.49441C10.8266 9.82405 11.4066 10 11.9999 10V12M11.9999 12L3.37592 17.488C3.22611 17.5832 3.11125 17.7245 3.04861 17.8906C2.98596 18.0567 2.97891 18.2387 3.02851 18.4091C3.07811 18.5796 3.18169 18.7293 3.32368 18.8359C3.46567 18.9424 3.6384 19 3.81592 19H20.1839C20.3614 19 20.5342 18.9424 20.6762 18.8359C20.8182 18.7293 20.9217 18.5796 20.9713 18.4091C21.0209 18.2387 21.0139 18.0567 20.9512 17.8906C20.8886 17.7245 20.7737 17.5832 20.6239 17.488L11.9999 12Z" stroke="black" stroke-width="1.8" stroke-linecap="round" stroke-linejoin="round"/>
</svg>
