<svg width="25" height="25" viewBox="0 0 25 25" fill="none" xmlns="http://www.w3.org/2000/svg">
<path fill-rule="evenodd" clip-rule="evenodd" d="M7.55698 4.0972C6.94947 4.0972 6.45698 4.58969 6.45698 5.19721V19.1972C6.45698 19.8047 6.94947 20.2972 7.55698 20.2972H17.557C18.1645 20.2972 18.657 19.8047 18.657 19.1972V5.19721C18.657 4.58969 18.1645 4.0972 17.557 4.0972H7.55698ZM4.65698 5.19721C4.65698 3.59558 5.95536 2.2972 7.55698 2.2972H17.557C19.1586 2.2972 20.457 3.59558 20.457 5.19721V19.1972C20.457 20.7988 19.1586 22.0972 17.557 22.0972H7.55698C5.95536 22.0972 4.65698 20.7988 4.65698 19.1972V5.19721Z" fill="white"/>
<path fill-rule="evenodd" clip-rule="evenodd" d="M8.65698 7.1972C8.65698 6.70015 9.05993 6.2972 9.55698 6.2972H15.557C16.054 6.2972 16.457 6.70015 16.457 7.1972C16.457 7.69426 16.054 8.0972 15.557 8.0972H9.55698C9.05993 8.0972 8.65698 7.69426 8.65698 7.1972Z" fill="white"/>
<path fill-rule="evenodd" clip-rule="evenodd" d="M8.65698 11.1972C8.65698 10.7001 9.05993 10.2972 9.55698 10.2972H15.557C16.054 10.2972 16.457 10.7001 16.457 11.1972C16.457 11.6943 16.054 12.0972 15.557 12.0972H9.55698C9.05993 12.0972 8.65698 11.6943 8.65698 11.1972Z" fill="white"/>
<path fill-rule="evenodd" clip-rule="evenodd" d="M8.65698 15.1972C8.65698 14.7001 9.05993 14.2972 9.55698 14.2972H13.557C14.054 14.2972 14.457 14.7001 14.457 15.1972C14.457 15.6943 14.054 16.0972 13.557 16.0972H9.55698C9.05993 16.0972 8.65698 15.6943 8.65698 15.1972Z" fill="white"/>
</svg>
