<svg width="24" height="24" viewBox="0 0 24 24" fill="none" xmlns="http://www.w3.org/2000/svg">
<path fill-rule="evenodd" clip-rule="evenodd" d="M10.0001 3.89998C6.63116 3.89998 3.9001 6.63104 3.9001 9.99998C3.9001 13.3689 6.63116 16.1 10.0001 16.1C13.369 16.1 16.1001 13.3689 16.1001 9.99998C16.1001 6.63104 13.369 3.89998 10.0001 3.89998ZM2.1001 9.99998C2.1001 5.63693 5.63705 2.09998 10.0001 2.09998C14.3631 2.09998 17.9001 5.63693 17.9001 9.99998C17.9001 14.363 14.3631 17.9 10.0001 17.9C5.63705 17.9 2.1001 14.363 2.1001 9.99998Z" fill="black"/>
<path fill-rule="evenodd" clip-rule="evenodd" d="M14.3637 14.3636C14.7152 14.0121 15.285 14.0121 15.6365 14.3636L21.6365 20.3636C21.988 20.7151 21.988 21.2849 21.6365 21.6364C21.285 21.9878 20.7152 21.9878 20.3637 21.6364L14.3637 15.6364C14.0122 15.2849 14.0122 14.7151 14.3637 14.3636Z" fill="black"/>
</svg>
