<svg width="482" height="562" viewBox="0 0 482 562" fill="none" xmlns="http://www.w3.org/2000/svg">
<g filter="url(#filter0_ddd)">
<rect x="394.551" y="459.495" width="104.051" height="104.051" rx="14.2825" transform="rotate(-15 394.551 459.495)" fill="#AA9910"/>
</g>
<rect x="394" y="452.93" width="104.051" height="104.051" rx="14.2825" transform="rotate(-15 394 452.93)" fill="#9D2F93"/>
<rect x="394" y="452.93" width="104.051" height="104.051" rx="14.2825" transform="rotate(-15 394 452.93)" fill="#FFE725"/>
<g filter="url(#filter1_ddd)">
<rect x="341.483" y="172.859" width="127.349" height="60.6086" rx="14.2825" transform="rotate(-20.1227 341.483 172.859)" fill="#AA9910"/>
</g>
<rect x="338" y="166.812" width="127.349" height="60.6086" rx="14.2825" transform="rotate(-20.1227 338 166.812)" fill="#9D2F93"/>
<rect x="338" y="166.812" width="127.349" height="60.6086" rx="14.2825" transform="rotate(-20.1227 338 166.812)" fill="#FFE725"/>
<g filter="url(#filter2_ddd)">
<circle cx="309.671" cy="394.235" r="38.3382" transform="rotate(-20.1227 309.671 394.235)" fill="#AA9910"/>
</g>
<circle cx="306.188" cy="388.188" r="38.3382" transform="rotate(-20.1227 306.188 388.188)" fill="#9D2F93"/>
<circle cx="306.188" cy="388.188" r="38.3382" transform="rotate(-20.1227 306.188 388.188)" fill="#FFE725"/>
<g filter="url(#filter3_ddd)">
<circle cx="266.389" cy="119.16" r="26.4871" transform="rotate(-20.1227 266.389 119.16)" fill="#AA9910"/>
</g>
<circle cx="263.983" cy="114.983" r="26.4871" transform="rotate(-20.1227 263.983 114.983)" fill="#9D2F93"/>
<circle cx="263.983" cy="114.983" r="26.4871" transform="rotate(-20.1227 263.983 114.983)" fill="#FFE725"/>
<g filter="url(#filter4_ddd)">
<path d="M166.851 448.676C169.032 446.065 172.44 444.816 175.791 445.4L231.996 455.186C235.348 455.77 238.133 458.097 239.303 461.291L258.931 514.86C260.101 518.054 259.479 521.63 257.297 524.24L220.719 568.022C218.538 570.633 215.13 571.881 211.779 571.298L155.574 561.511C152.222 560.928 149.437 558.601 148.267 555.407L128.639 501.838C127.469 498.644 128.092 495.068 130.273 492.458L166.851 448.676Z" fill="#AA9910"/>
</g>
<path d="M163.367 442.629C165.548 440.018 168.957 438.769 172.308 439.353L228.513 449.139C231.865 449.723 234.65 452.05 235.82 455.244L255.448 508.813C256.618 512.007 255.995 515.583 253.814 518.193L217.236 561.975C215.055 564.586 211.647 565.834 208.296 565.251L152.091 555.464C148.739 554.881 145.954 552.554 144.783 549.36L125.156 495.791C123.986 492.597 124.608 489.021 126.789 486.411L163.367 442.629Z" fill="#9D2F93"/>
<path d="M163.367 442.629C165.548 440.018 168.957 438.769 172.308 439.353L228.513 449.139C231.865 449.723 234.65 452.05 235.82 455.244L255.448 508.813C256.618 512.007 255.995 515.583 253.814 518.193L217.236 561.975C215.055 564.586 211.647 565.834 208.296 565.251L152.091 555.464C148.739 554.881 145.954 552.554 144.783 549.36L125.156 495.791C123.986 492.597 124.608 489.021 126.789 486.411L163.367 442.629Z" fill="#FFE725"/>
<g filter="url(#filter5_ddd)">
<path d="M94.3697 13.095C96.5819 8.32426 102.243 6.25019 107.013 8.46238L177.039 40.9335C181.81 43.1457 183.884 48.8065 181.672 53.5772L149.2 123.603C146.988 128.374 141.327 130.448 136.557 128.235L66.5311 95.7643C61.7604 93.5521 59.6863 87.8913 61.8985 83.1206L94.3697 13.095Z" fill="#AA9910"/>
</g>
<path d="M90.8865 7.04798C93.0987 2.27727 98.7595 0.203193 103.53 2.41538L173.556 34.8865C178.327 37.0987 180.401 42.7595 178.188 47.5302L145.717 117.556C143.505 122.327 137.844 124.401 133.074 122.188L63.048 89.7173C58.2773 87.5051 56.2032 81.8443 58.4154 77.0736L90.8865 7.04798Z" fill="#9D2F93"/>
<path d="M90.8865 7.04798C93.0987 2.27727 98.7595 0.203193 103.53 2.41538L173.556 34.8865C178.327 37.0987 180.401 42.7595 178.188 47.5302L145.717 117.556C143.505 122.327 137.844 124.401 133.074 122.188L63.048 89.7173C58.2773 87.5051 56.2032 81.8443 58.4154 77.0736L90.8865 7.04798Z" fill="#FFE725"/>
<g filter="url(#filter6_ddd)">
<path d="M332.473 -47.8724C334.331 -49.5825 336.793 -50.4843 339.316 -50.3796L383.47 -48.5465C385.993 -48.4417 388.371 -47.339 390.081 -45.4808L420.006 -12.9631C421.716 -11.1049 422.618 -8.64349 422.513 -6.12036L420.68 38.0335C420.576 40.5566 419.473 42.9348 417.615 44.6449L385.097 74.5702C383.239 76.2802 380.777 77.1821 378.254 77.0773L334.1 75.2442C331.577 75.1395 329.199 74.0367 327.489 72.1785L297.564 39.6608C295.854 37.8026 294.952 35.3413 295.057 32.8181L296.89 -11.3358C296.994 -13.8589 298.097 -16.237 299.955 -17.9471L332.473 -47.8724Z" fill="#AA9910"/>
</g>
<path d="M328.99 -53.9194C330.848 -55.6295 333.31 -56.5313 335.833 -56.4266L379.987 -54.5935C382.51 -54.4887 384.888 -53.3859 386.598 -51.5278L416.523 -19.0101C418.233 -17.1519 419.135 -14.6905 419.03 -12.1674L417.197 31.9865C417.092 34.5096 415.99 36.8878 414.132 38.5979L381.614 68.5232C379.756 70.2332 377.294 71.1351 374.771 71.0303L330.617 69.1972C328.094 69.0925 325.716 67.9897 324.006 66.1315L294.081 33.6138C292.371 31.7556 291.469 29.2943 291.573 26.7711L293.407 -17.3827C293.511 -19.9059 294.614 -22.284 296.472 -23.9941L328.99 -53.9194Z" fill="#9D2F93"/>
<path d="M328.99 -53.9194C330.848 -55.6295 333.31 -56.5313 335.833 -56.4266L379.987 -54.5935C382.51 -54.4887 384.888 -53.3859 386.598 -51.5278L416.523 -19.0101C418.233 -17.1519 419.135 -14.6905 419.03 -12.1674L417.197 31.9865C417.092 34.5096 415.99 36.8878 414.132 38.5979L381.614 68.5232C379.756 70.2332 377.294 71.1351 374.771 71.0303L330.617 69.1972C328.094 69.0925 325.716 67.9897 324.006 66.1315L294.081 33.6138C292.371 31.7556 291.469 29.2943 291.573 26.7711L293.407 -17.3827C293.511 -19.9059 294.614 -22.284 296.472 -23.9941L328.99 -53.9194Z" fill="#FFE725"/>
<g filter="url(#filter7_ddd)">
<path d="M439.356 348.115C444.981 352.814 453.584 349.662 454.841 342.441L466.673 274.486C467.931 267.265 460.899 261.391 454.017 263.912L389.25 287.643C382.368 290.164 380.796 299.191 386.421 303.89L439.356 348.115Z" fill="#AA9910"/>
</g>
<path d="M437.122 338.227C442.747 342.926 451.35 339.774 452.608 332.553L464.44 264.598C465.697 257.377 458.666 251.502 451.784 254.024L387.017 277.755C380.134 280.276 378.563 289.303 384.188 294.002L437.122 338.227Z" fill="#9D2F93"/>
<path d="M437.122 338.227C442.747 342.926 451.35 339.774 452.608 332.553L464.44 264.598C465.697 257.377 458.666 251.502 451.784 254.024L387.017 277.755C380.134 280.276 378.563 289.303 384.188 294.002L437.122 338.227Z" fill="#FFE725"/>
<g filter="url(#filter8_ddd)">
<g clip-path="url(#clip0)">
<path d="M200.294 211.94C161.535 211.94 130 243.475 130 282.234C130 320.994 161.535 352.528 200.294 352.528C239.053 352.528 270.588 320.994 270.588 282.234C270.588 243.475 239.053 211.94 200.294 211.94ZM255.846 305.429C248.936 321.92 234.887 334.706 217.582 339.903C217.893 339.327 218.193 338.744 218.484 338.156C219.97 335.147 221.533 333.026 224.154 330.91C226.161 329.29 230.1 326.78 229.456 323.615C228.992 321.328 226.381 320.39 224.407 319.831C221.277 318.944 217.928 318.714 214.697 318.491C211.9 318.295 208.994 318.395 206.263 317.698C202.176 316.658 201.254 313.119 200.996 309.39C200.765 306.074 200.814 302.665 199.184 299.665C197.084 295.803 192.252 294.705 188.245 294.337C184.862 294.027 181.484 294.19 178.12 293.626C174.883 293.084 171.817 291.948 168.494 292.076C164.186 292.242 162.252 295.162 160.414 298.539C159.507 300.206 153.778 313.029 150.412 315.904C144.608 307.336 140.957 297.198 140.23 286.272C140.706 286.144 141.177 285.967 141.656 285.728C143.529 284.799 144.841 283.12 146.879 282.455C148.822 281.822 151.332 282.384 153.317 282.578C155.293 282.771 157.299 282.976 159.276 282.707C163.223 282.168 165.314 279.442 165.944 275.636C166.319 273.363 166.026 271.077 166.094 268.788C166.201 265.221 168.542 263.941 171.767 263.638C177.859 263.066 192.071 264.68 192.359 255.304C192.481 251.293 187.708 249.224 184.599 248.153C178.545 246.07 171.93 246.798 165.739 245.351C162.445 244.581 159.668 242.527 157.338 240.099C168.273 228.957 183.488 222.031 200.294 222.031C203.888 222.031 207.407 222.348 210.828 222.956C209.079 223.281 207.352 223.742 205.672 224.421C196.81 227.994 196.543 238.049 200.417 245.602C202.819 250.287 206.71 254.211 210.774 257.475C214.708 260.633 219.007 262.499 223.369 264.895C229.156 268.077 228.457 276.387 229.921 281.987C231.156 286.709 234.122 290.692 238.796 292.327C241.622 293.315 244.941 292.544 247.415 294.513C249.54 296.199 250.039 299.65 251.254 301.97C252.464 304.285 254.074 305.259 255.846 305.429Z" fill="#AA9910"/>
</g>
<g clip-path="url(#clip1)">
<path d="M192.323 249.278V255.275L190.864 251.871L192.323 249.278Z" fill="#AA9910"/>
<path d="M198.077 230.282V236.311L199.779 233.879L198.077 230.282Z" fill="#AA9910"/>
<path d="M229.522 318.328V324.325L225.146 320.597L229.522 318.328Z" fill="#AA9910"/>
<path d="M130 276.509V282.83L131.54 281.047L130 276.509Z" fill="#AA9910"/>
<path d="M200.294 206C161.535 206 130 237.535 130 276.294C130 315.053 161.535 346.588 200.294 346.588C239.053 346.588 270.588 315.053 270.588 276.294C270.588 237.535 239.053 206 200.294 206ZM255.846 299.489C248.936 315.98 234.887 328.766 217.582 333.962C217.893 333.386 218.193 332.804 218.484 332.215C219.97 329.207 221.533 327.085 224.154 324.97C226.161 323.349 230.1 320.84 229.456 317.675C228.992 315.388 226.381 314.45 224.407 313.891C221.277 313.004 217.928 312.774 214.697 312.55C211.9 312.355 208.994 312.454 206.263 311.758C202.176 310.717 201.254 307.179 200.996 303.449C200.765 300.134 200.814 296.725 199.184 293.725C197.084 289.863 192.252 288.765 188.245 288.396C184.862 288.087 181.484 288.25 178.12 287.686C174.883 287.144 171.817 286.007 168.494 286.136C164.186 286.302 162.252 289.222 160.414 292.598C159.507 294.266 153.778 307.089 150.412 309.964C144.608 301.396 140.957 291.258 140.23 280.332C140.706 280.204 141.177 280.026 141.656 279.788C143.529 278.858 144.841 277.18 146.879 276.515C148.822 275.882 151.332 276.443 153.317 276.638C155.293 276.831 157.299 277.036 159.276 276.767C163.223 276.228 165.314 273.501 165.944 269.696C166.319 267.423 166.026 265.136 166.094 262.848C166.201 259.281 168.542 258.001 171.767 257.698C177.859 257.126 192.071 258.74 192.359 249.364C192.481 245.353 187.708 243.283 184.599 242.213C178.545 240.13 171.93 240.857 165.739 239.411C162.445 238.641 159.668 236.587 157.338 234.159C168.273 223.017 183.488 216.091 200.294 216.091C203.888 216.091 207.407 216.408 210.828 217.016C209.079 217.341 207.352 217.802 205.672 218.481C196.81 222.054 196.543 232.108 200.417 239.662C202.819 244.346 206.71 248.271 210.774 251.535C214.708 254.693 219.007 256.559 223.369 258.955C229.156 262.137 228.457 270.447 229.921 276.046C231.156 280.769 234.122 284.752 238.796 286.387C241.622 287.374 244.941 286.604 247.415 288.572C249.54 290.259 250.039 293.71 251.254 296.03C252.464 298.344 254.074 299.319 255.846 299.489Z" fill="#FFE725"/>
</g>
</g>
<defs>
<filter id="filter0_ddd" x="355.027" y="432.565" width="206.484" height="216.365" filterUnits="userSpaceOnUse" color-interpolation-filters="sRGB">
<feFlood flood-opacity="0" result="BackgroundImageFix"/>
<feColorMatrix in="SourceAlpha" type="matrix" values="0 0 0 0 0 0 0 0 0 0 0 0 0 0 0 0 0 0 127 0"/>
<feOffset dy="6.18624"/>
<feGaussianBlur stdDeviation="2.4745"/>
<feColorMatrix type="matrix" values="0 0 0 0 0 0 0 0 0 0 0 0 0 0 0 0 0 0 0.3 0"/>
<feBlend mode="normal" in2="BackgroundImageFix" result="effect1_dropShadow"/>
<feColorMatrix in="SourceAlpha" type="matrix" values="0 0 0 0 0 0 0 0 0 0 0 0 0 0 0 0 0 0 127 0"/>
<feOffset dy="20.6401"/>
<feGaussianBlur stdDeviation="8.25605"/>
<feColorMatrix type="matrix" values="0 0 0 0 0 0 0 0 0 0 0 0 0 0 0 0 0 0 0.15 0"/>
<feBlend mode="normal" in2="effect1_dropShadow" result="effect2_dropShadow"/>
<feColorMatrix in="SourceAlpha" type="matrix" values="0 0 0 0 0 0 0 0 0 0 0 0 0 0 0 0 0 0 127 0"/>
<feOffset dy="49.4047"/>
<feGaussianBlur stdDeviation="19.7619"/>
<feColorMatrix type="matrix" values="0 0 0 0 0 0 0 0 0 0 0 0 0 0 0 0 0 0 0.15 0"/>
<feBlend mode="normal" in2="effect2_dropShadow" result="effect3_dropShadow"/>
<feBlend mode="normal" in="SourceGraphic" in2="effect3_dropShadow" result="shape"/>
</filter>
<filter id="filter1_ddd" x="301.959" y="129.047" width="219.474" height="189.65" filterUnits="userSpaceOnUse" color-interpolation-filters="sRGB">
<feFlood flood-opacity="0" result="BackgroundImageFix"/>
<feColorMatrix in="SourceAlpha" type="matrix" values="0 0 0 0 0 0 0 0 0 0 0 0 0 0 0 0 0 0 127 0"/>
<feOffset dy="6.18624"/>
<feGaussianBlur stdDeviation="2.4745"/>
<feColorMatrix type="matrix" values="0 0 0 0 0 0 0 0 0 0 0 0 0 0 0 0 0 0 0.3 0"/>
<feBlend mode="normal" in2="BackgroundImageFix" result="effect1_dropShadow"/>
<feColorMatrix in="SourceAlpha" type="matrix" values="0 0 0 0 0 0 0 0 0 0 0 0 0 0 0 0 0 0 127 0"/>
<feOffset dy="20.6401"/>
<feGaussianBlur stdDeviation="8.25605"/>
<feColorMatrix type="matrix" values="0 0 0 0 0 0 0 0 0 0 0 0 0 0 0 0 0 0 0.15 0"/>
<feBlend mode="normal" in2="effect1_dropShadow" result="effect2_dropShadow"/>
<feColorMatrix in="SourceAlpha" type="matrix" values="0 0 0 0 0 0 0 0 0 0 0 0 0 0 0 0 0 0 127 0"/>
<feOffset dy="49.4047"/>
<feGaussianBlur stdDeviation="19.7619"/>
<feColorMatrix type="matrix" values="0 0 0 0 0 0 0 0 0 0 0 0 0 0 0 0 0 0 0.15 0"/>
<feBlend mode="normal" in2="effect2_dropShadow" result="effect3_dropShadow"/>
<feBlend mode="normal" in="SourceGraphic" in2="effect3_dropShadow" result="shape"/>
</filter>
<filter id="filter2_ddd" x="220.959" y="345.047" width="177.423" height="187.304" filterUnits="userSpaceOnUse" color-interpolation-filters="sRGB">
<feFlood flood-opacity="0" result="BackgroundImageFix"/>
<feColorMatrix in="SourceAlpha" type="matrix" values="0 0 0 0 0 0 0 0 0 0 0 0 0 0 0 0 0 0 127 0"/>
<feOffset dy="6.18624"/>
<feGaussianBlur stdDeviation="2.4745"/>
<feColorMatrix type="matrix" values="0 0 0 0 0 0 0 0 0 0 0 0 0 0 0 0 0 0 0.3 0"/>
<feBlend mode="normal" in2="BackgroundImageFix" result="effect1_dropShadow"/>
<feColorMatrix in="SourceAlpha" type="matrix" values="0 0 0 0 0 0 0 0 0 0 0 0 0 0 0 0 0 0 127 0"/>
<feOffset dy="20.6401"/>
<feGaussianBlur stdDeviation="8.25605"/>
<feColorMatrix type="matrix" values="0 0 0 0 0 0 0 0 0 0 0 0 0 0 0 0 0 0 0.15 0"/>
<feBlend mode="normal" in2="effect1_dropShadow" result="effect2_dropShadow"/>
<feColorMatrix in="SourceAlpha" type="matrix" values="0 0 0 0 0 0 0 0 0 0 0 0 0 0 0 0 0 0 127 0"/>
<feOffset dy="49.4047"/>
<feGaussianBlur stdDeviation="19.7619"/>
<feColorMatrix type="matrix" values="0 0 0 0 0 0 0 0 0 0 0 0 0 0 0 0 0 0 0.15 0"/>
<feBlend mode="normal" in2="effect2_dropShadow" result="effect3_dropShadow"/>
<feBlend mode="normal" in="SourceGraphic" in2="effect3_dropShadow" result="shape"/>
</filter>
<filter id="filter3_ddd" x="192.883" y="85.1778" width="147.013" height="156.894" filterUnits="userSpaceOnUse" color-interpolation-filters="sRGB">
<feFlood flood-opacity="0" result="BackgroundImageFix"/>
<feColorMatrix in="SourceAlpha" type="matrix" values="0 0 0 0 0 0 0 0 0 0 0 0 0 0 0 0 0 0 127 0"/>
<feOffset dy="6.18624"/>
<feGaussianBlur stdDeviation="2.4745"/>
<feColorMatrix type="matrix" values="0 0 0 0 0 0 0 0 0 0 0 0 0 0 0 0 0 0 0.3 0"/>
<feBlend mode="normal" in2="BackgroundImageFix" result="effect1_dropShadow"/>
<feColorMatrix in="SourceAlpha" type="matrix" values="0 0 0 0 0 0 0 0 0 0 0 0 0 0 0 0 0 0 127 0"/>
<feOffset dy="20.6401"/>
<feGaussianBlur stdDeviation="8.25605"/>
<feColorMatrix type="matrix" values="0 0 0 0 0 0 0 0 0 0 0 0 0 0 0 0 0 0 0.15 0"/>
<feBlend mode="normal" in2="effect1_dropShadow" result="effect2_dropShadow"/>
<feColorMatrix in="SourceAlpha" type="matrix" values="0 0 0 0 0 0 0 0 0 0 0 0 0 0 0 0 0 0 127 0"/>
<feOffset dy="49.4047"/>
<feGaussianBlur stdDeviation="19.7619"/>
<feColorMatrix type="matrix" values="0 0 0 0 0 0 0 0 0 0 0 0 0 0 0 0 0 0 0.15 0"/>
<feBlend mode="normal" in2="effect2_dropShadow" result="effect3_dropShadow"/>
<feBlend mode="normal" in="SourceGraphic" in2="effect3_dropShadow" result="shape"/>
</filter>
<filter id="filter4_ddd" x="76.026" y="425.566" width="235.518" height="254.493" filterUnits="userSpaceOnUse" color-interpolation-filters="sRGB">
<feFlood flood-opacity="0" result="BackgroundImageFix"/>
<feColorMatrix in="SourceAlpha" type="matrix" values="0 0 0 0 0 0 0 0 0 0 0 0 0 0 0 0 0 0 127 0"/>
<feOffset dy="6.18624"/>
<feGaussianBlur stdDeviation="2.4745"/>
<feColorMatrix type="matrix" values="0 0 0 0 0 0 0 0 0 0 0 0 0 0 0 0 0 0 0.3 0"/>
<feBlend mode="normal" in2="BackgroundImageFix" result="effect1_dropShadow"/>
<feColorMatrix in="SourceAlpha" type="matrix" values="0 0 0 0 0 0 0 0 0 0 0 0 0 0 0 0 0 0 127 0"/>
<feOffset dy="20.6401"/>
<feGaussianBlur stdDeviation="8.25605"/>
<feColorMatrix type="matrix" values="0 0 0 0 0 0 0 0 0 0 0 0 0 0 0 0 0 0 0.15 0"/>
<feBlend mode="normal" in2="effect1_dropShadow" result="effect2_dropShadow"/>
<feColorMatrix in="SourceAlpha" type="matrix" values="0 0 0 0 0 0 0 0 0 0 0 0 0 0 0 0 0 0 127 0"/>
<feOffset dy="49.4047"/>
<feGaussianBlur stdDeviation="19.7619"/>
<feColorMatrix type="matrix" values="0 0 0 0 0 0 0 0 0 0 0 0 0 0 0 0 0 0 0.15 0"/>
<feBlend mode="normal" in2="effect2_dropShadow" result="effect3_dropShadow"/>
<feBlend mode="normal" in="SourceGraphic" in2="effect3_dropShadow" result="shape"/>
</filter>
<filter id="filter5_ddd" x="0.0194244" y="-13.8929" width="243.531" height="253.412" filterUnits="userSpaceOnUse" color-interpolation-filters="sRGB">
<feFlood flood-opacity="0" result="BackgroundImageFix"/>
<feColorMatrix in="SourceAlpha" type="matrix" values="0 0 0 0 0 0 0 0 0 0 0 0 0 0 0 0 0 0 127 0"/>
<feOffset dy="6.18624"/>
<feGaussianBlur stdDeviation="2.4745"/>
<feColorMatrix type="matrix" values="0 0 0 0 0 0 0 0 0 0 0 0 0 0 0 0 0 0 0.3 0"/>
<feBlend mode="normal" in2="BackgroundImageFix" result="effect1_dropShadow"/>
<feColorMatrix in="SourceAlpha" type="matrix" values="0 0 0 0 0 0 0 0 0 0 0 0 0 0 0 0 0 0 127 0"/>
<feOffset dy="20.6401"/>
<feGaussianBlur stdDeviation="8.25605"/>
<feColorMatrix type="matrix" values="0 0 0 0 0 0 0 0 0 0 0 0 0 0 0 0 0 0 0.15 0"/>
<feBlend mode="normal" in2="effect1_dropShadow" result="effect2_dropShadow"/>
<feColorMatrix in="SourceAlpha" type="matrix" values="0 0 0 0 0 0 0 0 0 0 0 0 0 0 0 0 0 0 127 0"/>
<feOffset dy="49.4047"/>
<feGaussianBlur stdDeviation="19.7619"/>
<feColorMatrix type="matrix" values="0 0 0 0 0 0 0 0 0 0 0 0 0 0 0 0 0 0 0.15 0"/>
<feBlend mode="normal" in2="effect2_dropShadow" result="effect3_dropShadow"/>
<feBlend mode="normal" in="SourceGraphic" in2="effect3_dropShadow" result="shape"/>
</filter>
<filter id="filter6_ddd" x="232.966" y="-72.9465" width="251.638" height="261.519" filterUnits="userSpaceOnUse" color-interpolation-filters="sRGB">
<feFlood flood-opacity="0" result="BackgroundImageFix"/>
<feColorMatrix in="SourceAlpha" type="matrix" values="0 0 0 0 0 0 0 0 0 0 0 0 0 0 0 0 0 0 127 0"/>
<feOffset dy="6.18624"/>
<feGaussianBlur stdDeviation="2.4745"/>
<feColorMatrix type="matrix" values="0 0 0 0 0 0 0 0 0 0 0 0 0 0 0 0 0 0 0.3 0"/>
<feBlend mode="normal" in2="BackgroundImageFix" result="effect1_dropShadow"/>
<feColorMatrix in="SourceAlpha" type="matrix" values="0 0 0 0 0 0 0 0 0 0 0 0 0 0 0 0 0 0 127 0"/>
<feOffset dy="20.6401"/>
<feGaussianBlur stdDeviation="8.25605"/>
<feColorMatrix type="matrix" values="0 0 0 0 0 0 0 0 0 0 0 0 0 0 0 0 0 0 0.15 0"/>
<feBlend mode="normal" in2="effect1_dropShadow" result="effect2_dropShadow"/>
<feColorMatrix in="SourceAlpha" type="matrix" values="0 0 0 0 0 0 0 0 0 0 0 0 0 0 0 0 0 0 127 0"/>
<feOffset dy="49.4047"/>
<feGaussianBlur stdDeviation="19.7619"/>
<feColorMatrix type="matrix" values="0 0 0 0 0 0 0 0 0 0 0 0 0 0 0 0 0 0 0.15 0"/>
<feBlend mode="normal" in2="effect2_dropShadow" result="effect3_dropShadow"/>
<feBlend mode="normal" in="SourceGraphic" in2="effect3_dropShadow" result="shape"/>
</filter>
<filter id="filter7_ddd" x="340.772" y="260.632" width="188.825" height="193.191" filterUnits="userSpaceOnUse" color-interpolation-filters="sRGB">
<feFlood flood-opacity="0" result="BackgroundImageFix"/>
<feColorMatrix in="SourceAlpha" type="matrix" values="0 0 0 0 0 0 0 0 0 0 0 0 0 0 0 0 0 0 127 0"/>
<feOffset dy="6.18624"/>
<feGaussianBlur stdDeviation="2.4745"/>
<feColorMatrix type="matrix" values="0 0 0 0 0 0 0 0 0 0 0 0 0 0 0 0 0 0 0.3 0"/>
<feBlend mode="normal" in2="BackgroundImageFix" result="effect1_dropShadow"/>
<feColorMatrix in="SourceAlpha" type="matrix" values="0 0 0 0 0 0 0 0 0 0 0 0 0 0 0 0 0 0 127 0"/>
<feOffset dy="20.6401"/>
<feGaussianBlur stdDeviation="8.25605"/>
<feColorMatrix type="matrix" values="0 0 0 0 0 0 0 0 0 0 0 0 0 0 0 0 0 0 0.15 0"/>
<feBlend mode="normal" in2="effect1_dropShadow" result="effect2_dropShadow"/>
<feColorMatrix in="SourceAlpha" type="matrix" values="0 0 0 0 0 0 0 0 0 0 0 0 0 0 0 0 0 0 127 0"/>
<feOffset dy="49.4047"/>
<feGaussianBlur stdDeviation="19.7619"/>
<feColorMatrix type="matrix" values="0 0 0 0 0 0 0 0 0 0 0 0 0 0 0 0 0 0 0.15 0"/>
<feBlend mode="normal" in2="effect2_dropShadow" result="effect3_dropShadow"/>
<feBlend mode="normal" in="SourceGraphic" in2="effect3_dropShadow" result="shape"/>
</filter>
<filter id="filter8_ddd" x="90.4762" y="206" width="219.635" height="235.457" filterUnits="userSpaceOnUse" color-interpolation-filters="sRGB">
<feFlood flood-opacity="0" result="BackgroundImageFix"/>
<feColorMatrix in="SourceAlpha" type="matrix" values="0 0 0 0 0 0 0 0 0 0 0 0 0 0 0 0 0 0 127 0"/>
<feOffset dy="6.18624"/>
<feGaussianBlur stdDeviation="2.4745"/>
<feColorMatrix type="matrix" values="0 0 0 0 0 0 0 0 0 0 0 0 0 0 0 0 0 0 0.3 0"/>
<feBlend mode="normal" in2="BackgroundImageFix" result="effect1_dropShadow"/>
<feColorMatrix in="SourceAlpha" type="matrix" values="0 0 0 0 0 0 0 0 0 0 0 0 0 0 0 0 0 0 127 0"/>
<feOffset dy="20.6401"/>
<feGaussianBlur stdDeviation="8.25605"/>
<feColorMatrix type="matrix" values="0 0 0 0 0 0 0 0 0 0 0 0 0 0 0 0 0 0 0.15 0"/>
<feBlend mode="normal" in2="effect1_dropShadow" result="effect2_dropShadow"/>
<feColorMatrix in="SourceAlpha" type="matrix" values="0 0 0 0 0 0 0 0 0 0 0 0 0 0 0 0 0 0 127 0"/>
<feOffset dy="49.4047"/>
<feGaussianBlur stdDeviation="19.7619"/>
<feColorMatrix type="matrix" values="0 0 0 0 0 0 0 0 0 0 0 0 0 0 0 0 0 0 0.15 0"/>
<feBlend mode="normal" in2="effect2_dropShadow" result="effect3_dropShadow"/>
<feBlend mode="normal" in="SourceGraphic" in2="effect3_dropShadow" result="shape"/>
</filter>
<clipPath id="clip0">
<rect width="140.588" height="140.588" fill="white" transform="translate(130 211.94)"/>
</clipPath>
<clipPath id="clip1">
<rect width="140.588" height="140.588" fill="white" transform="translate(130 206)"/>
</clipPath>
</defs>
</svg>
