<svg width="403" height="562" viewBox="0 0 403 562" fill="none" xmlns="http://www.w3.org/2000/svg">
<g filter="url(#filter0_ddd)">
<rect x="235.551" y="409.495" width="104.051" height="104.051" rx="14.2825" transform="rotate(-15 235.551 409.495)" fill="#A3A3A3"/>
</g>
<rect x="235" y="402.93" width="104.051" height="104.051" rx="14.2825" transform="rotate(-15 235 402.93)" fill="#9D2F93"/>
<rect x="235" y="402.93" width="104.051" height="104.051" rx="14.2825" transform="rotate(-15 235 402.93)" fill="#ECEDED"/>
<g filter="url(#filter1_ddd)">
<rect x="31.4832" y="190.859" width="127.349" height="60.6086" rx="14.2825" transform="rotate(-20.1227 31.4832 190.859)" fill="#A3A3A3"/>
</g>
<rect x="28" y="184.812" width="127.349" height="60.6086" rx="14.2825" transform="rotate(-20.1227 28 184.812)" fill="#9D2F93"/>
<rect x="28" y="184.812" width="127.349" height="60.6086" rx="14.2825" transform="rotate(-20.1227 28 184.812)" fill="#ECEDED"/>
<g filter="url(#filter2_d)">
<circle cx="-72.3293" cy="343.234" r="38.3382" transform="rotate(-20.1227 -72.3293 343.234)" fill="#A3A3A3"/>
</g>
<g filter="url(#filter3_ddd)">
<circle cx="-35.6108" cy="217.16" r="26.4871" transform="rotate(-20.1227 -35.6108 217.16)" fill="#A3A3A3"/>
</g>
<g filter="url(#filter4_ddd)">
<path d="M4.8506 439.676C7.03162 437.065 10.4397 435.816 13.791 436.4L69.9964 446.186C73.3477 446.77 76.1332 449.097 77.3035 452.291L96.9308 505.86C98.1011 509.054 97.4785 512.63 95.2975 515.24L58.7195 559.022C56.5384 561.633 53.1304 562.881 49.7791 562.298L-6.42633 552.511C-9.77766 551.928 -12.5631 549.601 -13.7334 546.407L-33.3608 492.838C-34.5311 489.644 -33.9084 486.068 -31.7274 483.458L4.8506 439.676Z" fill="#A3A3A3"/>
</g>
<path d="M1.36745 433.629C3.54846 431.018 6.95654 429.769 10.3079 430.353L66.5132 440.139C69.8646 440.723 72.65 443.05 73.8203 446.244L93.4477 499.813C94.618 503.007 93.9954 506.583 91.8143 509.193L55.2363 552.975C53.0553 555.586 49.6472 556.834 46.2959 556.251L-9.90948 546.464C-13.2608 545.881 -16.0463 543.554 -17.2166 540.36L-36.8439 486.791C-38.0142 483.597 -37.3916 480.021 -35.2106 477.411L1.36745 433.629Z" fill="#9D2F93"/>
<path d="M1.36745 433.629C3.54846 431.018 6.95654 429.769 10.3079 430.353L66.5132 440.139C69.8646 440.723 72.65 443.05 73.8203 446.244L93.4477 499.813C94.618 503.007 93.9954 506.583 91.8143 509.193L55.2363 552.975C53.0553 555.586 49.6472 556.834 46.2959 556.251L-9.90948 546.464C-13.2608 545.881 -16.0463 543.554 -17.2166 540.36L-36.8439 486.791C-38.0142 483.597 -37.3916 480.021 -35.2106 477.411L1.36745 433.629Z" fill="#ECEDED"/>
<g filter="url(#filter5_ddd)">
<path d="M230.37 54.095C232.582 49.3243 238.243 47.2502 243.013 49.4624L313.039 81.9335C317.81 84.1457 319.884 89.8065 317.672 94.5772L285.2 164.603C282.988 169.374 277.327 171.448 272.557 169.235L202.531 136.764C197.76 134.552 195.686 128.891 197.899 124.121L230.37 54.095Z" fill="#A3A3A3"/>
</g>
<path d="M226.887 48.048C229.099 43.2773 234.759 41.2032 239.53 43.4154L309.556 75.8865C314.327 78.0987 316.401 83.7595 314.188 88.5302L281.717 158.556C279.505 163.327 273.844 165.401 269.074 163.188L199.048 130.717C194.277 128.505 192.203 122.844 194.415 118.074L226.887 48.048Z" fill="#9D2F93"/>
<path d="M226.887 48.048C229.099 43.2773 234.759 41.2032 239.53 43.4154L309.556 75.8865C314.327 78.0987 316.401 83.7595 314.188 88.5302L281.717 158.556C279.505 163.327 273.844 165.401 269.074 163.188L199.048 130.717C194.277 128.505 192.203 122.844 194.415 118.074L226.887 48.048Z" fill="#ECEDED"/>
<g filter="url(#filter6_ddd)">
<path d="M17.4731 8.12759C19.3313 6.41754 21.7927 5.5157 24.3158 5.62045L68.4697 7.45353C70.9928 7.55828 73.371 8.66105 75.081 10.5192L105.006 43.0369C106.716 44.8951 107.618 47.3565 107.513 49.8796L105.68 94.0335C105.576 96.5566 104.473 98.9348 102.615 100.645L70.097 130.57C68.2388 132.28 65.7774 133.182 63.2543 133.077L19.1004 131.244C16.5773 131.139 14.1991 130.037 12.4891 128.179L-17.4363 95.6608C-19.1463 93.8026 -20.0482 91.3413 -19.9434 88.8181L-18.1103 44.6642C-18.0056 42.1411 -16.9028 39.763 -15.0446 38.0529L17.4731 8.12759Z" fill="#A3A3A3"/>
</g>
<path d="M13.9899 2.08059C15.8481 0.370545 18.3095 -0.5313 20.8326 -0.42655L64.9865 1.40654C67.5096 1.51129 69.8878 2.61405 71.5979 4.47224L101.523 36.9899C103.233 38.8481 104.135 41.3095 104.03 43.8326L102.197 87.9865C102.092 90.5096 100.99 92.8878 99.1315 94.5979L66.6138 124.523C64.7556 126.233 62.2943 127.135 59.7711 127.03L15.6172 125.197C13.0941 125.092 10.716 123.99 9.00591 122.132L-20.9194 89.6138C-22.6295 87.7556 -23.5313 85.2943 -23.4266 82.7711L-21.5935 38.6173C-21.4887 36.0941 -20.386 33.716 -18.5278 32.0059L13.9899 2.08059Z" fill="#9D2F93"/>
<path d="M13.9899 2.08059C15.8481 0.370545 18.3095 -0.5313 20.8326 -0.42655L64.9865 1.40654C67.5096 1.51129 69.8878 2.61405 71.5979 4.47224L101.523 36.9899C103.233 38.8481 104.135 41.3095 104.03 43.8326L102.197 87.9865C102.092 90.5096 100.99 92.8878 99.1315 94.5979L66.6138 124.523C64.7556 126.233 62.2943 127.135 59.7711 127.03L15.6172 125.197C13.0941 125.092 10.716 123.99 9.00591 122.132L-20.9194 89.6138C-22.6295 87.7556 -23.5313 85.2943 -23.4266 82.7711L-21.5935 38.6173C-21.4887 36.0941 -20.386 33.716 -18.5278 32.0059L13.9899 2.08059Z" fill="#ECEDED"/>
<g filter="url(#filter7_ddd)">
<path d="M184.412 280.571L185.611 285.046L186.748 281.92L184.412 280.571Z" fill="#A3A3A3"/>
<g clip-path="url(#clip0)">
<path d="M318.656 245.086C317.516 244.428 284.31 225.258 283.125 224.574C281.164 223.442 278.658 224.112 277.524 226.069L269.918 239.191C269.034 239.44 254.338 238.154 246.273 252.122L225.966 287.295C224.833 289.258 225.506 291.767 227.468 292.899C237.265 298.556 249.833 295.183 255.486 285.392L258.467 280.23C266.415 282.56 274.981 279.853 280.157 273.456L300.621 285.271C302.782 286.518 304.66 288.119 306.197 289.986C309.904 282.127 311.881 273.567 311.99 264.782L320.155 250.699C321.296 248.723 320.611 246.219 318.656 245.086Z" fill="#A3A3A3"/>
<path d="M281.341 283.613C275.98 287.592 269.381 289.564 262.749 289.223C251.002 302.67 238.955 309.006 223.365 300.006C217.476 296.606 215.458 289.085 218.86 283.193L237.473 250.954L225.367 251.828L211.913 244.056C209.947 242.92 207.439 243.601 206.307 245.558L185.793 281.089C184.662 283.051 185.335 285.561 187.295 286.695C196.057 291.752 203.565 299.26 208.438 307.828C208.712 308.174 217.287 325.488 237.462 334.956L252.446 341.993C260.758 345.898 270.495 343.779 276.465 337.086L299.544 311.231C304.74 305.417 303.284 296.284 296.516 292.377L281.341 283.613Z" fill="#A3A3A3"/>
</g>
<g clip-path="url(#clip1)">
<path d="M236.396 247.178L237.666 251.915L237.341 252.284L232.418 252.334L236.396 247.178Z" fill="#A3A3A3"/>
<path d="M225.839 291.474L224.57 286.737L226.957 287.225L227.12 290.99L225.839 291.474Z" fill="#A3A3A3"/>
<path d="M320.823 248.534L319.554 243.796L318.186 245.009L319.472 248.755L320.823 248.534Z" fill="#A3A3A3"/>
<path d="M302.535 300.825L301.195 295.825L299.586 300.346L302.535 300.825Z" fill="#A3A3A3"/>
<path d="M317.635 241.276C316.495 240.617 283.289 221.447 282.104 220.763C280.143 219.631 277.637 220.301 276.503 222.258L268.897 235.381C268.013 235.629 253.317 234.343 245.252 248.312L224.945 283.484C223.812 285.447 224.485 287.956 226.447 289.089C236.244 294.745 248.812 291.372 254.465 281.581L257.446 276.419C265.394 278.749 273.96 276.042 279.136 269.645L299.6 281.46C301.761 282.707 303.639 284.308 305.176 286.176C308.883 278.316 310.86 269.756 310.969 260.971L319.134 246.888C320.275 244.912 319.59 242.408 317.635 241.276Z" fill="#ECEDED"/>
<path d="M280.32 279.802C274.959 283.782 268.36 285.754 261.728 285.413C249.981 298.859 237.934 305.196 222.344 296.195C216.455 292.795 214.437 285.274 217.839 279.382L236.452 247.144L224.346 248.017L210.892 240.245C208.926 239.11 206.418 239.79 205.286 241.747L184.772 277.278C183.641 279.241 184.314 281.75 186.274 282.884C195.036 287.941 202.544 295.449 207.417 304.017C207.691 304.363 216.266 321.677 236.441 331.145L251.425 338.182C259.737 342.088 269.474 339.969 275.444 333.275L298.523 307.42C303.719 301.606 302.263 292.473 295.495 288.566L280.32 279.802Z" fill="#ECEDED"/>
</g>
</g>
<g filter="url(#filter8_ddd)">
<path d="M113.356 395.115C118.981 399.814 127.584 396.662 128.841 389.441L140.673 321.486C141.931 314.265 134.899 308.391 128.017 310.912L63.25 334.643C56.3677 337.164 54.796 346.191 60.421 350.89L113.356 395.115Z" fill="#A3A3A3"/>
</g>
<path d="M111.122 385.227C116.747 389.926 125.35 386.774 126.608 379.553L138.44 311.598C139.697 304.377 132.666 298.502 125.784 301.024L61.0168 324.755C54.1345 327.276 52.5628 336.303 58.1878 341.002L111.122 385.227Z" fill="#9D2F93"/>
<path d="M111.122 385.227C116.747 389.926 125.35 386.774 126.608 379.553L138.44 311.598C139.697 304.377 132.666 298.502 125.784 301.024L61.0168 324.755C54.1345 327.276 52.5628 336.303 58.1878 341.002L111.122 385.227Z" fill="#ECEDED"/>
<defs>
<filter id="filter0_ddd" x="196.027" y="382.565" width="206.484" height="216.365" filterUnits="userSpaceOnUse" color-interpolation-filters="sRGB">
<feFlood flood-opacity="0" result="BackgroundImageFix"/>
<feColorMatrix in="SourceAlpha" type="matrix" values="0 0 0 0 0 0 0 0 0 0 0 0 0 0 0 0 0 0 127 0"/>
<feOffset dy="6.18624"/>
<feGaussianBlur stdDeviation="2.4745"/>
<feColorMatrix type="matrix" values="0 0 0 0 0 0 0 0 0 0 0 0 0 0 0 0 0 0 0.3 0"/>
<feBlend mode="normal" in2="BackgroundImageFix" result="effect1_dropShadow"/>
<feColorMatrix in="SourceAlpha" type="matrix" values="0 0 0 0 0 0 0 0 0 0 0 0 0 0 0 0 0 0 127 0"/>
<feOffset dy="20.6401"/>
<feGaussianBlur stdDeviation="8.25605"/>
<feColorMatrix type="matrix" values="0 0 0 0 0 0 0 0 0 0 0 0 0 0 0 0 0 0 0.15 0"/>
<feBlend mode="normal" in2="effect1_dropShadow" result="effect2_dropShadow"/>
<feColorMatrix in="SourceAlpha" type="matrix" values="0 0 0 0 0 0 0 0 0 0 0 0 0 0 0 0 0 0 127 0"/>
<feOffset dy="49.4047"/>
<feGaussianBlur stdDeviation="19.7619"/>
<feColorMatrix type="matrix" values="0 0 0 0 0 0 0 0 0 0 0 0 0 0 0 0 0 0 0.15 0"/>
<feBlend mode="normal" in2="effect2_dropShadow" result="effect3_dropShadow"/>
<feBlend mode="normal" in="SourceGraphic" in2="effect3_dropShadow" result="shape"/>
</filter>
<filter id="filter1_ddd" x="-8.04063" y="147.047" width="219.474" height="189.65" filterUnits="userSpaceOnUse" color-interpolation-filters="sRGB">
<feFlood flood-opacity="0" result="BackgroundImageFix"/>
<feColorMatrix in="SourceAlpha" type="matrix" values="0 0 0 0 0 0 0 0 0 0 0 0 0 0 0 0 0 0 127 0"/>
<feOffset dy="6.18624"/>
<feGaussianBlur stdDeviation="2.4745"/>
<feColorMatrix type="matrix" values="0 0 0 0 0 0 0 0 0 0 0 0 0 0 0 0 0 0 0.3 0"/>
<feBlend mode="normal" in2="BackgroundImageFix" result="effect1_dropShadow"/>
<feColorMatrix in="SourceAlpha" type="matrix" values="0 0 0 0 0 0 0 0 0 0 0 0 0 0 0 0 0 0 127 0"/>
<feOffset dy="20.6401"/>
<feGaussianBlur stdDeviation="8.25605"/>
<feColorMatrix type="matrix" values="0 0 0 0 0 0 0 0 0 0 0 0 0 0 0 0 0 0 0.15 0"/>
<feBlend mode="normal" in2="effect1_dropShadow" result="effect2_dropShadow"/>
<feColorMatrix in="SourceAlpha" type="matrix" values="0 0 0 0 0 0 0 0 0 0 0 0 0 0 0 0 0 0 127 0"/>
<feOffset dy="49.4047"/>
<feGaussianBlur stdDeviation="19.7619"/>
<feColorMatrix type="matrix" values="0 0 0 0 0 0 0 0 0 0 0 0 0 0 0 0 0 0 0.15 0"/>
<feBlend mode="normal" in2="effect2_dropShadow" result="effect3_dropShadow"/>
<feBlend mode="normal" in="SourceGraphic" in2="effect3_dropShadow" result="shape"/>
</filter>
<filter id="filter2_d" x="-161.041" y="294.047" width="177.423" height="187.304" filterUnits="userSpaceOnUse" color-interpolation-filters="sRGB">
<feFlood flood-opacity="0" result="BackgroundImageFix"/>
<feColorMatrix in="SourceAlpha" type="matrix" values="0 0 0 0 0 0 0 0 0 0 0 0 0 0 0 0 0 0 127 0"/>
<feOffset dy="49.4047"/>
<feGaussianBlur stdDeviation="19.7619"/>
<feColorMatrix type="matrix" values="0 0 0 0 0 0 0 0 0 0 0 0 0 0 0 0 0 0 0.15 0"/>
<feBlend mode="normal" in2="BackgroundImageFix" result="effect1_dropShadow"/>
<feBlend mode="normal" in="SourceGraphic" in2="effect1_dropShadow" result="shape"/>
</filter>
<filter id="filter3_ddd" x="-109.117" y="183.178" width="147.013" height="156.894" filterUnits="userSpaceOnUse" color-interpolation-filters="sRGB">
<feFlood flood-opacity="0" result="BackgroundImageFix"/>
<feColorMatrix in="SourceAlpha" type="matrix" values="0 0 0 0 0 0 0 0 0 0 0 0 0 0 0 0 0 0 127 0"/>
<feOffset dy="6.18624"/>
<feGaussianBlur stdDeviation="2.4745"/>
<feColorMatrix type="matrix" values="0 0 0 0 0 0 0 0 0 0 0 0 0 0 0 0 0 0 0.3 0"/>
<feBlend mode="normal" in2="BackgroundImageFix" result="effect1_dropShadow"/>
<feColorMatrix in="SourceAlpha" type="matrix" values="0 0 0 0 0 0 0 0 0 0 0 0 0 0 0 0 0 0 127 0"/>
<feOffset dy="20.6401"/>
<feGaussianBlur stdDeviation="8.25605"/>
<feColorMatrix type="matrix" values="0 0 0 0 0 0 0 0 0 0 0 0 0 0 0 0 0 0 0.15 0"/>
<feBlend mode="normal" in2="effect1_dropShadow" result="effect2_dropShadow"/>
<feColorMatrix in="SourceAlpha" type="matrix" values="0 0 0 0 0 0 0 0 0 0 0 0 0 0 0 0 0 0 127 0"/>
<feOffset dy="49.4047"/>
<feGaussianBlur stdDeviation="19.7619"/>
<feColorMatrix type="matrix" values="0 0 0 0 0 0 0 0 0 0 0 0 0 0 0 0 0 0 0.15 0"/>
<feBlend mode="normal" in2="effect2_dropShadow" result="effect3_dropShadow"/>
<feBlend mode="normal" in="SourceGraphic" in2="effect3_dropShadow" result="shape"/>
</filter>
<filter id="filter4_ddd" x="-85.974" y="416.566" width="235.518" height="254.493" filterUnits="userSpaceOnUse" color-interpolation-filters="sRGB">
<feFlood flood-opacity="0" result="BackgroundImageFix"/>
<feColorMatrix in="SourceAlpha" type="matrix" values="0 0 0 0 0 0 0 0 0 0 0 0 0 0 0 0 0 0 127 0"/>
<feOffset dy="6.18624"/>
<feGaussianBlur stdDeviation="2.4745"/>
<feColorMatrix type="matrix" values="0 0 0 0 0 0 0 0 0 0 0 0 0 0 0 0 0 0 0.3 0"/>
<feBlend mode="normal" in2="BackgroundImageFix" result="effect1_dropShadow"/>
<feColorMatrix in="SourceAlpha" type="matrix" values="0 0 0 0 0 0 0 0 0 0 0 0 0 0 0 0 0 0 127 0"/>
<feOffset dy="20.6401"/>
<feGaussianBlur stdDeviation="8.25605"/>
<feColorMatrix type="matrix" values="0 0 0 0 0 0 0 0 0 0 0 0 0 0 0 0 0 0 0.15 0"/>
<feBlend mode="normal" in2="effect1_dropShadow" result="effect2_dropShadow"/>
<feColorMatrix in="SourceAlpha" type="matrix" values="0 0 0 0 0 0 0 0 0 0 0 0 0 0 0 0 0 0 127 0"/>
<feOffset dy="49.4047"/>
<feGaussianBlur stdDeviation="19.7619"/>
<feColorMatrix type="matrix" values="0 0 0 0 0 0 0 0 0 0 0 0 0 0 0 0 0 0 0.15 0"/>
<feBlend mode="normal" in2="effect2_dropShadow" result="effect3_dropShadow"/>
<feBlend mode="normal" in="SourceGraphic" in2="effect3_dropShadow" result="shape"/>
</filter>
<filter id="filter5_ddd" x="136.019" y="27.1071" width="243.531" height="253.412" filterUnits="userSpaceOnUse" color-interpolation-filters="sRGB">
<feFlood flood-opacity="0" result="BackgroundImageFix"/>
<feColorMatrix in="SourceAlpha" type="matrix" values="0 0 0 0 0 0 0 0 0 0 0 0 0 0 0 0 0 0 127 0"/>
<feOffset dy="6.18624"/>
<feGaussianBlur stdDeviation="2.4745"/>
<feColorMatrix type="matrix" values="0 0 0 0 0 0 0 0 0 0 0 0 0 0 0 0 0 0 0.3 0"/>
<feBlend mode="normal" in2="BackgroundImageFix" result="effect1_dropShadow"/>
<feColorMatrix in="SourceAlpha" type="matrix" values="0 0 0 0 0 0 0 0 0 0 0 0 0 0 0 0 0 0 127 0"/>
<feOffset dy="20.6401"/>
<feGaussianBlur stdDeviation="8.25605"/>
<feColorMatrix type="matrix" values="0 0 0 0 0 0 0 0 0 0 0 0 0 0 0 0 0 0 0.15 0"/>
<feBlend mode="normal" in2="effect1_dropShadow" result="effect2_dropShadow"/>
<feColorMatrix in="SourceAlpha" type="matrix" values="0 0 0 0 0 0 0 0 0 0 0 0 0 0 0 0 0 0 127 0"/>
<feOffset dy="49.4047"/>
<feGaussianBlur stdDeviation="19.7619"/>
<feColorMatrix type="matrix" values="0 0 0 0 0 0 0 0 0 0 0 0 0 0 0 0 0 0 0.15 0"/>
<feBlend mode="normal" in2="effect2_dropShadow" result="effect3_dropShadow"/>
<feBlend mode="normal" in="SourceGraphic" in2="effect3_dropShadow" result="shape"/>
</filter>
<filter id="filter6_ddd" x="-82.034" y="-16.9465" width="251.638" height="261.519" filterUnits="userSpaceOnUse" color-interpolation-filters="sRGB">
<feFlood flood-opacity="0" result="BackgroundImageFix"/>
<feColorMatrix in="SourceAlpha" type="matrix" values="0 0 0 0 0 0 0 0 0 0 0 0 0 0 0 0 0 0 127 0"/>
<feOffset dy="6.18624"/>
<feGaussianBlur stdDeviation="2.4745"/>
<feColorMatrix type="matrix" values="0 0 0 0 0 0 0 0 0 0 0 0 0 0 0 0 0 0 0.3 0"/>
<feBlend mode="normal" in2="BackgroundImageFix" result="effect1_dropShadow"/>
<feColorMatrix in="SourceAlpha" type="matrix" values="0 0 0 0 0 0 0 0 0 0 0 0 0 0 0 0 0 0 127 0"/>
<feOffset dy="20.6401"/>
<feGaussianBlur stdDeviation="8.25605"/>
<feColorMatrix type="matrix" values="0 0 0 0 0 0 0 0 0 0 0 0 0 0 0 0 0 0 0.15 0"/>
<feBlend mode="normal" in2="effect1_dropShadow" result="effect2_dropShadow"/>
<feColorMatrix in="SourceAlpha" type="matrix" values="0 0 0 0 0 0 0 0 0 0 0 0 0 0 0 0 0 0 127 0"/>
<feOffset dy="49.4047"/>
<feGaussianBlur stdDeviation="19.7619"/>
<feColorMatrix type="matrix" values="0 0 0 0 0 0 0 0 0 0 0 0 0 0 0 0 0 0 0.15 0"/>
<feBlend mode="normal" in2="effect2_dropShadow" result="effect3_dropShadow"/>
<feBlend mode="normal" in="SourceGraphic" in2="effect3_dropShadow" result="shape"/>
</filter>
<filter id="filter7_ddd" x="132.476" y="198" width="251.6" height="264.271" filterUnits="userSpaceOnUse" color-interpolation-filters="sRGB">
<feFlood flood-opacity="0" result="BackgroundImageFix"/>
<feColorMatrix in="SourceAlpha" type="matrix" values="0 0 0 0 0 0 0 0 0 0 0 0 0 0 0 0 0 0 127 0"/>
<feOffset dy="6.18624"/>
<feGaussianBlur stdDeviation="2.4745"/>
<feColorMatrix type="matrix" values="0 0 0 0 0 0 0 0 0 0 0 0 0 0 0 0 0 0 0.3 0"/>
<feBlend mode="normal" in2="BackgroundImageFix" result="effect1_dropShadow"/>
<feColorMatrix in="SourceAlpha" type="matrix" values="0 0 0 0 0 0 0 0 0 0 0 0 0 0 0 0 0 0 127 0"/>
<feOffset dy="20.6401"/>
<feGaussianBlur stdDeviation="8.25605"/>
<feColorMatrix type="matrix" values="0 0 0 0 0 0 0 0 0 0 0 0 0 0 0 0 0 0 0.15 0"/>
<feBlend mode="normal" in2="effect1_dropShadow" result="effect2_dropShadow"/>
<feColorMatrix in="SourceAlpha" type="matrix" values="0 0 0 0 0 0 0 0 0 0 0 0 0 0 0 0 0 0 127 0"/>
<feOffset dy="49.4047"/>
<feGaussianBlur stdDeviation="19.7619"/>
<feColorMatrix type="matrix" values="0 0 0 0 0 0 0 0 0 0 0 0 0 0 0 0 0 0 0.15 0"/>
<feBlend mode="normal" in2="effect2_dropShadow" result="effect3_dropShadow"/>
<feBlend mode="normal" in="SourceGraphic" in2="effect3_dropShadow" result="shape"/>
</filter>
<filter id="filter8_ddd" x="14.7724" y="307.632" width="188.825" height="193.191" filterUnits="userSpaceOnUse" color-interpolation-filters="sRGB">
<feFlood flood-opacity="0" result="BackgroundImageFix"/>
<feColorMatrix in="SourceAlpha" type="matrix" values="0 0 0 0 0 0 0 0 0 0 0 0 0 0 0 0 0 0 127 0"/>
<feOffset dy="6.18624"/>
<feGaussianBlur stdDeviation="2.4745"/>
<feColorMatrix type="matrix" values="0 0 0 0 0 0 0 0 0 0 0 0 0 0 0 0 0 0 0.3 0"/>
<feBlend mode="normal" in2="BackgroundImageFix" result="effect1_dropShadow"/>
<feColorMatrix in="SourceAlpha" type="matrix" values="0 0 0 0 0 0 0 0 0 0 0 0 0 0 0 0 0 0 127 0"/>
<feOffset dy="20.6401"/>
<feGaussianBlur stdDeviation="8.25605"/>
<feColorMatrix type="matrix" values="0 0 0 0 0 0 0 0 0 0 0 0 0 0 0 0 0 0 0.15 0"/>
<feBlend mode="normal" in2="effect1_dropShadow" result="effect2_dropShadow"/>
<feColorMatrix in="SourceAlpha" type="matrix" values="0 0 0 0 0 0 0 0 0 0 0 0 0 0 0 0 0 0 127 0"/>
<feOffset dy="49.4047"/>
<feGaussianBlur stdDeviation="19.7619"/>
<feColorMatrix type="matrix" values="0 0 0 0 0 0 0 0 0 0 0 0 0 0 0 0 0 0 0.15 0"/>
<feBlend mode="normal" in2="effect2_dropShadow" result="effect3_dropShadow"/>
<feBlend mode="normal" in="SourceGraphic" in2="effect3_dropShadow" result="shape"/>
</filter>
<clipPath id="clip0">
<rect width="140.055" height="140.055" fill="white" transform="translate(173.021 238.06) rotate(-15)"/>
</clipPath>
<clipPath id="clip1">
<rect width="140.055" height="140.055" fill="white" transform="translate(172 234.249) rotate(-15)"/>
</clipPath>
</defs>
</svg>
