<svg width="492" height="563" viewBox="0 0 492 563" fill="none" xmlns="http://www.w3.org/2000/svg">
<g filter="url(#filter0_ddd)">
<rect x="358.504" y="105.826" width="104.051" height="104.051" rx="14.2825" transform="rotate(-20.1227 358.504 105.826)" fill="#1152AF"/>
</g>
<rect x="355.021" y="99.7787" width="104.051" height="104.051" rx="14.2825" transform="rotate(-20.1227 355.021 99.7787)" fill="#4C90F1"/>
<rect x="355.021" y="99.7787" width="104.051" height="104.051" rx="14.2825" transform="rotate(-20.1227 355.021 99.7787)" fill="url(#paint0_linear)"/>
<g filter="url(#filter1_ddd)">
<rect x="40.3435" y="6.99393" width="127.349" height="60.6086" rx="14.2825" transform="rotate(-20.1227 40.3435 6.99393)" fill="#1152AF"/>
</g>
<rect x="36.8604" y="0.94693" width="127.349" height="60.6086" rx="14.2825" transform="rotate(-20.1227 36.8604 0.94693)" fill="#4C90F1"/>
<rect x="36.8604" y="0.94693" width="127.349" height="60.6086" rx="14.2825" transform="rotate(-20.1227 36.8604 0.94693)" fill="url(#paint1_linear)"/>
<g filter="url(#filter2_ddd)">
<circle cx="265.305" cy="384.651" r="38.3382" transform="rotate(-20.1227 265.305 384.651)" fill="#1152AF"/>
</g>
<circle cx="261.822" cy="378.604" r="38.3382" transform="rotate(-20.1227 261.822 378.604)" fill="#4C90F1"/>
<circle cx="261.822" cy="378.604" r="38.3382" transform="rotate(-20.1227 261.822 378.604)" fill="url(#paint2_linear)"/>
<g filter="url(#filter3_ddd)">
<circle cx="321.038" cy="510.132" r="26.4871" transform="rotate(-20.1227 321.038 510.132)" fill="#1152AF"/>
</g>
<circle cx="318.631" cy="505.954" r="26.4871" transform="rotate(-20.1227 318.631 505.954)" fill="#4C90F1"/>
<circle cx="318.631" cy="505.954" r="26.4871" transform="rotate(-20.1227 318.631 505.954)" fill="url(#paint3_linear)"/>
<g filter="url(#filter4_ddd)">
<path d="M388.712 49.1444C394.337 53.8439 402.94 50.6918 404.197 43.4707L416.03 -24.4844C417.287 -31.7056 410.256 -37.5799 403.373 -35.0582L338.606 -11.3278C331.724 -8.8061 330.152 0.220298 335.777 4.91975L388.712 49.1444Z" fill="#1152AF"/>
</g>
<path d="M385.479 40.2563C391.104 44.9557 399.707 41.8036 400.964 34.5825L412.797 -33.3726C414.054 -40.5937 407.023 -46.468 400.14 -43.9464L335.373 -20.2159C328.491 -17.6943 326.919 -8.66786 332.544 -3.96841L385.479 40.2563Z" fill="#4C90F1"/>
<path d="M385.479 40.2563C391.104 44.9557 399.707 41.8036 400.964 34.5825L412.797 -33.3726C414.054 -40.5937 407.023 -46.468 400.14 -43.9464L335.373 -20.2159C328.491 -17.6943 326.919 -8.66786 332.544 -3.96841L385.479 40.2563Z" fill="url(#paint4_linear)"/>
<g filter="url(#filter5_ddd)">
<path d="M149.328 484.672C151.509 482.061 154.917 480.812 158.268 481.396L214.473 491.182C217.825 491.766 220.61 494.093 221.781 497.287L241.408 550.856C242.578 554.05 241.956 557.626 239.775 560.236L203.197 604.018C201.015 606.629 197.607 607.877 194.256 607.294L138.051 597.507C134.699 596.924 131.914 594.597 130.744 591.403L111.116 537.834C109.946 534.64 110.569 531.064 112.75 528.454L149.328 484.672Z" fill="#1152AF"/>
</g>
<path d="M145.844 478.625C148.026 476.014 151.434 474.765 154.785 475.349L210.99 485.135C214.342 485.719 217.127 488.046 218.297 491.24L237.925 544.809C239.095 548.003 238.472 551.579 236.291 554.189L199.713 597.971C197.532 600.582 194.124 601.83 190.773 601.247L134.568 591.46C131.216 590.877 128.431 588.55 127.26 585.356L107.633 531.787C106.463 528.593 107.085 525.017 109.266 522.407L145.844 478.625Z" fill="#4C90F1"/>
<path d="M145.844 478.625C148.026 476.014 151.434 474.765 154.785 475.349L210.99 485.135C214.342 485.719 217.127 488.046 218.297 491.24L237.925 544.809C239.095 548.003 238.472 551.579 236.291 554.189L199.713 597.971C197.532 600.582 194.124 601.83 190.773 601.247L134.568 591.46C131.216 590.877 128.431 588.55 127.26 585.356L107.633 531.787C106.463 528.593 107.085 525.017 109.266 522.407L145.844 478.625Z" fill="url(#paint5_linear)"/>
<g filter="url(#filter6_ddd)">
<path d="M430.969 259.186C433.181 254.416 438.841 252.342 443.612 254.554L513.638 287.025C518.409 289.237 520.483 294.898 518.27 299.669L485.799 369.694C483.587 374.465 477.926 376.539 473.156 374.327L403.13 341.856C398.359 339.644 396.285 333.983 398.497 329.212L430.969 259.186Z" fill="#1152AF"/>
</g>
<path d="M427.485 253.139C429.698 248.369 435.358 246.295 440.129 248.507L510.155 280.978C514.925 283.19 516.999 288.851 514.787 293.622L482.316 363.647C480.104 368.418 474.443 370.492 469.672 368.28L399.647 335.809C394.876 333.597 392.802 327.936 395.014 323.165L427.485 253.139Z" fill="#4C90F1"/>
<path d="M427.485 253.139C429.698 248.369 435.358 246.295 440.129 248.507L510.155 280.978C514.925 283.19 516.999 288.851 514.787 293.622L482.316 363.647C480.104 368.418 474.443 370.492 469.672 368.28L399.647 335.809C394.876 333.597 392.802 327.936 395.014 323.165L427.485 253.139Z" fill="url(#paint6_linear)"/>
<g filter="url(#filter7_ddd)">
<path d="M435.555 416.779C437.413 415.069 439.875 414.167 442.398 414.272L486.552 416.105C489.075 416.21 491.453 417.312 493.163 419.171L523.088 451.688C524.798 453.546 525.7 456.008 525.595 458.531L523.762 502.685C523.658 505.208 522.555 507.586 520.697 509.296L488.179 539.222C486.321 540.932 483.859 541.833 481.336 541.729L437.182 539.896C434.659 539.791 432.281 538.688 430.571 536.83L400.646 504.312C398.936 502.454 398.034 499.993 398.139 497.469L399.972 453.316C400.076 450.792 401.179 448.414 403.037 446.704L435.555 416.779Z" fill="#1152AF"/>
</g>
<path d="M432.072 410.732C433.93 409.022 436.392 408.12 438.915 408.225L483.069 410.058C485.592 410.163 487.97 411.265 489.68 413.124L519.605 445.641C521.315 447.499 522.217 449.961 522.112 452.484L520.279 496.638C520.175 499.161 519.072 501.539 517.214 503.249L484.696 533.175C482.838 534.885 480.376 535.786 477.853 535.682L433.699 533.849C431.176 533.744 428.798 532.641 427.088 530.783L397.163 498.265C395.453 496.407 394.551 493.946 394.655 491.423L396.489 447.269C396.593 444.745 397.696 442.367 399.554 440.657L432.072 410.732Z" fill="#4C90F1"/>
<path d="M432.072 410.732C433.93 409.022 436.392 408.12 438.915 408.225L483.069 410.058C485.592 410.163 487.97 411.265 489.68 413.124L519.605 445.641C521.315 447.499 522.217 449.961 522.112 452.484L520.279 496.638C520.175 499.161 519.072 501.539 517.214 503.249L484.696 533.175C482.838 534.885 480.376 535.786 477.853 535.682L433.699 533.849C431.176 533.744 428.798 532.641 427.088 530.783L397.163 498.265C395.453 496.407 394.551 493.946 394.655 491.423L396.489 447.269C396.593 444.745 397.696 442.367 399.554 440.657L432.072 410.732Z" fill="url(#paint7_linear)"/>
<g filter="url(#filter8_ddd)">
<path d="M332.099 210.673L310.183 218.701C307.915 219.532 305.4 218.366 304.569 216.098L302.06 209.249L285.623 215.27L288.132 222.119C288.963 224.387 287.796 226.903 285.528 227.734L255.394 238.773C253.125 239.604 250.61 238.438 249.779 236.169L247.27 229.321L230.833 235.342L233.342 242.191C234.173 244.459 233.007 246.975 230.738 247.806L208.823 255.834C206.554 256.665 204.039 255.499 203.208 253.23L196.685 235.424L328.18 187.251L334.703 205.058C335.534 207.326 334.368 209.842 332.099 210.673Z" fill="#1152AF"/>
<path d="M244.204 93.7295L227.767 99.751L231.782 110.709C232.89 113.733 231.334 117.087 228.31 118.195C225.286 119.303 221.932 117.748 220.824 114.723L216.809 103.765L200.373 109.787C197.348 110.895 195.793 114.249 196.901 117.273L208.944 150.147C210.052 153.171 213.406 154.727 216.43 153.619L260.262 137.561C263.286 136.453 264.841 133.099 263.734 130.075L251.69 97.2013C250.582 94.1769 247.229 92.6215 244.204 93.7295Z" fill="#1152AF"/>
<path d="M231.402 160.562L214.965 166.584L218.98 177.542C220.088 180.566 218.532 183.92 215.508 185.028C212.484 186.136 209.13 184.581 208.022 181.556L204.007 170.598L187.571 176.62C184.546 177.728 182.991 181.082 184.099 184.106L196.142 216.98C197.25 220.004 200.604 221.56 203.628 220.452L247.46 204.394C250.484 203.286 252.04 199.932 250.932 196.908L238.888 164.034C237.78 161.01 234.427 159.454 231.402 160.562Z" fill="#1152AF"/>
<path d="M297.15 136.476L280.713 142.498L284.728 153.456C285.836 156.48 284.28 159.834 281.256 160.942C278.231 162.05 274.878 160.494 273.77 157.47L269.755 146.512L253.318 152.534C250.294 153.642 248.739 156.995 249.847 160.02L261.89 192.894C262.998 195.918 266.351 197.473 269.376 196.365L313.208 180.308C316.232 179.2 317.787 175.846 316.679 172.822L304.636 139.948C303.528 136.924 300.174 135.368 297.15 136.476Z" fill="#1152AF"/>
<path d="M329.923 205.383L308.007 213.412C305.738 214.243 303.223 213.076 302.392 210.808L299.883 203.959L283.446 209.981L285.955 216.829C286.786 219.098 285.62 221.613 283.351 222.444L253.217 233.483C250.949 234.314 248.433 233.148 247.602 230.88L245.093 224.031L228.657 230.052L231.166 236.901C231.996 239.169 230.83 241.685 228.562 242.516L206.646 250.544C204.378 251.375 201.862 250.209 201.031 247.941L194.508 230.134L326.003 181.962L332.526 199.768C333.357 202.036 332.191 204.552 329.923 205.383Z" fill="#4C90F1"/>
<path d="M242.027 88.4397L225.591 94.4612L229.605 105.419C230.713 108.444 229.158 111.797 226.133 112.905C223.109 114.013 219.755 112.458 218.647 109.434L214.633 98.4756L198.196 104.497C195.171 105.605 193.616 108.959 194.724 111.983L206.767 144.857C207.875 147.882 211.229 149.437 214.253 148.329L258.085 132.271C261.109 131.163 262.665 127.81 261.557 124.785L249.514 91.9115C248.406 88.8871 245.052 87.3317 242.027 88.4397Z" fill="#4C90F1"/>
<path d="M229.226 155.273L212.789 161.294L216.803 172.252C217.911 175.276 216.356 178.63 213.331 179.738C210.307 180.846 206.953 179.291 205.845 176.266L201.831 165.308L185.394 171.33C182.369 172.438 180.814 175.792 181.922 178.816L193.965 211.69C195.073 214.714 198.427 216.27 201.451 215.162L245.283 199.104C248.307 197.996 249.863 194.643 248.755 191.618L236.712 158.744C235.604 155.72 232.25 154.165 229.226 155.273Z" fill="#4C90F1"/>
<path d="M294.973 131.186L278.536 137.208L282.551 148.166C283.659 151.19 282.103 154.544 279.079 155.652C276.055 156.76 272.701 155.205 271.593 152.18L267.578 141.222L251.142 147.244C248.117 148.352 246.562 151.706 247.67 154.73L259.713 187.604C260.821 190.628 264.175 192.183 267.199 191.076L311.031 175.018C314.055 173.91 315.611 170.556 314.503 167.532L302.459 134.658C301.352 131.634 297.998 130.078 294.973 131.186Z" fill="#4C90F1"/>
</g>
<defs>
<filter id="filter0_ddd" x="318.98" y="70.0288" width="212.544" height="222.425" filterUnits="userSpaceOnUse" color-interpolation-filters="sRGB">
<feFlood flood-opacity="0" result="BackgroundImageFix"/>
<feColorMatrix in="SourceAlpha" type="matrix" values="0 0 0 0 0 0 0 0 0 0 0 0 0 0 0 0 0 0 127 0"/>
<feOffset dy="6.18624"/>
<feGaussianBlur stdDeviation="2.4745"/>
<feColorMatrix type="matrix" values="0 0 0 0 0 0 0 0 0 0 0 0 0 0 0 0 0 0 0.3 0"/>
<feBlend mode="normal" in2="BackgroundImageFix" result="effect1_dropShadow"/>
<feColorMatrix in="SourceAlpha" type="matrix" values="0 0 0 0 0 0 0 0 0 0 0 0 0 0 0 0 0 0 127 0"/>
<feOffset dy="20.6401"/>
<feGaussianBlur stdDeviation="8.25605"/>
<feColorMatrix type="matrix" values="0 0 0 0 0 0 0 0 0 0 0 0 0 0 0 0 0 0 0.15 0"/>
<feBlend mode="normal" in2="effect1_dropShadow" result="effect2_dropShadow"/>
<feColorMatrix in="SourceAlpha" type="matrix" values="0 0 0 0 0 0 0 0 0 0 0 0 0 0 0 0 0 0 127 0"/>
<feOffset dy="49.4047"/>
<feGaussianBlur stdDeviation="19.7619"/>
<feColorMatrix type="matrix" values="0 0 0 0 0 0 0 0 0 0 0 0 0 0 0 0 0 0 0.15 0"/>
<feBlend mode="normal" in2="effect2_dropShadow" result="effect3_dropShadow"/>
<feBlend mode="normal" in="SourceGraphic" in2="effect3_dropShadow" result="shape"/>
</filter>
<filter id="filter1_ddd" x="0.819717" y="-36.8181" width="219.474" height="189.65" filterUnits="userSpaceOnUse" color-interpolation-filters="sRGB">
<feFlood flood-opacity="0" result="BackgroundImageFix"/>
<feColorMatrix in="SourceAlpha" type="matrix" values="0 0 0 0 0 0 0 0 0 0 0 0 0 0 0 0 0 0 127 0"/>
<feOffset dy="6.18624"/>
<feGaussianBlur stdDeviation="2.4745"/>
<feColorMatrix type="matrix" values="0 0 0 0 0 0 0 0 0 0 0 0 0 0 0 0 0 0 0.3 0"/>
<feBlend mode="normal" in2="BackgroundImageFix" result="effect1_dropShadow"/>
<feColorMatrix in="SourceAlpha" type="matrix" values="0 0 0 0 0 0 0 0 0 0 0 0 0 0 0 0 0 0 127 0"/>
<feOffset dy="20.6401"/>
<feGaussianBlur stdDeviation="8.25605"/>
<feColorMatrix type="matrix" values="0 0 0 0 0 0 0 0 0 0 0 0 0 0 0 0 0 0 0.15 0"/>
<feBlend mode="normal" in2="effect1_dropShadow" result="effect2_dropShadow"/>
<feColorMatrix in="SourceAlpha" type="matrix" values="0 0 0 0 0 0 0 0 0 0 0 0 0 0 0 0 0 0 127 0"/>
<feOffset dy="49.4047"/>
<feGaussianBlur stdDeviation="19.7619"/>
<feColorMatrix type="matrix" values="0 0 0 0 0 0 0 0 0 0 0 0 0 0 0 0 0 0 0.15 0"/>
<feBlend mode="normal" in2="effect2_dropShadow" result="effect3_dropShadow"/>
<feBlend mode="normal" in="SourceGraphic" in2="effect3_dropShadow" result="shape"/>
</filter>
<filter id="filter2_ddd" x="176.594" y="335.464" width="177.423" height="187.304" filterUnits="userSpaceOnUse" color-interpolation-filters="sRGB">
<feFlood flood-opacity="0" result="BackgroundImageFix"/>
<feColorMatrix in="SourceAlpha" type="matrix" values="0 0 0 0 0 0 0 0 0 0 0 0 0 0 0 0 0 0 127 0"/>
<feOffset dy="6.18624"/>
<feGaussianBlur stdDeviation="2.4745"/>
<feColorMatrix type="matrix" values="0 0 0 0 0 0 0 0 0 0 0 0 0 0 0 0 0 0 0.3 0"/>
<feBlend mode="normal" in2="BackgroundImageFix" result="effect1_dropShadow"/>
<feColorMatrix in="SourceAlpha" type="matrix" values="0 0 0 0 0 0 0 0 0 0 0 0 0 0 0 0 0 0 127 0"/>
<feOffset dy="20.6401"/>
<feGaussianBlur stdDeviation="8.25605"/>
<feColorMatrix type="matrix" values="0 0 0 0 0 0 0 0 0 0 0 0 0 0 0 0 0 0 0.15 0"/>
<feBlend mode="normal" in2="effect1_dropShadow" result="effect2_dropShadow"/>
<feColorMatrix in="SourceAlpha" type="matrix" values="0 0 0 0 0 0 0 0 0 0 0 0 0 0 0 0 0 0 127 0"/>
<feOffset dy="49.4047"/>
<feGaussianBlur stdDeviation="19.7619"/>
<feColorMatrix type="matrix" values="0 0 0 0 0 0 0 0 0 0 0 0 0 0 0 0 0 0 0.15 0"/>
<feBlend mode="normal" in2="effect2_dropShadow" result="effect3_dropShadow"/>
<feBlend mode="normal" in="SourceGraphic" in2="effect3_dropShadow" result="shape"/>
</filter>
<filter id="filter3_ddd" x="247.531" y="476.149" width="147.013" height="156.894" filterUnits="userSpaceOnUse" color-interpolation-filters="sRGB">
<feFlood flood-opacity="0" result="BackgroundImageFix"/>
<feColorMatrix in="SourceAlpha" type="matrix" values="0 0 0 0 0 0 0 0 0 0 0 0 0 0 0 0 0 0 127 0"/>
<feOffset dy="6.18624"/>
<feGaussianBlur stdDeviation="2.4745"/>
<feColorMatrix type="matrix" values="0 0 0 0 0 0 0 0 0 0 0 0 0 0 0 0 0 0 0.3 0"/>
<feBlend mode="normal" in2="BackgroundImageFix" result="effect1_dropShadow"/>
<feColorMatrix in="SourceAlpha" type="matrix" values="0 0 0 0 0 0 0 0 0 0 0 0 0 0 0 0 0 0 127 0"/>
<feOffset dy="20.6401"/>
<feGaussianBlur stdDeviation="8.25605"/>
<feColorMatrix type="matrix" values="0 0 0 0 0 0 0 0 0 0 0 0 0 0 0 0 0 0 0.15 0"/>
<feBlend mode="normal" in2="effect1_dropShadow" result="effect2_dropShadow"/>
<feColorMatrix in="SourceAlpha" type="matrix" values="0 0 0 0 0 0 0 0 0 0 0 0 0 0 0 0 0 0 127 0"/>
<feOffset dy="49.4047"/>
<feGaussianBlur stdDeviation="19.7619"/>
<feColorMatrix type="matrix" values="0 0 0 0 0 0 0 0 0 0 0 0 0 0 0 0 0 0 0.15 0"/>
<feBlend mode="normal" in2="effect2_dropShadow" result="effect3_dropShadow"/>
<feBlend mode="normal" in="SourceGraphic" in2="effect3_dropShadow" result="shape"/>
</filter>
<filter id="filter4_ddd" x="290.129" y="-38.3388" width="188.825" height="193.191" filterUnits="userSpaceOnUse" color-interpolation-filters="sRGB">
<feFlood flood-opacity="0" result="BackgroundImageFix"/>
<feColorMatrix in="SourceAlpha" type="matrix" values="0 0 0 0 0 0 0 0 0 0 0 0 0 0 0 0 0 0 127 0"/>
<feOffset dy="6.18624"/>
<feGaussianBlur stdDeviation="2.4745"/>
<feColorMatrix type="matrix" values="0 0 0 0 0 0 0 0 0 0 0 0 0 0 0 0 0 0 0.3 0"/>
<feBlend mode="normal" in2="BackgroundImageFix" result="effect1_dropShadow"/>
<feColorMatrix in="SourceAlpha" type="matrix" values="0 0 0 0 0 0 0 0 0 0 0 0 0 0 0 0 0 0 127 0"/>
<feOffset dy="20.6401"/>
<feGaussianBlur stdDeviation="8.25605"/>
<feColorMatrix type="matrix" values="0 0 0 0 0 0 0 0 0 0 0 0 0 0 0 0 0 0 0.15 0"/>
<feBlend mode="normal" in2="effect1_dropShadow" result="effect2_dropShadow"/>
<feColorMatrix in="SourceAlpha" type="matrix" values="0 0 0 0 0 0 0 0 0 0 0 0 0 0 0 0 0 0 127 0"/>
<feOffset dy="49.4047"/>
<feGaussianBlur stdDeviation="19.7619"/>
<feColorMatrix type="matrix" values="0 0 0 0 0 0 0 0 0 0 0 0 0 0 0 0 0 0 0.15 0"/>
<feBlend mode="normal" in2="effect2_dropShadow" result="effect3_dropShadow"/>
<feBlend mode="normal" in="SourceGraphic" in2="effect3_dropShadow" result="shape"/>
</filter>
<filter id="filter5_ddd" x="58.5031" y="461.562" width="235.518" height="254.493" filterUnits="userSpaceOnUse" color-interpolation-filters="sRGB">
<feFlood flood-opacity="0" result="BackgroundImageFix"/>
<feColorMatrix in="SourceAlpha" type="matrix" values="0 0 0 0 0 0 0 0 0 0 0 0 0 0 0 0 0 0 127 0"/>
<feOffset dy="6.18624"/>
<feGaussianBlur stdDeviation="2.4745"/>
<feColorMatrix type="matrix" values="0 0 0 0 0 0 0 0 0 0 0 0 0 0 0 0 0 0 0.3 0"/>
<feBlend mode="normal" in2="BackgroundImageFix" result="effect1_dropShadow"/>
<feColorMatrix in="SourceAlpha" type="matrix" values="0 0 0 0 0 0 0 0 0 0 0 0 0 0 0 0 0 0 127 0"/>
<feOffset dy="20.6401"/>
<feGaussianBlur stdDeviation="8.25605"/>
<feColorMatrix type="matrix" values="0 0 0 0 0 0 0 0 0 0 0 0 0 0 0 0 0 0 0.15 0"/>
<feBlend mode="normal" in2="effect1_dropShadow" result="effect2_dropShadow"/>
<feColorMatrix in="SourceAlpha" type="matrix" values="0 0 0 0 0 0 0 0 0 0 0 0 0 0 0 0 0 0 127 0"/>
<feOffset dy="49.4047"/>
<feGaussianBlur stdDeviation="19.7619"/>
<feColorMatrix type="matrix" values="0 0 0 0 0 0 0 0 0 0 0 0 0 0 0 0 0 0 0.15 0"/>
<feBlend mode="normal" in2="effect2_dropShadow" result="effect3_dropShadow"/>
<feBlend mode="normal" in="SourceGraphic" in2="effect3_dropShadow" result="shape"/>
</filter>
<filter id="filter6_ddd" x="336.618" y="232.199" width="243.531" height="253.412" filterUnits="userSpaceOnUse" color-interpolation-filters="sRGB">
<feFlood flood-opacity="0" result="BackgroundImageFix"/>
<feColorMatrix in="SourceAlpha" type="matrix" values="0 0 0 0 0 0 0 0 0 0 0 0 0 0 0 0 0 0 127 0"/>
<feOffset dy="6.18624"/>
<feGaussianBlur stdDeviation="2.4745"/>
<feColorMatrix type="matrix" values="0 0 0 0 0 0 0 0 0 0 0 0 0 0 0 0 0 0 0.3 0"/>
<feBlend mode="normal" in2="BackgroundImageFix" result="effect1_dropShadow"/>
<feColorMatrix in="SourceAlpha" type="matrix" values="0 0 0 0 0 0 0 0 0 0 0 0 0 0 0 0 0 0 127 0"/>
<feOffset dy="20.6401"/>
<feGaussianBlur stdDeviation="8.25605"/>
<feColorMatrix type="matrix" values="0 0 0 0 0 0 0 0 0 0 0 0 0 0 0 0 0 0 0.15 0"/>
<feBlend mode="normal" in2="effect1_dropShadow" result="effect2_dropShadow"/>
<feColorMatrix in="SourceAlpha" type="matrix" values="0 0 0 0 0 0 0 0 0 0 0 0 0 0 0 0 0 0 127 0"/>
<feOffset dy="49.4047"/>
<feGaussianBlur stdDeviation="19.7619"/>
<feColorMatrix type="matrix" values="0 0 0 0 0 0 0 0 0 0 0 0 0 0 0 0 0 0 0.15 0"/>
<feBlend mode="normal" in2="effect2_dropShadow" result="effect3_dropShadow"/>
<feBlend mode="normal" in="SourceGraphic" in2="effect3_dropShadow" result="shape"/>
</filter>
<filter id="filter7_ddd" x="336.048" y="391.705" width="251.638" height="261.519" filterUnits="userSpaceOnUse" color-interpolation-filters="sRGB">
<feFlood flood-opacity="0" result="BackgroundImageFix"/>
<feColorMatrix in="SourceAlpha" type="matrix" values="0 0 0 0 0 0 0 0 0 0 0 0 0 0 0 0 0 0 127 0"/>
<feOffset dy="6.18624"/>
<feGaussianBlur stdDeviation="2.4745"/>
<feColorMatrix type="matrix" values="0 0 0 0 0 0 0 0 0 0 0 0 0 0 0 0 0 0 0.3 0"/>
<feBlend mode="normal" in2="BackgroundImageFix" result="effect1_dropShadow"/>
<feColorMatrix in="SourceAlpha" type="matrix" values="0 0 0 0 0 0 0 0 0 0 0 0 0 0 0 0 0 0 127 0"/>
<feOffset dy="20.6401"/>
<feGaussianBlur stdDeviation="8.25605"/>
<feColorMatrix type="matrix" values="0 0 0 0 0 0 0 0 0 0 0 0 0 0 0 0 0 0 0.15 0"/>
<feBlend mode="normal" in2="effect1_dropShadow" result="effect2_dropShadow"/>
<feColorMatrix in="SourceAlpha" type="matrix" values="0 0 0 0 0 0 0 0 0 0 0 0 0 0 0 0 0 0 127 0"/>
<feOffset dy="49.4047"/>
<feGaussianBlur stdDeviation="19.7619"/>
<feColorMatrix type="matrix" values="0 0 0 0 0 0 0 0 0 0 0 0 0 0 0 0 0 0 0.15 0"/>
<feBlend mode="normal" in2="effect2_dropShadow" result="effect3_dropShadow"/>
<feBlend mode="normal" in="SourceGraphic" in2="effect3_dropShadow" result="shape"/>
</filter>
<filter id="filter8_ddd" x="140.391" y="86.4325" width="235.341" height="259.836" filterUnits="userSpaceOnUse" color-interpolation-filters="sRGB">
<feFlood flood-opacity="0" result="BackgroundImageFix"/>
<feColorMatrix in="SourceAlpha" type="matrix" values="0 0 0 0 0 0 0 0 0 0 0 0 0 0 0 0 0 0 127 0"/>
<feOffset dy="6.18624"/>
<feGaussianBlur stdDeviation="2.4745"/>
<feColorMatrix type="matrix" values="0 0 0 0 0 0 0 0 0 0 0 0 0 0 0 0 0 0 0.3 0"/>
<feBlend mode="normal" in2="BackgroundImageFix" result="effect1_dropShadow"/>
<feColorMatrix in="SourceAlpha" type="matrix" values="0 0 0 0 0 0 0 0 0 0 0 0 0 0 0 0 0 0 127 0"/>
<feOffset dy="20.6401"/>
<feGaussianBlur stdDeviation="8.25605"/>
<feColorMatrix type="matrix" values="0 0 0 0 0 0 0 0 0 0 0 0 0 0 0 0 0 0 0.15 0"/>
<feBlend mode="normal" in2="effect1_dropShadow" result="effect2_dropShadow"/>
<feColorMatrix in="SourceAlpha" type="matrix" values="0 0 0 0 0 0 0 0 0 0 0 0 0 0 0 0 0 0 127 0"/>
<feOffset dy="49.4047"/>
<feGaussianBlur stdDeviation="19.7619"/>
<feColorMatrix type="matrix" values="0 0 0 0 0 0 0 0 0 0 0 0 0 0 0 0 0 0 0.15 0"/>
<feBlend mode="normal" in2="effect2_dropShadow" result="effect3_dropShadow"/>
<feBlend mode="normal" in="SourceGraphic" in2="effect3_dropShadow" result="shape"/>
</filter>
<linearGradient id="paint0_linear" x1="509.957" y1="86.7353" x2="407.046" y2="203.83" gradientUnits="userSpaceOnUse">
<stop stop-color="#8BBBFF"/>
<stop offset="0.369792" stop-color="#8BBBFF" stop-opacity="0"/>
</linearGradient>
<linearGradient id="paint1_linear" x1="226.489" y1="-6.65069" x2="183.453" y2="96.2383" gradientUnits="userSpaceOnUse">
<stop stop-color="#8BBBFF"/>
<stop offset="0.369792" stop-color="#8BBBFF" stop-opacity="0"/>
</linearGradient>
<linearGradient id="paint2_linear" x1="337.659" y1="330.654" x2="261.822" y2="416.943" gradientUnits="userSpaceOnUse">
<stop stop-color="#8BBBFF"/>
<stop offset="0.369792" stop-color="#8BBBFF" stop-opacity="0"/>
</linearGradient>
<linearGradient id="paint3_linear" x1="371.025" y1="472.826" x2="318.631" y2="532.441" gradientUnits="userSpaceOnUse">
<stop stop-color="#8BBBFF"/>
<stop offset="0.369792" stop-color="#8BBBFF" stop-opacity="0"/>
</linearGradient>
<linearGradient id="paint4_linear" x1="512.55" y1="24.627" x2="357.631" y2="-59.7182" gradientUnits="userSpaceOnUse">
<stop stop-color="#8BBBFF"/>
<stop offset="0.369792" stop-color="#8BBBFF" stop-opacity="0"/>
</linearGradient>
<linearGradient id="paint5_linear" x1="269.884" y1="412.081" x2="196.189" y2="602.19" gradientUnits="userSpaceOnUse">
<stop stop-color="#8BBBFF"/>
<stop offset="0.369792" stop-color="#8BBBFF" stop-opacity="0"/>
</linearGradient>
<linearGradient id="paint6_linear" x1="552.006" y1="182.176" x2="478.311" y2="372.285" gradientUnits="userSpaceOnUse">
<stop stop-color="#8BBBFF"/>
<stop offset="0.369792" stop-color="#8BBBFF" stop-opacity="0"/>
</linearGradient>
<linearGradient id="paint7_linear" x1="555.489" y1="345.736" x2="481.794" y2="535.845" gradientUnits="userSpaceOnUse">
<stop stop-color="#8BBBFF"/>
<stop offset="0.369792" stop-color="#8BBBFF" stop-opacity="0"/>
</linearGradient>
</defs>
</svg>
