<svg width="140" height="32" viewBox="0 0 140 32" fill="none" xmlns="http://www.w3.org/2000/svg">
<g clip-path="url(#clip0)">
<path fill-rule="evenodd" clip-rule="evenodd" d="M16.8294 0.836254C13.682 0.500877 10.5091 1.15985 7.74697 2.72259C4.98482 4.28532 2.76894 6.67512 1.40392 9.56348C0.0388925 12.4518 -0.40827 15.697 0.123892 18.8529C0.656055 22.0087 2.14142 24.9204 4.37582 27.1877C6.61022 29.455 9.48396 30.9665 12.6021 31.5146C15.7201 32.0627 18.9295 31.6204 21.789 30.2485C24.6485 28.8766 27.0178 26.6425 28.5712 23.8532C30.1246 21.0639 30.7858 17.8564 30.464 14.6715C30.1099 11.1313 28.5607 7.8227 26.0773 5.30274C23.5939 2.78278 20.3279 1.20542 16.8294 0.836254ZM16.333 24.4478C14.6402 24.6775 12.9188 24.3649 11.4108 23.5539C9.90272 22.7428 8.6838 21.4742 7.92532 19.9262C7.16684 18.3782 6.90694 16.6287 7.18214 14.9236C7.45734 13.2184 8.25381 11.6434 9.45961 10.4198C10.6654 9.19623 12.2199 8.38562 13.9047 8.1019C15.5894 7.81818 17.3197 8.07561 18.8523 8.83803C20.385 9.60044 21.6429 10.8295 22.4494 12.3525C23.2558 13.8754 23.5703 15.6158 23.3485 17.3288C23.1157 19.1307 22.3022 20.8047 21.034 22.0916C19.7658 23.3786 18.1135 24.2067 16.333 24.4478ZM38.6575 1.4493C38.1261 1.45059 37.6018 1.57168 37.1226 1.80376C36.6434 2.03585 36.2213 2.37309 35.8872 2.79094C35.553 3.20879 35.3151 3.69675 35.1909 4.21931C35.0666 4.74186 35.0591 5.28587 35.1688 5.81174C35.5049 7.5154 37.078 8.67945 38.7917 8.67945H48.7364L33.2602 29.3972C33.1457 29.5502 33.0756 29.7324 33.0578 29.9233C33.0399 30.1143 33.075 30.3065 33.1591 30.4785C33.2432 30.6504 33.373 30.7953 33.5339 30.8968C33.6948 30.9983 33.8805 31.0524 34.0701 31.0532H58.3461C60.0586 31.0532 61.6328 29.8894 61.9689 28.1855C62.0787 27.6597 62.0712 27.1158 61.9471 26.5933C61.8229 26.0708 61.5852 25.5828 61.2512 25.1649C60.9172 24.7471 60.4953 24.4097 60.0162 24.1775C59.5372 23.9453 59.013 23.824 58.4817 23.8224H46.3649L61.8292 3.12077C61.9448 2.96633 62.0155 2.78238 62.0335 2.58953C62.0515 2.39669 62.016 2.20259 61.931 2.02902C61.8461 1.85544 61.7149 1.70925 61.5524 1.60685C61.3899 1.50445 61.2023 1.4499 61.0109 1.4493H38.6575ZM135.663 1.5327C134.859 1.72602 134.144 2.19102 133.637 2.85081C133.13 3.51059 132.861 4.32566 132.874 5.16124V17.1992L113.591 1.67667C113.44 1.55525 113.258 1.47947 113.066 1.45806C112.874 1.43665 112.68 1.47048 112.507 1.55565C112.333 1.64082 112.186 1.77387 112.084 1.93951C111.982 2.10514 111.928 2.29662 111.928 2.49192V27.3477C111.915 28.1833 112.185 28.9984 112.692 29.6582C113.199 30.318 113.913 30.783 114.717 30.9762C115.239 31.0924 115.78 31.0886 116.3 30.965C116.82 30.8414 117.306 30.6013 117.723 30.2623C118.139 29.9233 118.475 29.4941 118.705 29.0064C118.935 28.5187 119.055 27.9848 119.054 27.4443V15.3021L138.337 30.8249C138.488 30.9463 138.67 31.022 138.862 31.0434C139.054 31.0648 139.248 31.031 139.421 30.9458C139.595 30.8607 139.741 30.7277 139.844 30.5622C139.946 30.3966 140 30.2052 139.999 30.01V5.0635C140 4.52306 139.881 3.98938 139.65 3.50182C139.42 3.01425 139.084 2.58522 138.668 2.24638C138.251 1.90753 137.765 1.6675 137.245 1.54398C136.725 1.42046 136.184 1.41661 135.663 1.5327ZM85.4554 7.9874C93.6115 7.9874 99.7057 12.3475 99.7057 16.2476C99.7057 20.1477 93.6115 24.5078 85.4554 24.5078C77.2993 24.5078 71.2052 20.1477 71.2052 16.2476C71.2052 12.3475 77.2993 7.9874 85.4554 7.9874ZM85.4554 0.757538C73.6499 0.757538 64.0798 7.69273 64.0798 16.2476C64.0798 24.8024 73.6499 31.7376 85.4554 31.7376C97.261 31.7376 106.831 24.8024 106.831 16.2476C106.831 7.69273 97.2607 0.757538 85.4554 0.757538Z" fill="white"/>
</g>
<defs>
<clipPath id="clip0">
<rect width="140" height="31" fill="white" transform="translate(0 0.751709)"/>
</clipPath>
</defs>
</svg>
