<svg width="234" height="62" viewBox="0 0 234 62" fill="none" xmlns="http://www.w3.org/2000/svg">
<g clip-path="url(#clip0)">
<path d="M7.73186 43.5933L0.620117 17.8544H5.2852L10.7494 37.6232L16.6056 17.8527L20.9542 17.8544L26.8309 37.7283L32.3197 17.8592L36.9846 17.8527L29.8699 43.5888L24.4625 43.5833L18.7817 24.3618L13.0955 43.5883L7.73186 43.5933Z" fill="white"/>
<path d="M40.2019 17.8677H44.6426V43.5766H40.2019V17.8677Z" fill="white"/>
<path d="M54.1369 39.5438H64.9478V43.5766H49.7881V17.8677H54.1369V39.5438Z" fill="white"/>
<path d="M78.6073 17.8973C82.2517 17.8973 85.2837 19.1428 87.6725 21.6039C90.0919 24.0651 91.317 27.1194 91.317 30.737C91.317 34.325 90.0919 37.3792 87.6725 39.87C85.2837 42.3312 82.2517 43.5766 78.6073 43.5766H68.1638V17.8677H78.6073V17.8973ZM78.6073 39.5735C81.1185 39.5735 83.1705 38.7432 84.7018 37.0827C86.2943 35.4221 87.0906 33.2871 87.0906 30.7666C87.0906 28.1869 86.2943 26.1112 84.7018 24.4506C83.1399 22.79 81.0879 21.9597 78.6073 21.9597H72.5433V39.5735H78.6073Z" fill="white"/>
<path d="M114.745 36.2323C114.745 38.3387 113.98 40.0891 112.418 41.4835C110.856 42.878 109.019 43.5899 106.753 43.5899H95.3901V17.8677H105.925C108.1 17.8677 109.937 18.5798 111.438 19.9148C112.97 21.2795 113.705 22.9706 113.705 24.988C113.705 27.2428 112.785 28.9636 111.01 30.2393C113.337 31.4261 114.745 33.5621 114.745 36.2323ZM99.7694 21.8433V28.6076H105.956C107.886 28.6076 109.355 27.1241 109.355 25.2254C109.355 23.3266 107.886 21.8433 105.956 21.8433H99.7694ZM106.783 39.6145C108.804 39.6145 110.397 38.042 110.397 36.0246C110.397 34.0071 108.804 32.4348 106.783 32.4348H99.7694V39.6441H106.783V39.6145Z" fill="white"/>
<path d="M123.228 39.5551H134.989V43.5899H118.88V17.8677H134.806V21.9025H123.228V28.5778H133.856V32.5831H123.228V39.5551Z" fill="white"/>
<path d="M154.039 43.5899L148.403 34.2148H143.258V43.5899H138.909V17.8677H149.536C151.925 17.8677 153.947 18.6687 155.57 20.3004C157.223 21.8729 158.081 23.831 158.081 26.1451C158.081 29.4086 155.968 32.405 152.814 33.5918L158.846 43.5899H154.039ZM143.258 21.8432V30.4469H149.506C151.833 30.4469 153.671 28.5482 153.671 26.1451C153.671 23.7716 151.803 21.8432 149.506 21.8432H143.258Z" fill="white"/>
<path d="M177.284 43.5899L171.679 34.2099H166.534V43.5899H162.185V17.8542H172.812C175.201 17.8542 177.223 18.6557 178.846 20.2883C180.499 21.8616 181.357 23.8206 181.357 26.1359C181.357 29.4012 179.244 32.3992 176.09 33.5865L182.122 43.5899H177.284ZM166.534 21.8318V30.4401H172.782C175.109 30.4401 176.947 28.5403 176.947 26.1359C176.947 23.7613 175.079 21.8318 172.782 21.8318H166.534Z" fill="white"/>
<path d="M185.308 17.8572H189.657V43.5899H185.308V17.8572Z" fill="white"/>
<path d="M199.151 39.5551H210.911V43.5899H194.801V17.8677H210.727V21.9025H199.151V28.5778H209.777V32.5831H199.151V39.5551Z" fill="white"/>
<path d="M213.943 37.7351L217.71 35.6001C218.782 38.5061 220.957 39.9294 224.294 39.9294C227.602 39.9294 229.225 38.5654 229.225 36.549C229.225 35.4815 228.766 34.7105 227.909 34.1768C227.051 33.6134 225.458 32.9906 223.192 32.3383C220.65 31.597 219.395 31.1225 217.618 29.9957C215.903 28.8097 215.045 27.1194 215.045 24.8065C215.045 22.5232 215.872 20.7441 217.557 19.4097C219.211 18.0456 221.232 17.3933 223.591 17.3933C227.848 17.3933 231.124 19.5283 232.84 23.057L229.164 25.103C228.061 22.7308 226.193 21.515 223.591 21.515C221.048 21.515 219.425 22.7605 219.425 24.7175C219.425 26.6154 220.711 27.5049 224.785 28.7206C225.795 29.0469 226.53 29.2841 226.989 29.462C227.48 29.6103 228.122 29.8772 228.95 30.2033C229.808 30.5295 230.482 30.915 230.88 31.2412C232.288 32.3087 233.788 34.0581 233.605 36.5194C233.605 38.8322 232.747 40.7004 231.002 42.0644C229.286 43.4285 227.02 44.0808 224.203 44.0808C219.058 44.0512 215.321 41.6789 213.943 37.7351Z" fill="white"/>
</g>
<defs>
<clipPath id="clip0">
<rect width="233" height="61" fill="white" transform="translate(0.498779 0.237061)"/>
</clipPath>
</defs>
</svg>
