<svg width="222" height="45" viewBox="0 0 222 45" fill="none" xmlns="http://www.w3.org/2000/svg">
<path d="M14.6897 3.32843H12.1548C11.3723 3.32843 10.6166 3.48825 9.88446 3.80946C9.15076 4.13067 8.49893 4.64274 7.93212 5.34877C7.36217 6.05481 6.90872 6.95946 6.56234 8.06739C6.22225 9.17222 6.05221 10.4943 6.05221 12.0336C6.05221 13.5388 6.24114 14.8158 6.61429 15.857C6.98902 16.8998 7.48497 17.7579 8.10374 18.4329C8.72251 19.1048 9.42157 19.5936 10.2025 19.8977C10.9819 20.2034 11.7959 20.3555 12.6429 20.3555H14.6897V3.32688V3.32843ZM4.92804 37.2414H0.488037L8.39502 22.8569C6.08527 21.7676 4.43365 20.3167 3.44174 18.5043C2.44982 16.6934 1.95229 14.5365 1.95229 12.0336C1.95229 10.1095 2.2294 8.41187 2.78204 6.93619C3.3331 5.46205 4.08412 4.22067 5.02723 3.20894C5.97191 2.19722 7.06931 1.43688 8.32102 0.923255C9.57587 0.411186 10.9 0.155151 12.3013 0.155151H18.5488V37.2414H14.6897V23.4838H12.1548L4.92804 37.2414Z" fill="#FF0000"/>
<path fill-rule="evenodd" clip-rule="evenodd" d="M57.1532 42.0517H53.6894V37.1948H42.9042V42.0517H39.4373V34.0665H40.9488C41.7313 32.6234 42.3406 31.0686 42.7814 29.4005C43.2223 27.7324 43.5529 26.0488 43.7812 24.3496C44.0095 22.6505 44.1465 20.9669 44.1969 19.2988C44.2473 17.6307 44.2709 16.0433 44.2709 14.535V12.4215H55.204V34.0681H57.1563V42.0517H57.1532ZM74.0425 36.0869C73.2285 36.5369 72.3263 36.9279 71.3344 37.2662C70.3425 37.6029 69.2246 37.7705 67.9902 37.7705C65.4522 37.7705 63.418 36.7308 61.8892 34.6453C60.3619 32.5614 59.5952 29.627 59.5952 25.8424C59.5952 24.0145 59.7526 22.2579 60.0597 20.5758C60.3698 18.8891 60.8406 17.3995 61.4767 16.1007C62.1112 14.8003 62.9157 13.7576 63.8919 12.9739C64.8681 12.1888 66.0379 11.7946 67.403 11.7946C69.4214 11.7946 71.0494 12.7908 72.2838 14.7786C73.5214 16.7648 74.1417 19.7007 74.1417 23.5815V25.6981H63.6463C63.6463 28.3919 64.1092 30.4929 65.0365 31.9981C65.9655 33.5064 67.4203 34.2605 69.4057 34.2605C70.1536 34.2605 70.9266 34.1565 71.7233 33.9502C72.5216 33.7391 73.1482 33.5389 73.6032 33.345L74.0441 36.0884L74.0425 36.0869ZM67.2565 14.8748C66.7055 14.8748 66.2174 15.0657 65.7923 15.4489C65.3703 15.8369 65.0129 16.3722 64.7216 17.0627C64.4272 17.7517 64.1989 18.5617 64.0368 19.4912C63.8746 20.4222 63.7597 21.4308 63.6951 22.5233H70.1378V21.9957C70.1378 21.8343 70.13 21.6574 70.1142 21.465C70.0985 21.2726 70.089 21.0646 70.089 20.8396C69.9583 18.9465 69.6482 17.4786 69.1601 16.4358C68.672 15.3962 68.0391 14.8733 67.2581 14.8733L67.2565 14.8748ZM51.3465 15.4986V34.0665H44.3685C45.0172 33.0083 45.5541 31.7576 45.9776 30.3145C46.4027 28.8714 46.7428 27.3398 47.001 25.7214C47.2624 24.1014 47.4419 22.4503 47.5395 20.7652C47.6371 19.0815 47.6859 17.4864 47.6859 15.9796V15.4986H51.3465ZM37.1921 12.42V37.1948H33.3346V25.3598H27.5768V37.1933H23.6721V12.4184H27.5768V22.1834H33.3362V12.42H37.1937H37.1921ZM92.6889 37.1948H88.3434L82.34 24.975L81.8991 24.4474V37.1933H77.9944V12.4184H81.8991V23.6746L82.34 23.1936L87.6617 12.4184H91.8088L85.6605 23.5784L92.6889 37.1917V37.1948ZM97.7146 24.8788C97.7146 27.796 98.1712 30.0895 99.0813 31.7576C99.9945 33.4257 101.391 34.2589 103.279 34.2589C103.995 34.2589 104.727 34.155 105.475 33.9486C106.225 33.7376 106.829 33.5374 107.283 33.3434L107.673 36.0869C106.925 36.5369 106.088 36.9279 105.16 37.2662C104.231 37.6029 103.183 37.7705 102.011 37.7705C99.5079 37.7705 97.48 36.7464 95.9339 34.6934C94.3909 32.6405 93.6163 29.6907 93.6163 25.8424C93.6163 23.7258 93.8367 21.8017 94.2776 20.07C94.7153 18.3383 95.3088 16.8626 96.0567 15.6445C96.8046 14.4279 97.7005 13.4814 98.7412 12.8079C99.7803 12.1345 100.904 11.7993 102.111 11.7993C103.181 11.7993 104.151 11.942 105.014 12.2307C105.875 12.5193 106.648 12.9041 107.331 13.3852L105.329 16.7058C104.872 16.1907 104.36 15.7593 103.791 15.4055C103.224 15.0533 102.646 14.8779 102.059 14.8779C101.377 14.8779 100.758 15.165 100.205 15.7422C99.6544 16.3195 99.1978 17.0736 98.8388 18.0031C98.4814 18.9341 98.2043 19.9986 98.0091 21.2027C97.8138 22.4053 97.7162 23.6312 97.7162 24.8803L97.7146 24.8788ZM124.528 31.4395H126.427L131.638 12.3408C132.025 10.9008 132.367 9.50894 132.803 7.58946H133C132.902 9.31808 132.805 11.0452 132.805 12.6791V36.72H135.141V2.40515H132.414L126.477 24.3372C126.231 25.2015 125.841 27.0248 125.647 28.3205H125.501C125.354 27.0264 125.013 25.2512 124.77 24.3388L118.879 2.40515H116.054V36.7184H118.195V12.6776C118.195 10.9474 118.148 9.22032 118.05 7.58791H118.197C118.49 9.17067 118.88 10.7069 119.367 12.4836L124.525 31.4379L124.528 31.4395ZM145.465 35.3762C147.754 35.3762 149.362 33.2193 150.236 30.6248V23.9555H147.606C143.566 23.9555 141.619 25.7788 141.619 30.001C141.619 33.4086 143.13 35.3762 145.465 35.3762ZM150.919 36.72C150.724 36.0962 150.481 35.1838 150.337 33.4567C149.167 35.761 147.413 37.201 144.979 37.201C141.669 37.201 139.38 34.6096 139.38 30.1934C139.38 25.0107 142.253 22.3231 147.561 22.3231H150.237V19.3003C150.237 15.6041 148.827 14.0198 146.148 14.0198C144.054 14.0198 142.156 14.9819 140.987 16.6608L140.354 14.5008C141.327 13.2533 143.373 12.0522 146.148 12.0522C150.19 12.0522 152.478 14.2603 152.478 19.0598V32.2572C152.478 33.9362 152.723 35.8107 153.013 36.72H150.919ZM164.554 35.3762C167.671 35.3762 169.715 31.7296 169.715 24.0983C169.715 17.7626 167.963 14.0183 165.138 14.0183C162.946 14.0183 161.096 16.3226 160.026 18.9139V32.445C160.999 34.4157 162.362 35.3731 164.554 35.3731V35.3762ZM164.408 37.1529C162.559 37.1529 160.952 36.2405 160.027 35.0426V44.2071H157.738V12.5317H159.735L159.93 16.515C161 14.2107 162.803 12.0507 165.529 12.0507C169.619 12.0507 172.006 16.8983 172.006 23.9058C172.006 32.7817 168.986 37.1514 164.409 37.1514L164.408 37.1529ZM178.677 24.196L187.198 36.7184H189.733L181.062 23.7615L189.146 12.5333H186.907L178.677 23.9074V12.5333H176.388V36.72H178.675V24.1914L178.677 24.196ZM204.095 32.6405L204.826 34.4653C204.826 34.4653 202.977 37.201 199.082 37.201C193.871 37.201 191.485 32.5458 191.485 24.6258C191.485 16.7058 194.503 12.0507 198.643 12.0507C202.878 12.0507 205.607 16.4188 204.827 25.0076H193.727C193.822 31.6334 195.577 35.2334 199.132 35.2334C202.392 35.2334 204.097 32.6421 204.098 32.6389L204.095 32.6405ZM198.641 13.9267C196.059 13.9267 193.965 17.1884 193.773 23.237H202.684C203.075 16.8036 201.126 13.9267 198.643 13.9267H198.641ZM221.041 14.4046V12.5317H207.406V14.4031H213.106V36.7169H215.392V14.4046H221.041Z" fill="#070707"/>
</svg>
