<svg width="70" height="36" viewBox="0 0 70 36" fill="none" xmlns="http://www.w3.org/2000/svg">
<path d="M2.42261 28.8941H2.94019V29.8562C3.28885 29.2953 3.77506 28.7666 4.73656 28.7666C5.67724 28.7666 6.25859 29.3061 6.55428 29.9302C6.90307 29.3275 7.48455 28.7666 8.49863 28.7666C9.77717 28.7666 10.5699 29.6656 10.5699 31.019V34.2866H10.052V31.0829C10.052 29.9193 9.44972 29.2426 8.45646 29.2426C7.54754 29.2426 6.75484 29.9406 6.75484 31.1461V34.2866H6.23725V31.0507C6.23725 29.9302 5.62415 29.2426 4.66264 29.2426C3.70114 29.2426 2.94019 30.0886 2.94019 31.1778V34.2866H2.42261V28.8941Z" fill="#AAAAAA"/>
<path d="M16.1816 32.2674V31.6538C15.7271 31.5381 15.1248 31.4106 14.353 31.4106C13.2119 31.4106 12.5778 31.9189 12.5778 32.6904C12.5778 33.4728 13.3175 33.9276 14.142 33.9276C15.2404 33.9276 16.1816 33.2509 16.1816 32.2674ZM12.0281 32.7008C12.0281 31.5799 12.9896 30.9454 14.3846 30.9454C15.1347 30.9454 15.6532 31.0407 16.1707 31.1782V30.9454C16.1707 29.8566 15.5049 29.2957 14.3951 29.2957C13.7401 29.2957 13.2009 29.4758 12.7048 29.7295L12.5143 29.2748C13.1057 28.9997 13.6875 28.8096 14.4269 28.8096C15.1561 28.8096 15.737 29.0103 16.128 29.4019C16.4872 29.7613 16.6777 30.2583 16.6777 30.9245V34.287H16.1707V33.3884C15.8011 33.9062 15.1347 34.4141 14.1099 34.4141C13.1057 34.4141 12.0281 33.8432 12.0281 32.7008Z" fill="#AAAAAA"/>
<path d="M18.5376 28.8941H19.0552V29.8979C19.4144 29.264 20.0171 28.7666 20.9999 28.7666C22.3628 28.7666 23.1555 29.6974 23.1555 30.9877V34.2866H22.6375V31.0829C22.6375 29.9719 22.0144 29.2426 20.926 29.2426C19.8687 29.2426 19.0552 30.0464 19.0552 31.1669V34.2866H18.5376V28.8941Z" fill="#AAAAAA"/>
<path d="M28.7245 32.2674V31.6538C28.2701 31.5381 27.6678 31.4106 26.8963 31.4106C25.7548 31.4106 25.1213 31.9189 25.1213 32.6904C25.1213 33.4728 25.8605 33.9276 26.6849 33.9276C27.7839 33.9276 28.7245 33.2509 28.7245 32.2674ZM24.5715 32.7008C24.5715 31.5799 25.533 30.9454 26.9277 30.9454C27.6778 30.9454 28.1962 31.0407 28.7136 31.1782V30.9454C28.7136 29.8566 28.0483 29.2957 26.9381 29.2957C26.2832 29.2957 25.7444 29.4758 25.2478 29.7295L25.0572 29.2748C25.6491 28.9997 26.2306 28.8096 26.9702 28.8096C27.699 28.8096 28.2801 29.0103 28.6715 29.4019C29.0307 29.7613 29.2212 30.2583 29.2212 30.9245V34.287H28.7136V33.3884C28.344 33.9062 27.6778 34.4141 26.6528 34.4141C25.6491 34.4141 24.5715 33.8432 24.5715 32.7008Z" fill="#AAAAAA"/>
<path d="M35.6036 31.3154C35.6036 30.0672 34.4939 29.264 33.3736 29.264C32.2429 29.264 31.2918 30.0464 31.2918 31.3258C31.2918 32.542 32.2642 33.388 33.3736 33.388C34.4939 33.388 35.6036 32.563 35.6036 31.3154ZM30.9749 35.1748L31.2814 34.7523C31.9259 35.2488 32.6656 35.5134 33.4579 35.5134C34.6947 35.5134 35.5715 34.8049 35.5715 33.4198V32.637C35.1066 33.3031 34.3882 33.885 33.321 33.885C32.0207 33.885 30.7322 32.891 30.7322 31.3258C30.7322 29.7713 32.0207 28.7666 33.321 28.7666C34.399 28.7666 35.1278 29.3379 35.5715 29.9719V28.8941H36.0893V33.4516C36.0893 34.234 35.8358 34.8475 35.4023 35.2809C34.9378 35.7461 34.2403 35.9998 33.4475 35.9998C32.549 35.9998 31.7145 35.7249 30.9749 35.1748Z" fill="#AAAAAA"/>
<path d="M42.1551 31.3362C42.0812 30.2475 41.458 29.2426 40.2212 29.2426C39.1541 29.2426 38.33 30.1412 38.2351 31.3362H42.1551ZM37.6855 31.5795C37.6855 30.0146 38.784 28.7666 40.2425 28.7666C41.7537 28.7666 42.7152 29.9933 42.7152 31.5904C42.7152 31.6856 42.7152 31.717 42.7048 31.8018H38.2351C38.33 33.1447 39.2914 33.9272 40.3482 33.9272C41.1832 33.9272 41.7537 33.5573 42.1977 33.0812L42.5568 33.3984C42.0072 33.9907 41.3628 34.4137 40.3273 34.4137C38.9114 34.4137 37.6855 33.2819 37.6855 31.5795Z" fill="#AAAAAA"/>
<path d="M44.2263 28.8941H44.7443V29.8562C45.0931 29.2953 45.5793 28.7666 46.5407 28.7666C47.4813 28.7666 48.0628 29.3061 48.3585 29.9302C48.7068 29.3275 49.2886 28.7666 50.3027 28.7666C51.5813 28.7666 52.3736 29.6656 52.3736 31.019V34.2866H51.8561V31.0829C51.8561 29.9193 51.2538 29.2426 50.2606 29.2426C49.3518 29.2426 48.5589 29.9406 48.5589 31.1461V34.2866H48.0415V31.0507C48.0415 29.9302 47.4282 29.2426 46.4667 29.2426C45.5054 29.2426 44.7443 30.0886 44.7443 31.1778V34.2866H44.2263V28.8941Z" fill="#AAAAAA"/>
<path d="M58.3759 31.3362C58.302 30.2475 57.6789 29.2426 56.4421 29.2426C55.3749 29.2426 54.5505 30.1412 54.4556 31.3362H58.3759ZM53.906 31.5795C53.906 30.0146 55.0048 28.7666 56.4635 28.7666C57.9746 28.7666 58.9361 29.9933 58.9361 31.5904C58.9361 31.6856 58.9361 31.717 58.9257 31.8018H54.4556C54.5505 33.1447 55.5119 33.9272 56.5686 33.9272C57.4036 33.9272 57.9746 33.5573 58.4181 33.0812L58.7773 33.3984C58.2281 33.9907 57.5836 34.4137 56.5478 34.4137C55.1318 34.4137 53.906 33.2819 53.906 31.5795Z" fill="#AAAAAA"/>
<path d="M60.4473 28.8941H60.9651V29.8979C61.3243 29.264 61.9266 28.7666 62.9095 28.7666C64.2728 28.7666 65.0652 29.6974 65.0652 30.9877V34.2866H64.5472V31.0829C64.5472 29.9719 63.9241 29.2426 62.8355 29.2426C61.7788 29.2426 60.9651 30.0464 60.9651 31.1669V34.2866H60.4473V28.8941Z" fill="#AAAAAA"/>
<path d="M67.2098 32.9015V29.3694H66.4285V28.8942H67.2098V27.1704H67.7278V28.8942H69.6195V29.3694H67.7278V32.8485C67.7278 33.6204 68.1823 33.8955 68.8059 33.8955C69.0699 33.8955 69.2916 33.8429 69.5982 33.7053V34.1914C69.3234 34.319 69.0594 34.382 68.7211 34.382C67.8861 34.382 67.2098 33.9272 67.2098 32.9015Z" fill="#AAAAAA"/>
<path d="M46.5625 8.3304C46.5625 5.49256 44.5053 4.46235 42.6031 4.46235H39.3617V18.3416H42.6031C44.443 18.3416 46.5625 17.3132 46.5625 14.4436V8.3304ZM43.2272 22.1167H35.123V0.626465H43.2589C47.1851 0.626465 50.8955 2.90198 50.8955 7.51889V15.2228C50.8955 19.7454 47.1548 22.1167 43.2272 22.1167Z" fill="#AAAAAA"/>
<path d="M61.8323 22.3339C58.7474 22.3339 56.0665 21.5547 53.4795 19.4034L55.8796 16.2207C57.6879 17.6244 59.8072 18.4359 61.7398 18.4359C64.4831 18.4359 65.4805 17.1565 65.4805 16.0659C65.4805 14.1621 63.4536 13.6637 60.4935 12.8832C57.1577 12.0108 54.2278 10.6072 54.2278 6.80163C54.2278 3.05837 57.126 0.439236 61.5211 0.40746C64.1081 0.375684 66.789 0.781053 69.1895 2.37178L67.3192 5.92799C65.3861 4.71124 63.6101 4.33777 61.864 4.33777C60.2122 4.33777 58.4984 4.9922 58.4984 6.70772C58.4984 8.4545 60.3053 9.01682 63.2668 9.67125C67.7241 10.6375 69.9999 12.7279 69.9999 16.0336C69.9999 20.1827 66.4779 22.3339 61.8323 22.3339Z" fill="#AAAAAA"/>
<path d="M27.6912 1.30908H28.5294V22.1172H27.6912V1.30908Z" fill="#AAAAAA"/>
<path d="M18.5051 11.713C16.9495 11.1325 15.5526 10.2499 14.3929 9.13977C13.2332 8.02967 12.3112 6.69225 11.7049 5.20264V5.20315C11.0985 6.69225 10.1764 8.02967 9.0168 9.13977C7.85706 10.2499 6.46025 11.1325 4.90454 11.713C6.46025 12.2934 7.85706 13.1762 9.0168 14.2867C10.1764 15.3968 11.0985 16.7338 11.7049 18.2233C12.3112 16.7338 13.2332 15.3968 14.3929 14.2867C15.5526 13.1762 16.9495 12.2934 18.5051 11.713Z" fill="#AAAAAA"/>
<path d="M0.0212402 13.165C0.669698 18.529 4.91437 22.7769 10.2751 23.4255C9.62662 18.0611 5.38195 13.8136 0.0212402 13.165Z" fill="#AAAAAA"/>
<path d="M13.1343 0C13.7829 5.36448 18.0275 9.61191 23.3883 10.2609C22.7397 4.89659 18.4951 0.649027 13.1343 0Z" fill="#AAAAAA"/>
<path d="M10.2535 0.0209961C4.89315 0.670024 0.648073 4.91745 0 10.2819C5.36072 9.63291 9.6054 5.38548 10.2535 0.0209961Z" fill="#AAAAAA"/>
<path d="M23.4095 13.1431C18.0487 13.7921 13.8041 18.0395 13.1555 23.4039C18.5164 22.7554 22.7614 18.5074 23.4095 13.1431Z" fill="#AAAAAA"/>
</svg>
