<svg width="70" height="37" viewBox="0 0 70 37" fill="none" xmlns="http://www.w3.org/2000/svg">
<path d="M2.42261 29.3907H2.94019V30.3528C3.28885 29.7919 3.77506 29.2632 4.73656 29.2632C5.67724 29.2632 6.25859 29.8027 6.55428 30.4268C6.90307 29.8241 7.48455 29.2632 8.49863 29.2632C9.77717 29.2632 10.5699 30.1622 10.5699 31.5155V34.7832H10.052V31.5795C10.052 30.4159 9.44972 29.7392 8.45646 29.7392C7.54754 29.7392 6.75484 30.4372 6.75484 31.6426V34.7832H6.23725V31.5473C6.23725 30.4268 5.62415 29.7392 4.66264 29.7392C3.70114 29.7392 2.94019 30.5852 2.94019 31.6744V34.7832H2.42261V29.3907Z" fill="#4D4C4E"/>
<path d="M16.1816 32.7635V32.1499C15.7271 32.0342 15.1248 31.9067 14.353 31.9067C13.2119 31.9067 12.5778 32.4149 12.5778 33.1864C12.5778 33.9689 13.3175 34.4237 14.142 34.4237C15.2404 34.4237 16.1816 33.747 16.1816 32.7635ZM12.0281 33.1969C12.0281 32.076 12.9896 31.4415 14.3846 31.4415C15.1347 31.4415 15.6532 31.5368 16.1707 31.6743V31.4415C16.1707 30.3527 15.5049 29.7918 14.3951 29.7918C13.7401 29.7918 13.2009 29.9719 12.7048 30.2256L12.5143 29.7709C13.1057 29.4958 13.6875 29.3057 14.4269 29.3057C15.1561 29.3057 15.737 29.5064 16.128 29.898C16.4872 30.2574 16.6777 30.7544 16.6777 31.4206V34.7831H16.1707V33.8845C15.8011 34.4023 15.1347 34.9102 14.1099 34.9102C13.1057 34.9102 12.0281 34.3393 12.0281 33.1969Z" fill="#4D4C4E"/>
<path d="M18.5376 29.3907H19.0552V30.3945C19.4144 29.7605 20.0171 29.2632 20.9999 29.2632C22.3628 29.2632 23.1555 30.1939 23.1555 31.4843V34.7832H22.6375V31.5795C22.6375 30.4685 22.0144 29.7392 20.926 29.7392C19.8687 29.7392 19.0552 30.543 19.0552 31.6635V34.7832H18.5376V29.3907Z" fill="#4D4C4E"/>
<path d="M28.7245 32.7635V32.1499C28.2701 32.0342 27.6678 31.9067 26.8963 31.9067C25.7548 31.9067 25.1213 32.4149 25.1213 33.1864C25.1213 33.9689 25.8605 34.4237 26.6849 34.4237C27.7839 34.4237 28.7245 33.747 28.7245 32.7635ZM24.5715 33.1969C24.5715 32.076 25.533 31.4415 26.9277 31.4415C27.6778 31.4415 28.1962 31.5368 28.7136 31.6743V31.4415C28.7136 30.3527 28.0483 29.7918 26.9381 29.7918C26.2832 29.7918 25.7444 29.9719 25.2478 30.2256L25.0572 29.7709C25.6491 29.4958 26.2306 29.3057 26.9702 29.3057C27.699 29.3057 28.2801 29.5064 28.6715 29.898C29.0307 30.2574 29.2212 30.7544 29.2212 31.4206V34.7831H28.7136V33.8845C28.344 34.4023 27.6778 34.9102 26.6528 34.9102C25.6491 34.9102 24.5715 34.3393 24.5715 33.1969Z" fill="#4D4C4E"/>
<path d="M35.6036 31.8119C35.6036 30.5638 34.4939 29.7605 33.3736 29.7605C32.2429 29.7605 31.2918 30.543 31.2918 31.8224C31.2918 33.0386 32.2642 33.8846 33.3736 33.8846C34.4939 33.8846 35.6036 33.0596 35.6036 31.8119ZM30.9749 35.6714L31.2814 35.2489C31.9259 35.7454 32.6656 36.01 33.4579 36.01C34.6947 36.01 35.5715 35.3015 35.5715 33.9164V33.1335C35.1066 33.7997 34.3882 34.3816 33.321 34.3816C32.0207 34.3816 30.7322 33.3876 30.7322 31.8224C30.7322 30.2679 32.0207 29.2632 33.321 29.2632C34.399 29.2632 35.1278 29.8345 35.5715 30.4685V29.3907H36.0893V33.9481C36.0893 34.7306 35.8358 35.3441 35.4023 35.7775C34.9378 36.2427 34.2403 36.4964 33.4475 36.4964C32.549 36.4964 31.7145 36.2215 30.9749 35.6714Z" fill="#4D4C4E"/>
<path d="M42.1551 31.8328C42.0812 30.744 41.458 29.7392 40.2212 29.7392C39.1541 29.7392 38.33 30.6378 38.2351 31.8328H42.1551ZM37.6855 32.0761C37.6855 30.5112 38.784 29.2632 40.2425 29.2632C41.7537 29.2632 42.7152 30.4898 42.7152 32.087C42.7152 32.1822 42.7152 32.2136 42.7048 32.2984H38.2351C38.33 33.6413 39.2914 34.4238 40.3482 34.4238C41.1832 34.4238 41.7537 34.0539 42.1977 33.5778L42.5568 33.895C42.0072 34.4873 41.3628 34.9103 40.3273 34.9103C38.9114 34.9103 37.6855 33.7785 37.6855 32.0761Z" fill="#4D4C4E"/>
<path d="M44.2263 29.3907H44.7443V30.3528C45.0931 29.7919 45.5793 29.2632 46.5407 29.2632C47.4813 29.2632 48.0628 29.8027 48.3585 30.4268C48.7068 29.8241 49.2886 29.2632 50.3027 29.2632C51.5813 29.2632 52.3736 30.1622 52.3736 31.5155V34.7832H51.8561V31.5795C51.8561 30.4159 51.2538 29.7392 50.2606 29.7392C49.3518 29.7392 48.5589 30.4372 48.5589 31.6426V34.7832H48.0415V31.5473C48.0415 30.4268 47.4282 29.7392 46.4667 29.7392C45.5054 29.7392 44.7443 30.5852 44.7443 31.6744V34.7832H44.2263V29.3907Z" fill="#4D4C4E"/>
<path d="M58.3759 31.8328C58.302 30.744 57.6789 29.7392 56.4421 29.7392C55.3749 29.7392 54.5505 30.6378 54.4556 31.8328H58.3759ZM53.906 32.0761C53.906 30.5112 55.0048 29.2632 56.4635 29.2632C57.9746 29.2632 58.9361 30.4898 58.9361 32.087C58.9361 32.1822 58.9361 32.2136 58.9257 32.2984H54.4556C54.5505 33.6413 55.5119 34.4238 56.5686 34.4238C57.4036 34.4238 57.9746 34.0539 58.4181 33.5778L58.7773 33.895C58.2281 34.4873 57.5836 34.9103 56.5478 34.9103C55.1318 34.9103 53.906 33.7785 53.906 32.0761Z" fill="#4D4C4E"/>
<path d="M60.4473 29.3907H60.9651V30.3945C61.3243 29.7605 61.9266 29.2632 62.9095 29.2632C64.2728 29.2632 65.0652 30.1939 65.0652 31.4843V34.7832H64.5472V31.5795C64.5472 30.4685 63.9241 29.7392 62.8355 29.7392C61.7788 29.7392 60.9651 30.543 60.9651 31.6635V34.7832H60.4473V29.3907Z" fill="#4D4C4E"/>
<path d="M67.2098 33.3979V29.8657H66.4285V29.3905H67.2098V27.6667H67.7278V29.3905H69.6195V29.8657H67.7278V33.3449C67.7278 34.1168 68.1823 34.3918 68.8059 34.3918C69.0699 34.3918 69.2916 34.3392 69.5982 34.2017V34.6877C69.3234 34.8153 69.0594 34.8784 68.7211 34.8784C67.8861 34.8784 67.2098 34.4236 67.2098 33.3979Z" fill="#4D4C4E"/>
<path d="M46.5625 8.82674C46.5625 5.9889 44.5053 4.95869 42.6031 4.95869H39.3617V18.838H42.6031C44.443 18.838 46.5625 17.8096 46.5625 14.9399V8.82674ZM43.2272 22.613H35.123V1.1228H43.2589C47.1851 1.1228 50.8955 3.39832 50.8955 8.01523V15.7192C50.8955 20.2418 47.1548 22.613 43.2272 22.613Z" fill="#4D4C4E"/>
<path d="M61.8323 22.8302C58.7474 22.8302 56.0665 22.051 53.4795 19.8998L55.8796 16.717C57.6879 18.1207 59.8072 18.9322 61.7398 18.9322C64.4831 18.9322 65.4805 17.6528 65.4805 16.5623C65.4805 14.6584 63.4536 14.16 60.4935 13.3795C57.1577 12.5072 54.2278 11.1035 54.2278 7.29797C54.2278 3.55471 57.126 0.935574 61.5211 0.903798C64.1081 0.872022 66.789 1.27739 69.1895 2.86812L67.3192 6.42433C65.3861 5.20758 63.6101 4.83411 61.864 4.83411C60.2122 4.83411 58.4984 5.48854 58.4984 7.20406C58.4984 8.95084 60.3053 9.51316 63.2668 10.1676C67.7241 11.1339 69.9999 13.2243 69.9999 16.53C69.9999 20.679 66.4779 22.8302 61.8323 22.8302Z" fill="#4D4C4E"/>
<path d="M27.6912 1.80542H28.5294V22.6135H27.6912V1.80542Z" fill="#4D4C4E"/>
<path d="M18.5051 12.2091C16.9495 11.6286 15.5526 10.746 14.3929 9.63586C13.2332 8.52576 12.3112 7.18834 11.7049 5.69873V5.69925C11.0985 7.18834 10.1764 8.52576 9.0168 9.63586C7.85706 10.746 6.46025 11.6286 4.90454 12.2091C6.46025 12.7895 7.85706 13.6723 9.0168 14.7828C10.1764 15.8929 11.0985 17.2299 11.7049 18.7194C12.3112 17.2299 13.2332 15.8929 14.3929 14.7828C15.5526 13.6723 16.9495 12.7895 18.5051 12.2091Z" fill="#B3CC1F"/>
<path d="M0.0212402 13.6614C0.669698 19.0253 4.91437 23.2733 10.2751 23.9218C9.62662 18.5574 5.38195 14.3099 0.0212402 13.6614Z" fill="#B3CC1F"/>
<path d="M13.1343 0.496338C13.7829 5.86082 18.0275 10.1082 23.3883 10.7573C22.7397 5.39292 18.4951 1.14537 13.1343 0.496338Z" fill="#ECE425"/>
<path d="M10.2535 0.51709C4.89315 1.16612 0.648073 5.41355 0 10.778C5.36072 10.129 9.6054 5.88157 10.2535 0.51709Z" fill="#B3CC1F"/>
<path d="M23.4095 13.6396C18.0487 14.2887 13.8041 18.5361 13.1555 23.9005C18.5164 23.2519 22.7614 19.004 23.4095 13.6396Z" fill="#B3CC1F"/>
</svg>
