<svg width="60" height="60" viewBox="0 0 60 60" fill="none" xmlns="http://www.w3.org/2000/svg">
<path fill-rule="evenodd" clip-rule="evenodd" d="M42 1H18C8.61116 1 1 8.61116 1 18V42C1 51.3888 8.61116 59 18 59H42C51.3888 59 59 51.3888 59 42V18C59 8.61116 51.3888 1 42 1ZM18 0C8.05888 0 0 8.05888 0 18V42C0 51.9411 8.05888 60 18 60H42C51.9411 60 60 51.9411 60 42V18C60 8.05888 51.9411 0 42 0H18Z" fill="#C9C1DA"/>
<path d="M27.021 36.5833V37.3957C27.021 37.8442 26.657 38.2082 26.2085 38.2082C25.76 38.2082 25.396 37.8442 25.396 37.3957V36.5833H23.5002C23.2012 36.5833 22.9585 36.8259 22.9585 37.1249V41.4582C22.9585 41.7572 23.2012 41.9999 23.5002 41.9999H28.9168C29.2158 41.9999 29.4585 41.7572 29.4585 41.4582V37.1249C29.4585 36.8259 29.2158 36.5833 28.9168 36.5833H27.021Z" fill="#8E67E8"/>
<path d="M34.604 36.5833V37.3957C34.604 37.8442 34.24 38.2082 33.7915 38.2082C33.343 38.2082 32.979 37.8442 32.979 37.3957V36.5833H31.0832C30.7842 36.5833 30.5415 36.8259 30.5415 37.1249V41.4582C30.5415 41.7572 30.7842 41.9999 31.0832 41.9999H36.4998C36.7988 41.9999 37.0415 41.7572 37.0415 41.4582V37.1249C37.0415 36.8259 36.7988 36.5833 36.4998 36.5833H34.604Z" fill="#8E67E8"/>
<path d="M30.8125 30.0833V30.8958C30.8125 31.3442 30.4485 31.7082 30 31.7082C29.5515 31.7082 29.1875 31.3442 29.1875 30.8958V30.0833H27.2917C26.9927 30.0833 26.75 30.3259 26.75 30.6249V34.9582C26.75 35.2572 26.9927 35.4999 27.2917 35.4999H32.7083C33.0073 35.4999 33.25 35.2572 33.25 34.9582V30.6249C33.25 30.3259 33.0073 30.0833 32.7083 30.0833H30.8125Z" fill="#8E67E8"/>
<path d="M30 16C22.8283 16 17 21.8283 17 29V40.1042C17 41.1442 17.8558 42 18.8958 42H21.3333V28.7292C21.3333 28.285 21.7017 27.9167 22.1458 27.9167H37.8542C38.2983 27.9167 38.6667 28.285 38.6667 28.7292V42H41.1042C42.1442 42 43 41.1442 43 40.1042V29C43 21.8283 37.1717 16 30 16Z" fill="#8E67E8"/>
</svg>
