<svg width="448" height="562" viewBox="0 0 448 562" fill="none" xmlns="http://www.w3.org/2000/svg">
<g filter="url(#filter0_ddd)">
<rect x="194.491" y="176.043" width="104.051" height="104.051" rx="14.2825" transform="rotate(-20.1227 194.491 176.043)" fill="#7C1D73"/>
</g>
<g filter="url(#filter1_ddd)">
<rect x="186.841" y="525.33" width="127.349" height="60.6086" rx="14.2825" transform="rotate(-20.1227 186.841 525.33)" fill="#7C1D73"/>
</g>
<g filter="url(#filter2_ddd)">
<circle cx="146.013" cy="262.675" r="38.3382" transform="rotate(-20.1227 146.013 262.675)" fill="#7C1D73"/>
</g>
<g filter="url(#filter3_ddd)">
<circle cx="2.19489" cy="339.529" r="26.4871" transform="rotate(-20.1227 2.19489 339.529)" fill="#7C1D73"/>
</g>
<g filter="url(#filter4_ddd)">
<path d="M338.712 391.309C344.337 396.008 352.94 392.856 354.197 385.635L366.03 317.68C367.287 310.459 360.256 304.585 353.373 307.106L288.606 330.837C281.724 333.358 280.152 342.385 285.777 347.084L338.712 391.309Z" fill="#7C1D73"/>
</g>
<g filter="url(#filter5_ddd)">
<path d="M9.31959 417.334C11.5006 414.724 14.9087 413.475 18.26 414.058L74.4654 423.845C77.8167 424.428 80.6022 426.755 81.7725 429.95L101.4 483.518C102.57 486.712 101.948 490.288 99.7665 492.899L63.1885 536.681C61.0074 539.291 57.5994 540.54 54.248 539.956L-1.95733 530.17C-5.30866 529.586 -8.09411 527.259 -9.26442 524.065L-28.8918 470.497C-30.0621 467.303 -29.4395 463.727 -27.2584 461.116L9.31959 417.334Z" fill="#7C1D73"/>
</g>
<g filter="url(#filter6_ddd)">
<path d="M12.3221 137.587C14.5342 132.816 20.195 130.742 24.9657 132.954L94.9913 165.425C99.7621 167.638 101.836 173.298 99.6239 178.069L67.1528 248.095C64.9406 252.865 59.2799 254.939 54.5091 252.727L-15.5165 220.256C-20.2872 218.044 -22.3613 212.383 -20.1491 207.612L12.3221 137.587Z" fill="#7C1D73"/>
</g>
<g filter="url(#filter7_ddd)">
<path d="M77.394 -14.3243C79.2522 -16.0343 81.7136 -16.9361 84.2367 -16.8314L128.391 -14.9983C130.914 -14.8936 133.292 -13.7908 135.002 -11.9326L164.927 20.5851C166.637 22.4433 167.539 24.9047 167.434 27.4278L165.601 71.5817C165.497 74.1048 164.394 76.483 162.536 78.193L130.018 108.118C128.16 109.828 125.698 110.73 123.175 110.625L79.0213 108.792C76.4982 108.688 74.12 107.585 72.41 105.727L42.4846 73.209C40.7746 71.3508 39.8727 68.8894 39.9775 66.3663L41.8106 22.2124C41.9153 19.6893 43.0181 17.3111 44.8763 15.6011L77.394 -14.3243Z" fill="#7C1D73"/>
</g>
<g filter="url(#filter8_ddd)">
<path d="M67.688 337.241L69.1854 341.328L70.7296 339.217L67.688 337.241Z" fill="#7C1D73"/>
<path d="M151.251 447.23L152.748 451.317L154.292 449.206L151.251 447.23Z" fill="#7C1D73"/>
<path d="M213.31 423.91L215.193 428.28L216.963 426.786L213.31 423.91Z" fill="#7C1D73"/>
<path d="M188.604 438.585L186.969 434.123L185.929 435.795L188.604 438.585Z" fill="#7C1D73"/>
<path d="M252.175 416.417L249.475 409.815L249.698 412.757L252.175 416.417Z" fill="#7C1D73"/>
<path d="M226.987 403.843C216.961 407.516 211.659 418.636 215.397 428.837C219.07 438.863 230.19 444.165 240.391 440.427C250.416 436.754 255.719 425.634 251.981 415.433C248.132 405.472 237.012 400.17 226.987 403.843Z" fill="#7C1D73"/>
<path d="M188.318 437.792C184.422 428.247 173.496 423.472 163.822 427.017C153.814 431.282 149.169 442.56 153.194 452.457C157.09 462.001 167.84 466.84 177.514 463.296L177.866 463.167C187.698 458.966 192.519 447.624 188.318 437.792Z" fill="#7C1D73"/>
<path d="M226.79 304.306C226.438 304.435 225.846 304.452 225.318 304.645L114.51 345.245L108.434 334.105C104.543 326.753 95.7324 323.398 87.8175 326.298L73.5708 331.518C69.7013 332.935 67.6954 337.261 69.1132 341.131C70.5309 345 74.8569 347.006 78.7263 345.588L92.9731 340.368C93.8525 340.046 94.8138 340.492 95.3119 341.307L133.412 411.535C138.235 420.341 148.903 424.412 158.401 420.933L231.569 394.124C240.715 390.773 246.246 381.365 244.894 371.686L235.382 310.334C234.732 306.383 230.917 303.592 226.79 304.306Z" fill="#7C1D73"/>
<path d="M225.292 300.219C224.94 300.348 224.348 300.365 223.821 300.559L113.013 341.158L106.936 330.018C103.045 322.666 94.2351 319.311 86.3202 322.211L72.0735 327.431C68.204 328.848 66.1981 333.174 67.6158 337.044C69.0336 340.913 73.3595 342.919 77.229 341.502L91.4757 336.282C92.3552 335.959 93.3165 336.405 93.8146 337.22L131.915 407.448C136.737 416.255 147.406 420.326 156.904 416.846L230.072 390.037C239.218 386.686 244.749 377.278 243.397 367.599L233.885 306.248C233.235 302.296 229.419 299.505 225.292 300.219Z" fill="#9D2F93"/>
<path d="M225.292 300.219C224.94 300.348 224.348 300.365 223.821 300.559L113.013 341.158L106.936 330.018C103.045 322.666 94.2351 319.311 86.3202 322.211L72.0735 327.431C68.204 328.848 66.1981 333.174 67.6158 337.044C69.0336 340.913 73.3595 342.919 77.229 341.502L91.4757 336.282C92.3552 335.959 93.3165 336.405 93.8146 337.22L131.915 407.448C136.737 416.255 147.406 420.326 156.904 416.846L230.072 390.037C239.218 386.686 244.749 377.278 243.397 367.599L233.885 306.248C233.235 302.296 229.419 299.505 225.292 300.219Z" fill="url(#paint0_linear)"/>
<path d="M187.002 434.201C183.106 424.656 172.18 419.881 162.506 423.426C152.498 427.691 147.853 438.969 151.878 448.866C155.774 458.41 166.524 463.249 176.198 459.705L176.55 459.576C186.382 455.375 191.203 444.033 187.002 434.201Z" fill="#9D2F93"/>
<path d="M225.474 400.355C215.448 404.028 210.146 415.148 213.884 425.349C217.557 435.374 228.677 440.677 238.878 436.939C248.904 433.266 254.206 422.146 250.468 411.945C246.619 401.984 235.499 396.681 225.474 400.355Z" fill="#9D2F93"/>
<path d="M225.474 400.355C215.448 404.028 210.146 415.148 213.884 425.349C217.557 435.374 228.677 440.677 238.878 436.939C248.904 433.266 254.206 422.146 250.468 411.945C246.619 401.984 235.499 396.681 225.474 400.355Z" fill="url(#paint1_linear)"/>
</g>
<rect x="191.008" y="169.996" width="104.051" height="104.051" rx="14.2825" transform="rotate(-20.1227 191.008 169.996)" fill="#9D2F93"/>
<rect x="191.008" y="169.996" width="104.051" height="104.051" rx="14.2825" transform="rotate(-20.1227 191.008 169.996)" fill="url(#paint2_linear)"/>
<rect x="183.358" y="519.283" width="127.349" height="60.6086" rx="14.2825" transform="rotate(-20.1227 183.358 519.283)" fill="#9D2F93"/>
<rect x="183.358" y="519.283" width="127.349" height="60.6086" rx="14.2825" transform="rotate(-20.1227 183.358 519.283)" fill="url(#paint3_linear)"/>
<circle cx="142.53" cy="256.628" r="38.3382" transform="rotate(-20.1227 142.53 256.628)" fill="#9D2F93"/>
<circle cx="142.53" cy="256.628" r="38.3382" transform="rotate(-20.1227 142.53 256.628)" fill="url(#paint4_linear)"/>
<circle cx="-0.211607" cy="335.351" r="26.4871" transform="rotate(-20.1227 -0.211607 335.351)" fill="#9D2F93"/>
<circle cx="-0.211607" cy="335.351" r="26.4871" transform="rotate(-20.1227 -0.211607 335.351)" fill="url(#paint5_linear)"/>
<path d="M335.479 382.421C341.104 387.12 349.707 383.968 350.964 376.747L362.797 308.792C364.054 301.571 357.023 295.697 350.14 298.218L285.373 321.949C278.491 324.47 276.919 333.497 282.544 338.196L335.479 382.421Z" fill="#9D2F93"/>
<path d="M335.479 382.421C341.104 387.12 349.707 383.968 350.964 376.747L362.797 308.792C364.054 301.571 357.023 295.697 350.14 298.218L285.373 321.949C278.491 324.47 276.919 333.497 282.544 338.196L335.479 382.421Z" fill="url(#paint6_linear)"/>
<path d="M5.83644 411.287C8.01746 408.677 11.4255 407.428 14.7769 408.011L70.9822 417.798C74.3336 418.381 77.119 420.708 78.2893 423.903L97.9167 477.471C99.087 480.665 98.4644 484.241 96.2833 486.852L59.7053 530.634C57.5243 533.244 54.1162 534.493 50.7649 533.909L-5.44049 524.123C-8.79182 523.539 -11.5773 521.212 -12.7476 518.018L-32.3749 464.45C-33.5452 461.256 -32.9226 457.68 -30.7416 455.069L5.83644 411.287Z" fill="#9D2F93"/>
<path d="M5.83644 411.287C8.01746 408.677 11.4255 407.428 14.7769 408.011L70.9822 417.798C74.3336 418.381 77.119 420.708 78.2893 423.903L97.9167 477.471C99.087 480.665 98.4644 484.241 96.2833 486.852L59.7053 530.634C57.5243 533.244 54.1162 534.493 50.7649 533.909L-5.44049 524.123C-8.79182 523.539 -11.5773 521.212 -12.7476 518.018L-32.3749 464.45C-33.5452 461.256 -32.9226 457.68 -30.7416 455.069L5.83644 411.287Z" fill="url(#paint7_linear)"/>
<path d="M8.8389 131.54C11.0511 126.769 16.7118 124.695 21.4826 126.907L91.5082 159.378C96.2789 161.591 98.353 167.251 96.1408 172.022L63.6697 242.048C61.4575 246.818 55.7967 248.892 51.026 246.68L-18.9996 214.209C-23.7703 211.997 -25.8444 206.336 -23.6322 201.565L8.8389 131.54Z" fill="#9D2F93"/>
<path d="M8.8389 131.54C11.0511 126.769 16.7118 124.695 21.4826 126.907L91.5082 159.378C96.2789 161.591 98.353 167.251 96.1408 172.022L63.6697 242.048C61.4575 246.818 55.7967 248.892 51.026 246.68L-18.9996 214.209C-23.7703 211.997 -25.8444 206.336 -23.6322 201.565L8.8389 131.54Z" fill="url(#paint8_linear)"/>
<path d="M73.9108 -20.3713C75.769 -22.0813 78.2304 -22.9831 80.7535 -22.8784L124.907 -21.0453C127.431 -20.9406 129.809 -19.8378 131.519 -17.9796L161.444 14.5381C163.154 16.3963 164.056 18.8577 163.951 21.3808L162.118 65.5347C162.013 68.0578 160.911 70.436 159.052 72.146L126.535 102.071C124.677 103.781 122.215 104.683 119.692 104.578L75.5381 102.745C73.015 102.641 70.6369 101.538 68.9268 99.6797L39.0015 67.162C37.2914 65.3038 36.3896 62.8424 36.4943 60.3193L38.3274 16.1654C38.4322 13.6423 39.5349 11.2641 41.3931 9.55407L73.9108 -20.3713Z" fill="#9D2F93"/>
<path d="M73.9108 -20.3713C75.769 -22.0813 78.2304 -22.9831 80.7535 -22.8784L124.907 -21.0453C127.431 -20.9406 129.809 -19.8378 131.519 -17.9796L161.444 14.5381C163.154 16.3963 164.056 18.8577 163.951 21.3808L162.118 65.5347C162.013 68.0578 160.911 70.436 159.052 72.146L126.535 102.071C124.677 103.781 122.215 104.683 119.692 104.578L75.5381 102.745C73.015 102.641 70.6369 101.538 68.9268 99.6797L39.0015 67.162C37.2914 65.3038 36.3896 62.8424 36.4943 60.3193L38.3274 16.1654C38.4322 13.6423 39.5349 11.2641 41.3931 9.55407L73.9108 -20.3713Z" fill="url(#paint9_linear)"/>
<defs>
<filter id="filter0_ddd" x="159.005" y="144.284" width="204.468" height="214.349" filterUnits="userSpaceOnUse" color-interpolation-filters="sRGB">
<feFlood flood-opacity="0" result="BackgroundImageFix"/>
<feColorMatrix in="SourceAlpha" type="matrix" values="0 0 0 0 0 0 0 0 0 0 0 0 0 0 0 0 0 0 127 0"/>
<feOffset dy="6.18624"/>
<feGaussianBlur stdDeviation="2.4745"/>
<feColorMatrix type="matrix" values="0 0 0 0 0 0 0 0 0 0 0 0 0 0 0 0 0 0 0.3 0"/>
<feBlend mode="normal" in2="BackgroundImageFix" result="effect1_dropShadow"/>
<feColorMatrix in="SourceAlpha" type="matrix" values="0 0 0 0 0 0 0 0 0 0 0 0 0 0 0 0 0 0 127 0"/>
<feOffset dy="20.6401"/>
<feGaussianBlur stdDeviation="8.25605"/>
<feColorMatrix type="matrix" values="0 0 0 0 0 0 0 0 0 0 0 0 0 0 0 0 0 0 0.15 0"/>
<feBlend mode="normal" in2="effect1_dropShadow" result="effect2_dropShadow"/>
<feColorMatrix in="SourceAlpha" type="matrix" values="0 0 0 0 0 0 0 0 0 0 0 0 0 0 0 0 0 0 127 0"/>
<feOffset dy="49.4047"/>
<feGaussianBlur stdDeviation="19.7619"/>
<feColorMatrix type="matrix" values="0 0 0 0 0 0 0 0 0 0 0 0 0 0 0 0 0 0 0.15 0"/>
<feBlend mode="normal" in2="effect2_dropShadow" result="effect3_dropShadow"/>
<feBlend mode="normal" in="SourceGraphic" in2="effect3_dropShadow" result="shape"/>
</filter>
<filter id="filter1_ddd" x="151.355" y="485.556" width="211.398" height="181.574" filterUnits="userSpaceOnUse" color-interpolation-filters="sRGB">
<feFlood flood-opacity="0" result="BackgroundImageFix"/>
<feColorMatrix in="SourceAlpha" type="matrix" values="0 0 0 0 0 0 0 0 0 0 0 0 0 0 0 0 0 0 127 0"/>
<feOffset dy="6.18624"/>
<feGaussianBlur stdDeviation="2.4745"/>
<feColorMatrix type="matrix" values="0 0 0 0 0 0 0 0 0 0 0 0 0 0 0 0 0 0 0.3 0"/>
<feBlend mode="normal" in2="BackgroundImageFix" result="effect1_dropShadow"/>
<feColorMatrix in="SourceAlpha" type="matrix" values="0 0 0 0 0 0 0 0 0 0 0 0 0 0 0 0 0 0 127 0"/>
<feOffset dy="20.6401"/>
<feGaussianBlur stdDeviation="8.25605"/>
<feColorMatrix type="matrix" values="0 0 0 0 0 0 0 0 0 0 0 0 0 0 0 0 0 0 0.15 0"/>
<feBlend mode="normal" in2="effect1_dropShadow" result="effect2_dropShadow"/>
<feColorMatrix in="SourceAlpha" type="matrix" values="0 0 0 0 0 0 0 0 0 0 0 0 0 0 0 0 0 0 127 0"/>
<feOffset dy="49.4047"/>
<feGaussianBlur stdDeviation="19.7619"/>
<feColorMatrix type="matrix" values="0 0 0 0 0 0 0 0 0 0 0 0 0 0 0 0 0 0 0.15 0"/>
<feBlend mode="normal" in2="effect2_dropShadow" result="effect3_dropShadow"/>
<feBlend mode="normal" in="SourceGraphic" in2="effect3_dropShadow" result="shape"/>
</filter>
<filter id="filter2_ddd" x="68.1403" y="224.326" width="155.745" height="165.626" filterUnits="userSpaceOnUse" color-interpolation-filters="sRGB">
<feFlood flood-opacity="0" result="BackgroundImageFix"/>
<feColorMatrix in="SourceAlpha" type="matrix" values="0 0 0 0 0 0 0 0 0 0 0 0 0 0 0 0 0 0 127 0"/>
<feOffset dy="6.18624"/>
<feGaussianBlur stdDeviation="2.4745"/>
<feColorMatrix type="matrix" values="0 0 0 0 0 0 0 0 0 0 0 0 0 0 0 0 0 0 0.3 0"/>
<feBlend mode="normal" in2="BackgroundImageFix" result="effect1_dropShadow"/>
<feColorMatrix in="SourceAlpha" type="matrix" values="0 0 0 0 0 0 0 0 0 0 0 0 0 0 0 0 0 0 127 0"/>
<feOffset dy="20.6401"/>
<feGaussianBlur stdDeviation="8.25605"/>
<feColorMatrix type="matrix" values="0 0 0 0 0 0 0 0 0 0 0 0 0 0 0 0 0 0 0.15 0"/>
<feBlend mode="normal" in2="effect1_dropShadow" result="effect2_dropShadow"/>
<feColorMatrix in="SourceAlpha" type="matrix" values="0 0 0 0 0 0 0 0 0 0 0 0 0 0 0 0 0 0 127 0"/>
<feOffset dy="49.4047"/>
<feGaussianBlur stdDeviation="19.7619"/>
<feColorMatrix type="matrix" values="0 0 0 0 0 0 0 0 0 0 0 0 0 0 0 0 0 0 0.15 0"/>
<feBlend mode="normal" in2="effect2_dropShadow" result="effect3_dropShadow"/>
<feBlend mode="normal" in="SourceGraphic" in2="effect3_dropShadow" result="shape"/>
</filter>
<filter id="filter3_ddd" x="-63.8233" y="313.035" width="132.036" height="141.917" filterUnits="userSpaceOnUse" color-interpolation-filters="sRGB">
<feFlood flood-opacity="0" result="BackgroundImageFix"/>
<feColorMatrix in="SourceAlpha" type="matrix" values="0 0 0 0 0 0 0 0 0 0 0 0 0 0 0 0 0 0 127 0"/>
<feOffset dy="6.18624"/>
<feGaussianBlur stdDeviation="2.4745"/>
<feColorMatrix type="matrix" values="0 0 0 0 0 0 0 0 0 0 0 0 0 0 0 0 0 0 0.3 0"/>
<feBlend mode="normal" in2="BackgroundImageFix" result="effect1_dropShadow"/>
<feColorMatrix in="SourceAlpha" type="matrix" values="0 0 0 0 0 0 0 0 0 0 0 0 0 0 0 0 0 0 127 0"/>
<feOffset dy="20.6401"/>
<feGaussianBlur stdDeviation="8.25605"/>
<feColorMatrix type="matrix" values="0 0 0 0 0 0 0 0 0 0 0 0 0 0 0 0 0 0 0.15 0"/>
<feBlend mode="normal" in2="effect1_dropShadow" result="effect2_dropShadow"/>
<feColorMatrix in="SourceAlpha" type="matrix" values="0 0 0 0 0 0 0 0 0 0 0 0 0 0 0 0 0 0 127 0"/>
<feOffset dy="49.4047"/>
<feGaussianBlur stdDeviation="19.7619"/>
<feColorMatrix type="matrix" values="0 0 0 0 0 0 0 0 0 0 0 0 0 0 0 0 0 0 0.15 0"/>
<feBlend mode="normal" in2="effect2_dropShadow" result="effect3_dropShadow"/>
<feBlend mode="normal" in="SourceGraphic" in2="effect3_dropShadow" result="shape"/>
</filter>
<filter id="filter4_ddd" x="242.834" y="306.512" width="162.866" height="175.949" filterUnits="userSpaceOnUse" color-interpolation-filters="sRGB">
<feFlood flood-opacity="0" result="BackgroundImageFix"/>
<feColorMatrix in="SourceAlpha" type="matrix" values="0 0 0 0 0 0 0 0 0 0 0 0 0 0 0 0 0 0 127 0"/>
<feOffset dy="6.18624"/>
<feGaussianBlur stdDeviation="2.4745"/>
<feColorMatrix type="matrix" values="0 0 0 0 0 0 0 0 0 0 0 0 0 0 0 0 0 0 0.3 0"/>
<feBlend mode="normal" in2="BackgroundImageFix" result="effect1_dropShadow"/>
<feColorMatrix in="SourceAlpha" type="matrix" values="0 0 0 0 0 0 0 0 0 0 0 0 0 0 0 0 0 0 127 0"/>
<feOffset dy="20.6401"/>
<feGaussianBlur stdDeviation="8.25605"/>
<feColorMatrix type="matrix" values="0 0 0 0 0 0 0 0 0 0 0 0 0 0 0 0 0 0 0.15 0"/>
<feBlend mode="normal" in2="effect1_dropShadow" result="effect2_dropShadow"/>
<feColorMatrix in="SourceAlpha" type="matrix" values="0 0 0 0 0 0 0 0 0 0 0 0 0 0 0 0 0 0 127 0"/>
<feOffset dy="49.4047"/>
<feGaussianBlur stdDeviation="19.7619"/>
<feColorMatrix type="matrix" values="0 0 0 0 0 0 0 0 0 0 0 0 0 0 0 0 0 0 0.15 0"/>
<feBlend mode="normal" in2="effect2_dropShadow" result="effect3_dropShadow"/>
<feBlend mode="normal" in="SourceGraphic" in2="effect3_dropShadow" result="shape"/>
</filter>
<filter id="filter5_ddd" x="-68.9969" y="413.917" width="210.502" height="215.109" filterUnits="userSpaceOnUse" color-interpolation-filters="sRGB">
<feFlood flood-opacity="0" result="BackgroundImageFix"/>
<feColorMatrix in="SourceAlpha" type="matrix" values="0 0 0 0 0 0 0 0 0 0 0 0 0 0 0 0 0 0 127 0"/>
<feOffset dy="6.18624"/>
<feGaussianBlur stdDeviation="2.4745"/>
<feColorMatrix type="matrix" values="0 0 0 0 0 0 0 0 0 0 0 0 0 0 0 0 0 0 0.3 0"/>
<feBlend mode="normal" in2="BackgroundImageFix" result="effect1_dropShadow"/>
<feColorMatrix in="SourceAlpha" type="matrix" values="0 0 0 0 0 0 0 0 0 0 0 0 0 0 0 0 0 0 127 0"/>
<feOffset dy="20.6401"/>
<feGaussianBlur stdDeviation="8.25605"/>
<feColorMatrix type="matrix" values="0 0 0 0 0 0 0 0 0 0 0 0 0 0 0 0 0 0 0.15 0"/>
<feBlend mode="normal" in2="effect1_dropShadow" result="effect2_dropShadow"/>
<feColorMatrix in="SourceAlpha" type="matrix" values="0 0 0 0 0 0 0 0 0 0 0 0 0 0 0 0 0 0 127 0"/>
<feOffset dy="49.4047"/>
<feGaussianBlur stdDeviation="19.7619"/>
<feColorMatrix type="matrix" values="0 0 0 0 0 0 0 0 0 0 0 0 0 0 0 0 0 0 0.15 0"/>
<feBlend mode="normal" in2="effect2_dropShadow" result="effect3_dropShadow"/>
<feBlend mode="normal" in="SourceGraphic" in2="effect3_dropShadow" result="shape"/>
</filter>
<filter id="filter6_ddd" x="-60.5587" y="132.068" width="200.592" height="210.473" filterUnits="userSpaceOnUse" color-interpolation-filters="sRGB">
<feFlood flood-opacity="0" result="BackgroundImageFix"/>
<feColorMatrix in="SourceAlpha" type="matrix" values="0 0 0 0 0 0 0 0 0 0 0 0 0 0 0 0 0 0 127 0"/>
<feOffset dy="6.18624"/>
<feGaussianBlur stdDeviation="2.4745"/>
<feColorMatrix type="matrix" values="0 0 0 0 0 0 0 0 0 0 0 0 0 0 0 0 0 0 0.3 0"/>
<feBlend mode="normal" in2="BackgroundImageFix" result="effect1_dropShadow"/>
<feColorMatrix in="SourceAlpha" type="matrix" values="0 0 0 0 0 0 0 0 0 0 0 0 0 0 0 0 0 0 127 0"/>
<feOffset dy="20.6401"/>
<feGaussianBlur stdDeviation="8.25605"/>
<feColorMatrix type="matrix" values="0 0 0 0 0 0 0 0 0 0 0 0 0 0 0 0 0 0 0.15 0"/>
<feBlend mode="normal" in2="effect1_dropShadow" result="effect2_dropShadow"/>
<feColorMatrix in="SourceAlpha" type="matrix" values="0 0 0 0 0 0 0 0 0 0 0 0 0 0 0 0 0 0 127 0"/>
<feOffset dy="49.4047"/>
<feGaussianBlur stdDeviation="19.7619"/>
<feColorMatrix type="matrix" values="0 0 0 0 0 0 0 0 0 0 0 0 0 0 0 0 0 0 0.15 0"/>
<feBlend mode="normal" in2="effect2_dropShadow" result="effect3_dropShadow"/>
<feBlend mode="normal" in="SourceGraphic" in2="effect3_dropShadow" result="shape"/>
</filter>
<filter id="filter7_ddd" x="0.44545" y="-16.8396" width="206.521" height="216.402" filterUnits="userSpaceOnUse" color-interpolation-filters="sRGB">
<feFlood flood-opacity="0" result="BackgroundImageFix"/>
<feColorMatrix in="SourceAlpha" type="matrix" values="0 0 0 0 0 0 0 0 0 0 0 0 0 0 0 0 0 0 127 0"/>
<feOffset dy="6.18624"/>
<feGaussianBlur stdDeviation="2.4745"/>
<feColorMatrix type="matrix" values="0 0 0 0 0 0 0 0 0 0 0 0 0 0 0 0 0 0 0.3 0"/>
<feBlend mode="normal" in2="BackgroundImageFix" result="effect1_dropShadow"/>
<feColorMatrix in="SourceAlpha" type="matrix" values="0 0 0 0 0 0 0 0 0 0 0 0 0 0 0 0 0 0 127 0"/>
<feOffset dy="20.6401"/>
<feGaussianBlur stdDeviation="8.25605"/>
<feColorMatrix type="matrix" values="0 0 0 0 0 0 0 0 0 0 0 0 0 0 0 0 0 0 0.15 0"/>
<feBlend mode="normal" in2="effect1_dropShadow" result="effect2_dropShadow"/>
<feColorMatrix in="SourceAlpha" type="matrix" values="0 0 0 0 0 0 0 0 0 0 0 0 0 0 0 0 0 0 127 0"/>
<feOffset dy="49.4047"/>
<feGaussianBlur stdDeviation="19.7619"/>
<feColorMatrix type="matrix" values="0 0 0 0 0 0 0 0 0 0 0 0 0 0 0 0 0 0 0.15 0"/>
<feBlend mode="normal" in2="effect2_dropShadow" result="effect3_dropShadow"/>
<feBlend mode="normal" in="SourceGraphic" in2="effect3_dropShadow" result="shape"/>
</filter>
<filter id="filter8_ddd" x="24.1713" y="268.944" width="298.764" height="318.431" filterUnits="userSpaceOnUse" color-interpolation-filters="sRGB">
<feFlood flood-opacity="0" result="BackgroundImageFix"/>
<feColorMatrix in="SourceAlpha" type="matrix" values="0 0 0 0 0 0 0 0 0 0 0 0 0 0 0 0 0 0 127 0"/>
<feOffset dy="6.18624"/>
<feGaussianBlur stdDeviation="2.4745"/>
<feColorMatrix type="matrix" values="0 0 0 0 0 0 0 0 0 0 0 0 0 0 0 0 0 0 0.3 0"/>
<feBlend mode="normal" in2="BackgroundImageFix" result="effect1_dropShadow"/>
<feColorMatrix in="SourceAlpha" type="matrix" values="0 0 0 0 0 0 0 0 0 0 0 0 0 0 0 0 0 0 127 0"/>
<feOffset dy="20.6401"/>
<feGaussianBlur stdDeviation="8.25605"/>
<feColorMatrix type="matrix" values="0 0 0 0 0 0 0 0 0 0 0 0 0 0 0 0 0 0 0.15 0"/>
<feBlend mode="normal" in2="effect1_dropShadow" result="effect2_dropShadow"/>
<feColorMatrix in="SourceAlpha" type="matrix" values="0 0 0 0 0 0 0 0 0 0 0 0 0 0 0 0 0 0 127 0"/>
<feOffset dy="49.4047"/>
<feGaussianBlur stdDeviation="19.7619"/>
<feColorMatrix type="matrix" values="0 0 0 0 0 0 0 0 0 0 0 0 0 0 0 0 0 0 0.15 0"/>
<feBlend mode="normal" in2="effect2_dropShadow" result="effect3_dropShadow"/>
<feBlend mode="normal" in="SourceGraphic" in2="effect3_dropShadow" result="shape"/>
</filter>
<linearGradient id="paint0_linear" x1="293.43" y1="231.222" x2="257.531" y2="421.722" gradientUnits="userSpaceOnUse">
<stop stop-color="#D943CB"/>
<stop offset="1" stop-color="#D040C3" stop-opacity="0"/>
</linearGradient>
<linearGradient id="paint1_linear" x1="259.977" y1="382.511" x2="238.878" y2="436.939" gradientUnits="userSpaceOnUse">
<stop stop-color="#D943CB"/>
<stop offset="1" stop-color="#D040C3" stop-opacity="0"/>
</linearGradient>
<linearGradient id="paint2_linear" x1="345.945" y1="156.952" x2="243.034" y2="274.047" gradientUnits="userSpaceOnUse">
<stop stop-color="#D943CB"/>
<stop offset="1" stop-color="#D040C3" stop-opacity="0"/>
</linearGradient>
<linearGradient id="paint3_linear" x1="372.987" y1="511.685" x2="329.95" y2="614.574" gradientUnits="userSpaceOnUse">
<stop stop-color="#D943CB"/>
<stop offset="1" stop-color="#D040C3" stop-opacity="0"/>
</linearGradient>
<linearGradient id="paint4_linear" x1="218.366" y1="208.678" x2="142.53" y2="294.966" gradientUnits="userSpaceOnUse">
<stop stop-color="#D943CB"/>
<stop offset="1" stop-color="#D040C3" stop-opacity="0"/>
</linearGradient>
<linearGradient id="paint5_linear" x1="52.1824" y1="302.223" x2="-0.211603" y2="361.838" gradientUnits="userSpaceOnUse">
<stop stop-color="#D943CB"/>
<stop offset="1" stop-color="#D040C3" stop-opacity="0"/>
</linearGradient>
<linearGradient id="paint6_linear" x1="462.55" y1="366.792" x2="307.631" y2="282.446" gradientUnits="userSpaceOnUse">
<stop stop-color="#D943CB"/>
<stop offset="1" stop-color="#D040C3" stop-opacity="0"/>
</linearGradient>
<linearGradient id="paint7_linear" x1="129.876" y1="344.743" x2="56.1807" y2="534.852" gradientUnits="userSpaceOnUse">
<stop stop-color="#D943CB"/>
<stop offset="1" stop-color="#D040C3" stop-opacity="0"/>
</linearGradient>
<linearGradient id="paint8_linear" x1="133.36" y1="60.5764" x2="59.6641" y2="250.686" gradientUnits="userSpaceOnUse">
<stop stop-color="#D943CB"/>
<stop offset="1" stop-color="#D040C3" stop-opacity="0"/>
</linearGradient>
<linearGradient id="paint9_linear" x1="197.328" y1="-85.3673" x2="123.633" y2="104.742" gradientUnits="userSpaceOnUse">
<stop stop-color="#D943CB"/>
<stop offset="1" stop-color="#D040C3" stop-opacity="0"/>
</linearGradient>
</defs>
</svg>
