<svg width="320" height="182" viewBox="0 0 320 182" fill="none" xmlns="http://www.w3.org/2000/svg">
<mask id="mask0" mask-type="alpha" maskUnits="userSpaceOnUse" x="0" y="-2" width="320" height="184">
<rect y="-2" width="320" height="184" fill="#C4C4C4"/>
</mask>
<g mask="url(#mask0)">
<g filter="url(#filter0_dd)">
<rect x="-82.656" y="-14.106" width="64.9234" height="64.9234" rx="8.91164" transform="rotate(-15 -82.656 -14.106)" fill="#AA9910"/>
</g>
<g filter="url(#filter1_ddd)">
<rect x="238.015" y="44.7731" width="79.4603" height="37.8172" rx="8.91164" transform="rotate(-20.1227 238.015 44.7731)" fill="#AA9910"/>
</g>
<rect x="235.842" y="41" width="79.4603" height="37.8172" rx="8.91164" transform="rotate(-20.1227 235.842 41)" fill="#9D2F93"/>
<rect x="235.842" y="41" width="79.4603" height="37.8172" rx="8.91164" transform="rotate(-20.1227 235.842 41)" fill="#FFE725"/>
<circle cx="372.907" cy="-30.4913" r="23.9214" transform="rotate(-20.1227 372.907 -30.4913)" fill="#AA9910"/>
<g filter="url(#filter3_ddd)">
<circle cx="191.16" cy="11.2676" r="16.5268" transform="rotate(-20.1227 191.16 11.2676)" fill="#AA9910"/>
</g>
<circle cx="189.658" cy="8.66074" r="16.5268" transform="rotate(-20.1227 189.658 8.66074)" fill="#9D2F93"/>
<circle cx="189.658" cy="8.66074" r="16.5268" transform="rotate(-20.1227 189.658 8.66074)" fill="#FFE725"/>
<g filter="url(#filter4_ddd)">
<path d="M12.9967 113.294C14.3576 111.665 16.4841 110.886 18.5752 111.25L53.6449 117.356C55.736 117.72 57.474 119.172 58.2042 121.165L70.4508 154.59C71.181 156.583 70.7926 158.814 69.4317 160.443L46.6086 187.761C45.2477 189.39 43.1212 190.169 41.0302 189.805L5.96044 183.699C3.86935 183.334 2.13135 181.882 1.40113 179.889L-10.8455 146.465C-11.5757 144.472 -11.1872 142.241 -9.82636 140.612L12.9967 113.294Z" fill="#AA9910"/>
</g>
<path d="M10.8232 109.521C12.184 107.892 14.3105 107.113 16.4016 107.477L51.4713 113.583C53.5624 113.947 55.3004 115.399 56.0306 117.392L68.2772 150.817C69.0075 152.81 68.619 155.041 67.2581 156.67L44.435 183.988C43.0741 185.617 40.9477 186.396 38.8566 186.032L3.78685 179.925C1.69577 179.561 -0.0422333 178.109 -0.772456 176.116L-13.0191 142.692C-13.7493 140.699 -13.3608 138.468 -11.9999 136.839L10.8232 109.521Z" fill="#9D2F93"/>
<path d="M10.8232 109.521C12.184 107.892 14.3105 107.113 16.4016 107.477L51.4713 113.583C53.5624 113.947 55.3004 115.399 56.0306 117.392L68.2772 150.817C69.0075 152.81 68.619 155.041 67.2581 156.67L44.435 183.988C43.0741 185.617 40.9477 186.396 38.8566 186.032L3.78685 179.925C1.69577 179.561 -0.0422333 178.109 -0.772456 176.116L-13.0191 142.692C-13.7493 140.699 -13.3608 138.468 -11.9999 136.839L10.8232 109.521Z" fill="#FFE725"/>
<g filter="url(#filter5_ddd)">
<path d="M83.8273 -54.9127C85.2076 -57.8894 88.7397 -59.1836 91.7164 -57.8033L135.409 -37.5427C138.386 -36.1624 139.68 -32.6303 138.3 -29.6536L118.039 14.0394C116.659 17.0161 113.127 18.3102 110.15 16.9299L66.4572 -3.33066C63.4805 -4.71098 62.1864 -8.24304 63.5667 -11.2198L83.8273 -54.9127Z" fill="#AA9910"/>
</g>
<path d="M81.6539 -58.6858C83.0342 -61.6625 86.5663 -62.9566 89.543 -61.5763L133.236 -41.3158C136.213 -39.9354 137.507 -36.4034 136.127 -33.4267L115.866 10.2663C114.486 13.243 110.954 14.5372 107.977 13.1568L64.2839 -7.10373C61.3072 -8.48405 60.0131 -12.0161 61.3934 -14.9928L81.6539 -58.6858Z" fill="#9D2F93"/>
<path d="M81.6539 -58.6858C83.0342 -61.6625 86.5663 -62.9566 89.543 -61.5763L133.236 -41.3158C136.213 -39.9354 137.507 -36.4034 136.127 -33.4267L115.866 10.2663C114.486 13.243 110.954 14.5372 107.977 13.1568L64.2839 -7.10373C61.3072 -8.48405 60.0131 -12.0161 61.3934 -14.9928L81.6539 -58.6858Z" fill="#FFE725"/>
<g filter="url(#filter6_dd)">
<path d="M232.393 -92.9537C233.553 -94.0207 235.089 -94.5834 236.663 -94.5181L264.213 -93.3743C265.787 -93.309 267.271 -92.6209 268.338 -91.4614L287.01 -71.1718C288.077 -70.0124 288.64 -68.4766 288.575 -66.9023L287.431 -39.3522C287.366 -37.7778 286.678 -36.294 285.518 -35.227L265.228 -16.5549C264.069 -15.4879 262.533 -14.9252 260.959 -14.9905L233.409 -16.1343C231.835 -16.1996 230.351 -16.8877 229.284 -18.0472L210.612 -38.3368C209.545 -39.4962 208.982 -41.032 209.047 -42.6063L210.191 -70.1564C210.256 -71.7308 210.944 -73.2146 212.104 -74.2816L232.393 -92.9537Z" fill="#AA9910"/>
</g>
<g filter="url(#filter7_ddd)">
<path d="M58.8605 76.7545C62.3702 79.6868 67.7381 77.72 68.5226 73.2144L75.9055 30.8133C76.69 26.3077 72.3028 22.6423 68.0086 24.2157L27.5967 39.0225C23.3025 40.5959 22.3218 46.228 25.8315 49.1603L58.8605 76.7545Z" fill="#AA9910"/>
</g>
<path d="M57.4669 70.5847C60.9767 73.517 66.3446 71.5502 67.1291 67.0446L74.512 24.6435C75.2965 20.1379 70.9093 16.4725 66.615 18.0459L26.2032 32.8527C21.9089 34.4261 20.9282 40.0582 24.438 42.9905L57.4669 70.5847Z" fill="#9D2F93"/>
<path d="M57.4669 70.5847C60.9767 73.517 66.3446 71.5502 67.1291 67.0446L74.512 24.6435C75.2965 20.1379 70.9093 16.4725 66.615 18.0459L26.2032 32.8527C21.9089 34.4261 20.9282 40.0582 24.438 42.9905L57.4669 70.5847Z" fill="#FFE725"/>
<g filter="url(#filter8_ddd)">
<g clip-path="url(#clip0)">
<path d="M149.919 69.1581C125.735 69.1581 106.059 88.8343 106.059 113.018C106.059 137.203 125.735 156.879 149.919 156.879C174.104 156.879 193.78 137.203 193.78 113.018C193.78 88.8343 174.104 69.1581 149.919 69.1581ZM184.581 127.491C180.27 137.781 171.504 145.759 160.707 149.001C160.9 148.642 161.088 148.278 161.269 147.911C162.197 146.034 163.171 144.71 164.807 143.39C166.059 142.379 168.517 140.813 168.115 138.839C167.826 137.412 166.196 136.826 164.965 136.477C163.012 135.924 160.922 135.78 158.907 135.641C157.161 135.519 155.348 135.581 153.644 135.146C151.093 134.497 150.519 132.289 150.357 129.962C150.213 127.893 150.244 125.767 149.227 123.894C147.917 121.485 144.902 120.8 142.401 120.57C140.291 120.377 138.183 120.478 136.084 120.127C134.064 119.788 132.151 119.079 130.077 119.16C127.39 119.263 126.183 121.085 125.036 123.192C124.47 124.232 120.896 132.233 118.796 134.027C115.174 128.681 112.896 122.355 112.442 115.538C112.739 115.458 113.033 115.347 113.332 115.199C114.5 114.618 115.319 113.571 116.591 113.156C117.803 112.761 119.369 113.112 120.608 113.233C121.841 113.354 123.092 113.481 124.326 113.313C126.789 112.977 128.093 111.276 128.487 108.901C128.72 107.483 128.538 106.057 128.58 104.628C128.647 102.403 130.107 101.605 132.12 101.415C135.921 101.058 144.789 102.066 144.968 96.2152C145.045 93.7128 142.066 92.4212 140.126 91.7533C136.349 90.4538 132.222 90.9075 128.359 90.0048C126.304 89.5246 124.57 88.2429 123.117 86.7279C129.94 79.7758 139.433 75.4544 149.919 75.4544C152.162 75.4544 154.358 75.6523 156.492 76.0313C155.401 76.2341 154.323 76.5221 153.275 76.9454C147.745 79.175 147.579 85.4486 149.996 90.1617C151.495 93.0846 153.923 95.5335 156.458 97.5698C158.913 99.5403 161.595 100.705 164.317 102.199C167.928 104.185 167.492 109.37 168.406 112.864C169.176 115.81 171.026 118.296 173.943 119.316C175.706 119.932 177.777 119.451 179.321 120.68C180.647 121.732 180.959 123.885 181.716 125.333C182.471 126.777 183.476 127.385 184.581 127.491Z" fill="#AA9910"/>
</g>
<g clip-path="url(#clip1)">
<path d="M144.946 92.455V96.197L144.036 94.0731L144.946 92.455Z" fill="#AA9910"/>
<path d="M148.537 80.6025V84.364L149.599 82.847L148.537 80.6025Z" fill="#AA9910"/>
<path d="M168.157 135.539V139.281L165.426 136.955L168.157 135.539Z" fill="#AA9910"/>
<path d="M106.059 109.446V113.39L107.02 112.278L106.059 109.446Z" fill="#AA9910"/>
<path d="M149.92 65.4517C125.736 65.4517 106.06 85.1278 106.06 109.312C106.06 133.496 125.736 153.172 149.92 153.172C174.104 153.172 193.78 133.496 193.78 109.312C193.78 85.1278 174.104 65.4517 149.92 65.4517ZM184.582 123.785C180.27 134.074 171.505 142.052 160.707 145.295C160.901 144.935 161.088 144.572 161.27 144.204C162.197 142.327 163.172 141.004 164.808 139.684C166.06 138.673 168.518 137.107 168.116 135.132C167.826 133.705 166.197 133.12 164.966 132.771C163.012 132.217 160.923 132.074 158.907 131.934C157.161 131.812 155.349 131.875 153.644 131.44C151.094 130.791 150.519 128.583 150.358 126.256C150.214 124.187 150.245 122.06 149.227 120.188C147.917 117.779 144.902 117.093 142.402 116.863C140.291 116.67 138.183 116.772 136.084 116.42C134.065 116.082 132.152 115.373 130.078 115.453C127.39 115.557 126.183 117.378 125.037 119.485C124.471 120.526 120.896 128.527 118.796 130.321C115.175 124.974 112.896 118.649 112.443 111.832C112.74 111.752 113.034 111.641 113.332 111.492C114.501 110.912 115.32 109.865 116.591 109.45C117.804 109.055 119.37 109.405 120.609 109.527C121.841 109.647 123.093 109.775 124.326 109.607C126.789 109.271 128.094 107.57 128.487 105.195C128.721 103.777 128.539 102.35 128.581 100.922C128.647 98.6966 130.108 97.8981 132.12 97.7088C135.922 97.3518 144.789 98.3592 144.969 92.5088C145.045 90.0063 142.067 88.7148 140.127 88.0469C136.35 86.7474 132.222 87.2011 128.359 86.2984C126.304 85.8182 124.571 84.5364 123.118 83.0215C129.94 76.0693 139.434 71.748 149.92 71.748C152.163 71.748 154.358 71.9459 156.493 72.3249C155.401 72.5277 154.324 72.8157 153.276 73.239C147.746 75.4686 147.579 81.7422 149.996 86.4553C151.495 89.3782 153.923 91.827 156.459 93.8634C158.914 95.8338 161.596 96.9983 164.318 98.493C167.929 100.479 167.493 105.664 168.406 109.158C169.177 112.104 171.027 114.59 173.943 115.61C175.707 116.226 177.778 115.745 179.321 116.973C180.647 118.025 180.959 120.179 181.717 121.626C182.472 123.071 183.476 123.678 184.582 123.785Z" fill="#FFE725"/>
</g>
</g>
</g>
<defs>
<filter id="filter0_dd" x="-105.316" y="-28.9087" width="124.836" height="131.001" filterUnits="userSpaceOnUse" color-interpolation-filters="sRGB">
<feFlood flood-opacity="0" result="BackgroundImageFix"/>
<feColorMatrix in="SourceAlpha" type="matrix" values="0 0 0 0 0 0 0 0 0 0 0 0 0 0 0 0 0 0 127 0"/>
<feOffset dy="12.8785"/>
<feGaussianBlur stdDeviation="5.15142"/>
<feColorMatrix type="matrix" values="0 0 0 0 0 0 0 0 0 0 0 0 0 0 0 0 0 0 0.15 0"/>
<feBlend mode="normal" in2="BackgroundImageFix" result="effect1_dropShadow"/>
<feColorMatrix in="SourceAlpha" type="matrix" values="0 0 0 0 0 0 0 0 0 0 0 0 0 0 0 0 0 0 127 0"/>
<feOffset dy="30.8264"/>
<feGaussianBlur stdDeviation="12.3306"/>
<feColorMatrix type="matrix" values="0 0 0 0 0 0 0 0 0 0 0 0 0 0 0 0 0 0 0.15 0"/>
<feBlend mode="normal" in2="effect1_dropShadow" result="effect2_dropShadow"/>
<feBlend mode="normal" in="SourceGraphic" in2="effect2_dropShadow" result="shape"/>
</filter>
<filter id="filter1_ddd" x="215.874" y="19.9557" width="131.903" height="113.294" filterUnits="userSpaceOnUse" color-interpolation-filters="sRGB">
<feFlood flood-opacity="0" result="BackgroundImageFix"/>
<feColorMatrix in="SourceAlpha" type="matrix" values="0 0 0 0 0 0 0 0 0 0 0 0 0 0 0 0 0 0 127 0"/>
<feOffset dy="3.85995"/>
<feGaussianBlur stdDeviation="1.54398"/>
<feColorMatrix type="matrix" values="0 0 0 0 0 0 0 0 0 0 0 0 0 0 0 0 0 0 0.3 0"/>
<feBlend mode="normal" in2="BackgroundImageFix" result="effect1_dropShadow"/>
<feColorMatrix in="SourceAlpha" type="matrix" values="0 0 0 0 0 0 0 0 0 0 0 0 0 0 0 0 0 0 127 0"/>
<feOffset dy="12.8785"/>
<feGaussianBlur stdDeviation="5.15142"/>
<feColorMatrix type="matrix" values="0 0 0 0 0 0 0 0 0 0 0 0 0 0 0 0 0 0 0.15 0"/>
<feBlend mode="normal" in2="effect1_dropShadow" result="effect2_dropShadow"/>
<feColorMatrix in="SourceAlpha" type="matrix" values="0 0 0 0 0 0 0 0 0 0 0 0 0 0 0 0 0 0 127 0"/>
<feOffset dy="30.8264"/>
<feGaussianBlur stdDeviation="12.3306"/>
<feColorMatrix type="matrix" values="0 0 0 0 0 0 0 0 0 0 0 0 0 0 0 0 0 0 0.15 0"/>
<feBlend mode="normal" in2="effect2_dropShadow" result="effect3_dropShadow"/>
<feBlend mode="normal" in="SourceGraphic" in2="effect3_dropShadow" result="shape"/>
</filter>
<filter id="filter3_ddd" x="149.967" y="-5.26379" width="82.3849" height="88.5502" filterUnits="userSpaceOnUse" color-interpolation-filters="sRGB">
<feFlood flood-opacity="0" result="BackgroundImageFix"/>
<feColorMatrix in="SourceAlpha" type="matrix" values="0 0 0 0 0 0 0 0 0 0 0 0 0 0 0 0 0 0 127 0"/>
<feOffset dy="3.85995"/>
<feGaussianBlur stdDeviation="1.54398"/>
<feColorMatrix type="matrix" values="0 0 0 0 0 0 0 0 0 0 0 0 0 0 0 0 0 0 0.3 0"/>
<feBlend mode="normal" in2="BackgroundImageFix" result="effect1_dropShadow"/>
<feColorMatrix in="SourceAlpha" type="matrix" values="0 0 0 0 0 0 0 0 0 0 0 0 0 0 0 0 0 0 127 0"/>
<feOffset dy="12.8785"/>
<feGaussianBlur stdDeviation="5.15142"/>
<feColorMatrix type="matrix" values="0 0 0 0 0 0 0 0 0 0 0 0 0 0 0 0 0 0 0.15 0"/>
<feBlend mode="normal" in2="effect1_dropShadow" result="effect2_dropShadow"/>
<feColorMatrix in="SourceAlpha" type="matrix" values="0 0 0 0 0 0 0 0 0 0 0 0 0 0 0 0 0 0 127 0"/>
<feOffset dy="30.8264"/>
<feGaussianBlur stdDeviation="12.3306"/>
<feColorMatrix type="matrix" values="0 0 0 0 0 0 0 0 0 0 0 0 0 0 0 0 0 0 0.15 0"/>
<feBlend mode="normal" in2="effect2_dropShadow" result="effect3_dropShadow"/>
<feBlend mode="normal" in="SourceGraphic" in2="effect3_dropShadow" result="shape"/>
</filter>
<filter id="filter4_ddd" x="-35.8694" y="65.5006" width="131.344" height="134.695" filterUnits="userSpaceOnUse" color-interpolation-filters="sRGB">
<feFlood flood-opacity="0" result="BackgroundImageFix"/>
<feColorMatrix in="SourceAlpha" type="matrix" values="0 0 0 0 0 0 0 0 0 0 0 0 0 0 0 0 0 0 127 0"/>
<feOffset dy="3.85995"/>
<feGaussianBlur stdDeviation="1.54398"/>
<feColorMatrix type="matrix" values="0 0 0 0 0 0 0 0 0 0 0 0 0 0 0 0 0 0 0.3 0"/>
<feBlend mode="normal" in2="BackgroundImageFix" result="effect1_dropShadow"/>
<feColorMatrix in="SourceAlpha" type="matrix" values="0 0 0 0 0 0 0 0 0 0 0 0 0 0 0 0 0 0 127 0"/>
<feOffset/>
<feGaussianBlur stdDeviation="5.15142"/>
<feColorMatrix type="matrix" values="0 0 0 0 0 0 0 0 0 0 0 0 0 0 0 0 0 0 0.15 0"/>
<feBlend mode="normal" in2="effect1_dropShadow" result="effect2_dropShadow"/>
<feColorMatrix in="SourceAlpha" type="matrix" values="0 0 0 0 0 0 0 0 0 0 0 0 0 0 0 0 0 0 127 0"/>
<feOffset dy="-21"/>
<feGaussianBlur stdDeviation="12.3306"/>
<feColorMatrix type="matrix" values="0 0 0 0 0 0 0 0 0 0 0 0 0 0 0 0 0 0 0.15 0"/>
<feBlend mode="normal" in2="effect2_dropShadow" result="effect3_dropShadow"/>
<feBlend mode="normal" in="SourceGraphic" in2="effect3_dropShadow" result="shape"/>
</filter>
<filter id="filter5_ddd" x="38.353" y="-58.356" width="125.161" height="131.326" filterUnits="userSpaceOnUse" color-interpolation-filters="sRGB">
<feFlood flood-opacity="0" result="BackgroundImageFix"/>
<feColorMatrix in="SourceAlpha" type="matrix" values="0 0 0 0 0 0 0 0 0 0 0 0 0 0 0 0 0 0 127 0"/>
<feOffset dy="3.85995"/>
<feGaussianBlur stdDeviation="1.54398"/>
<feColorMatrix type="matrix" values="0 0 0 0 0 0 0 0 0 0 0 0 0 0 0 0 0 0 0.3 0"/>
<feBlend mode="normal" in2="BackgroundImageFix" result="effect1_dropShadow"/>
<feColorMatrix in="SourceAlpha" type="matrix" values="0 0 0 0 0 0 0 0 0 0 0 0 0 0 0 0 0 0 127 0"/>
<feOffset dy="12.8785"/>
<feGaussianBlur stdDeviation="5.15142"/>
<feColorMatrix type="matrix" values="0 0 0 0 0 0 0 0 0 0 0 0 0 0 0 0 0 0 0.15 0"/>
<feBlend mode="normal" in2="effect1_dropShadow" result="effect2_dropShadow"/>
<feColorMatrix in="SourceAlpha" type="matrix" values="0 0 0 0 0 0 0 0 0 0 0 0 0 0 0 0 0 0 127 0"/>
<feOffset dy="30.8264"/>
<feGaussianBlur stdDeviation="12.3306"/>
<feColorMatrix type="matrix" values="0 0 0 0 0 0 0 0 0 0 0 0 0 0 0 0 0 0 0.15 0"/>
<feBlend mode="normal" in2="effect2_dropShadow" result="effect3_dropShadow"/>
<feBlend mode="normal" in="SourceGraphic" in2="effect3_dropShadow" result="shape"/>
</filter>
<filter id="filter6_dd" x="184.381" y="-94.5232" width="128.86" height="135.025" filterUnits="userSpaceOnUse" color-interpolation-filters="sRGB">
<feFlood flood-opacity="0" result="BackgroundImageFix"/>
<feColorMatrix in="SourceAlpha" type="matrix" values="0 0 0 0 0 0 0 0 0 0 0 0 0 0 0 0 0 0 127 0"/>
<feOffset dy="12.8785"/>
<feGaussianBlur stdDeviation="5.15142"/>
<feColorMatrix type="matrix" values="0 0 0 0 0 0 0 0 0 0 0 0 0 0 0 0 0 0 0.15 0"/>
<feBlend mode="normal" in2="BackgroundImageFix" result="effect1_dropShadow"/>
<feColorMatrix in="SourceAlpha" type="matrix" values="0 0 0 0 0 0 0 0 0 0 0 0 0 0 0 0 0 0 127 0"/>
<feOffset dy="30.8264"/>
<feGaussianBlur stdDeviation="12.3306"/>
<feColorMatrix type="matrix" values="0 0 0 0 0 0 0 0 0 0 0 0 0 0 0 0 0 0 0.15 0"/>
<feBlend mode="normal" in2="effect1_dropShadow" result="effect2_dropShadow"/>
<feBlend mode="normal" in="SourceGraphic" in2="effect2_dropShadow" result="shape"/>
</filter>
<filter id="filter7_ddd" x="-0.963377" y="23.8448" width="101.622" height="109.785" filterUnits="userSpaceOnUse" color-interpolation-filters="sRGB">
<feFlood flood-opacity="0" result="BackgroundImageFix"/>
<feColorMatrix in="SourceAlpha" type="matrix" values="0 0 0 0 0 0 0 0 0 0 0 0 0 0 0 0 0 0 127 0"/>
<feOffset dy="3.85995"/>
<feGaussianBlur stdDeviation="1.54398"/>
<feColorMatrix type="matrix" values="0 0 0 0 0 0 0 0 0 0 0 0 0 0 0 0 0 0 0.3 0"/>
<feBlend mode="normal" in2="BackgroundImageFix" result="effect1_dropShadow"/>
<feColorMatrix in="SourceAlpha" type="matrix" values="0 0 0 0 0 0 0 0 0 0 0 0 0 0 0 0 0 0 127 0"/>
<feOffset dy="12.8785"/>
<feGaussianBlur stdDeviation="5.15142"/>
<feColorMatrix type="matrix" values="0 0 0 0 0 0 0 0 0 0 0 0 0 0 0 0 0 0 0.15 0"/>
<feBlend mode="normal" in2="effect1_dropShadow" result="effect2_dropShadow"/>
<feColorMatrix in="SourceAlpha" type="matrix" values="0 0 0 0 0 0 0 0 0 0 0 0 0 0 0 0 0 0 127 0"/>
<feOffset dy="30.8264"/>
<feGaussianBlur stdDeviation="12.3306"/>
<feColorMatrix type="matrix" values="0 0 0 0 0 0 0 0 0 0 0 0 0 0 0 0 0 0 0.15 0"/>
<feBlend mode="normal" in2="effect2_dropShadow" result="effect3_dropShadow"/>
<feBlend mode="normal" in="SourceGraphic" in2="effect3_dropShadow" result="shape"/>
</filter>
<filter id="filter8_ddd" x="81.0591" y="23.4517" width="137.721" height="141.427" filterUnits="userSpaceOnUse" color-interpolation-filters="sRGB">
<feFlood flood-opacity="0" result="BackgroundImageFix"/>
<feColorMatrix in="SourceAlpha" type="matrix" values="0 0 0 0 0 0 0 0 0 0 0 0 0 0 0 0 0 0 127 0"/>
<feOffset dy="3.85995"/>
<feGaussianBlur stdDeviation="1.54398"/>
<feColorMatrix type="matrix" values="0 0 0 0 0 0 0 0 0 0 0 0 0 0 0 0 0 0 0.3 0"/>
<feBlend mode="normal" in2="BackgroundImageFix" result="effect1_dropShadow"/>
<feColorMatrix in="SourceAlpha" type="matrix" values="0 0 0 0 0 0 0 0 0 0 0 0 0 0 0 0 0 0 127 0"/>
<feOffset dy="-7"/>
<feGaussianBlur stdDeviation="5.15142"/>
<feColorMatrix type="matrix" values="0 0 0 0 0 0 0 0 0 0 0 0 0 0 0 0 0 0 0.15 0"/>
<feBlend mode="normal" in2="effect1_dropShadow" result="effect2_dropShadow"/>
<feColorMatrix in="SourceAlpha" type="matrix" values="0 0 0 0 0 0 0 0 0 0 0 0 0 0 0 0 0 0 127 0"/>
<feOffset dy="-17"/>
<feGaussianBlur stdDeviation="12.5"/>
<feColorMatrix type="matrix" values="0 0 0 0 0 0 0 0 0 0 0 0 0 0 0 0 0 0 0.15 0"/>
<feBlend mode="normal" in2="effect2_dropShadow" result="effect3_dropShadow"/>
<feBlend mode="normal" in="SourceGraphic" in2="effect3_dropShadow" result="shape"/>
</filter>
<clipPath id="clip0">
<rect width="87.7207" height="87.7207" fill="white" transform="translate(106.059 69.1581)"/>
</clipPath>
<clipPath id="clip1">
<rect width="87.7207" height="87.7207" fill="white" transform="translate(106.06 65.4517)"/>
</clipPath>
</defs>
</svg>
