<svg width="124" height="231" viewBox="0 0 124 231" fill="none" xmlns="http://www.w3.org/2000/svg">
<path d="M-53.82 55.2999L-52.0668 53.5469L29.7911 31.5962L7.4591 114.75L-75.6946 137.082L-53.82 55.2999Z" fill="url(#paint0_linear)"/>
<path d="M-75.6946 137.083L-75.2373 139.217L7.99288 116.961L8.29775 115.589L8.22153 115.513L7.45935 114.751L-75.6946 137.083Z" fill="url(#paint1_linear)"/>
<path d="M-75.2375 139.216L7.99221 116.96L68.89 177.858L-12.663 199.657L-15.6355 198.818L-75.2375 139.216Z" fill="#378AFF"/>
<path d="M-75.2375 139.216L7.99221 116.96L68.89 177.858L-12.663 199.657L-15.6355 198.818L-75.2375 139.216Z" fill="url(#paint2_linear)"/>
<path d="M9.66919 115.284L32.0011 32.1306L91.6797 91.809L92.4419 94.7053L70.5673 176.182L9.66919 115.284Z" fill="#024EBA"/>
<path d="M9.66919 115.284L32.0011 32.1306L91.6797 91.809L92.4419 94.7053L70.5673 176.182L9.66919 115.284Z" fill="url(#paint3_linear)"/>
<path d="M9.66918 115.284L8.29726 115.589L7.45886 114.75L29.7908 31.5967L32.0011 32.1303L9.66918 115.284Z" fill="#0958C9"/>
<path d="M70.5669 176.182L68.8901 177.858L7.99202 116.96L8.29689 115.588L9.66881 115.283L70.5669 176.182Z" fill="#0D61DA"/>
<defs>
<linearGradient id="paint0_linear" x1="-74.3066" y1="121.582" x2="29.0567" y2="40.487" gradientUnits="userSpaceOnUse">
<stop stop-color="#1A78FF"/>
<stop offset="1" stop-color="#036BFF"/>
</linearGradient>
<linearGradient id="paint1_linear" x1="-70.8928" y1="138.683" x2="5.89681" y2="114.789" gradientUnits="userSpaceOnUse">
<stop stop-color="#65A4FD"/>
<stop offset="1" stop-color="#227DFF"/>
</linearGradient>
<linearGradient id="paint2_linear" x1="-125.293" y1="225.998" x2="-12.4289" y2="132.284" gradientUnits="userSpaceOnUse">
<stop stop-color="white"/>
<stop offset="1" stop-color="white" stop-opacity="0"/>
</linearGradient>
<linearGradient id="paint3_linear" x1="192.468" y1="99.5004" x2="53.9574" y2="99.5868" gradientUnits="userSpaceOnUse">
<stop/>
<stop offset="1" stop-opacity="0"/>
</linearGradient>
</defs>
</svg>
