<svg width="1366" height="813" viewBox="0 0 1366 813" fill="none" xmlns="http://www.w3.org/2000/svg">
<path d="M478.274 416.953L479.591 417.328L512.205 450.919L466.075 462.515L432.929 428.401L478.274 416.953Z" fill="url(#paint0_linear)"/>
<path d="M432.929 428.401L432.022 429.196L465.152 463.367L465.896 463.145L465.912 463.087L466.075 462.515L432.929 428.401Z" fill="url(#paint1_linear)"/>
<path d="M432.022 429.196L465.152 463.367L452.152 509.134L419.694 475.648L419.299 473.989L432.022 429.196Z" fill="#378AFF"/>
<path d="M432.022 429.196L465.152 463.367L452.152 509.134L419.694 475.648L419.299 473.989L432.022 429.196Z" fill="url(#paint2_linear)"/>
<path d="M466.412 463.725L512.542 452.128L499.803 496.979L498.61 498.126L453.413 509.491L466.412 463.725Z" fill="#024EBA"/>
<path d="M466.412 463.725L512.542 452.128L499.803 496.979L498.61 498.126L453.413 509.491L466.412 463.725Z" fill="url(#paint3_linear)"/>
<path d="M466.412 463.725L465.896 463.145L466.075 462.515L512.205 450.919L512.542 452.129L466.412 463.725Z" fill="#0958C9"/>
<path d="M453.413 509.491L452.153 509.133L465.152 463.367L465.896 463.145L466.412 463.724L453.413 509.491Z" fill="#0D61DA"/>
<defs>
<linearGradient id="paint0_linear" x1="440.781" y1="424.9" x2="507.717" y2="452.956" gradientUnits="userSpaceOnUse">
<stop stop-color="#1A78FF"/>
<stop offset="1" stop-color="#036BFF"/>
</linearGradient>
<linearGradient id="paint1_linear" x1="433.448" y1="431.148" x2="465.636" y2="461.771" gradientUnits="userSpaceOnUse">
<stop stop-color="#65A4FD"/>
<stop offset="1" stop-color="#227DFF"/>
</linearGradient>
<linearGradient id="paint2_linear" x1="376.683" y1="428.391" x2="452.265" y2="457.635" gradientUnits="userSpaceOnUse">
<stop stop-color="white"/>
<stop offset="1" stop-color="white" stop-opacity="0"/>
</linearGradient>
<linearGradient id="paint3_linear" x1="523.207" y1="547.678" x2="485.902" y2="480.87" gradientUnits="userSpaceOnUse">
<stop/>
<stop offset="1" stop-opacity="0"/>
</linearGradient>
</defs>
</svg>
