<svg width="60" height="60" viewBox="0 0 60 60" fill="none" xmlns="http://www.w3.org/2000/svg">
<path fill-rule="evenodd" clip-rule="evenodd" d="M42 1H18C8.61116 1 1 8.61116 1 18V42C1 51.3888 8.61116 59 18 59H42C51.3888 59 59 51.3888 59 42V18C59 8.61116 51.3888 1 42 1ZM18 0C8.05888 0 0 8.05888 0 18V42C0 51.9411 8.05888 60 18 60H42C51.9411 60 60 51.9411 60 42V18C60 8.05888 51.9411 0 42 0H18Z" fill="#D0DBE3"/>
<rect x="17" y="17" width="26" height="26" rx="5" fill="#70B6EE"/>
<g clip-path="url(#clip0)">
<path d="M29.2011 25.4537C28.886 23.8903 27.3578 22.8745 25.7943 23.1897C25.0379 23.3421 24.3856 23.7807 23.9575 24.4249C23.5295 25.0689 23.3777 25.8402 23.5301 26.5964C23.6825 27.3529 24.1212 28.0052 24.7652 28.4332C25.2461 28.7527 25.7977 28.9183 26.3612 28.9183C26.5525 28.9183 26.7453 28.8992 26.9369 28.8606C28.5001 28.5456 29.5158 27.0173 29.2011 25.4537ZM26.4436 26.4112C26.2306 26.454 26.0225 26.3158 25.9796 26.103C25.9367 25.8902 26.075 25.6821 26.2879 25.6391C26.5008 25.5963 26.7087 25.7346 26.7517 25.9472C26.7945 26.1602 26.6563 26.3683 26.4436 26.4112Z" fill="white"/>
<path d="M36.4696 33.4036C36.3172 32.6472 35.8786 31.9949 35.2345 31.5669C34.5904 31.1389 33.8192 30.9871 33.0628 31.1395C31.4996 31.4545 30.4839 32.9828 30.7987 34.5463C31.0751 35.9178 32.2849 36.8677 33.6332 36.8677C33.8219 36.8677 34.0135 36.8491 34.2055 36.8104C34.9619 36.658 35.6142 36.2193 36.0422 35.5752C36.4702 34.9311 36.622 34.1599 36.4696 33.4036ZM33.712 34.361C33.4992 34.404 33.291 34.2655 33.2481 34.0528C33.2052 33.8399 33.3434 33.6317 33.5563 33.5889C33.7693 33.546 33.9773 33.6843 34.0201 33.8971C34.063 34.1099 33.9247 34.3181 33.712 34.361Z" fill="white"/>
<path d="M34.5132 23.2093C34.2353 23.0246 33.902 22.959 33.5749 23.025C33.2477 23.0909 32.9658 23.2803 32.7811 23.5583L25.1377 35.0589C24.7567 35.6328 24.9133 36.4096 25.4867 36.7906C25.6942 36.9285 25.9323 37 26.1757 37C26.2586 37 26.3422 36.9917 26.4252 36.975C26.7524 36.9089 27.0342 36.7196 27.2189 36.4417L34.8622 24.9411C35.2433 24.3672 35.0867 23.5903 34.5132 23.2093Z" fill="white"/>
</g>
<defs>
<clipPath id="clip0">
<rect width="14" height="14" fill="white" transform="translate(23 23)"/>
</clipPath>
</defs>
</svg>
