<svg width="60" height="60" viewBox="0 0 60 60" fill="none" xmlns="http://www.w3.org/2000/svg">
<path fill-rule="evenodd" clip-rule="evenodd" d="M42 1H18C8.61116 1 1 8.61116 1 18V42C1 51.3888 8.61116 59 18 59H42C51.3888 59 59 51.3888 59 42V18C59 8.61116 51.3888 1 42 1ZM18 0C8.05888 0 0 8.05888 0 18V42C0 51.9411 8.05888 60 18 60H42C51.9411 60 60 51.9411 60 42V18C60 8.05888 51.9411 0 42 0H18Z" fill="#A7A9CC"/>
<g clip-path="url(#clip0)">
<path d="M38.9999 20.9846H29.3149C29.75 21.8956 29.9999 22.9096 29.9999 23.9846C29.9999 25.0596 29.75 26.0735 29.3149 26.9846H38.9999C39.804 26.9846 40.5589 26.6735 41.124 26.1086C41.689 25.5436 41.9999 24.7886 41.9999 23.9846C41.9999 22.3306 40.6539 20.9846 38.9999 20.9846Z" fill="#4F55D1"/>
<path d="M27.9999 23.9837C27.9999 26.7451 25.7615 28.9836 23.0001 28.9836C20.2386 28.9836 18 26.7451 18 23.9837C18 21.2223 20.2386 18.9836 23.0001 18.9836C25.7615 18.9836 27.9999 21.2223 27.9999 23.9837Z" fill="#4F55D1"/>
<path d="M30 35.9846C30 34.9096 30.2499 33.8956 30.685 32.9846H21C19.346 32.9846 18 34.3306 18 35.9846C18 36.7886 18.3109 37.5436 18.876 38.1086C19.441 38.6735 20.196 38.9846 21 38.9846H30.685C30.2499 38.0735 30 37.0596 30 35.9846Z" fill="#4F55D1"/>
<path d="M42.0002 35.9844C42.0002 38.7458 39.7615 40.9843 37.0001 40.9843C34.2387 40.9843 32.0002 38.7458 32.0002 35.9844C32.0002 33.223 34.2387 30.9844 37.0001 30.9844C39.7615 30.9844 42.0002 33.223 42.0002 35.9844Z" fill="#4F55D1"/>
</g>
<defs>
<clipPath id="clip0">
<rect width="24" height="24" fill="white" transform="translate(18 18)"/>
</clipPath>
</defs>
</svg>
