<svg width="60" height="60" viewBox="0 0 60 60" fill="none" xmlns="http://www.w3.org/2000/svg">
<path fill-rule="evenodd" clip-rule="evenodd" d="M42 1H18C8.61116 1 1 8.61116 1 18V42C1 51.3888 8.61116 59 18 59H42C51.3888 59 59 51.3888 59 42V18C59 8.61116 51.3888 1 42 1ZM18 0C8.05888 0 0 8.05888 0 18V42C0 51.9411 8.05888 60 18 60H42C51.9411 60 60 51.9411 60 42V18C60 8.05888 51.9411 0 42 0H18Z" fill="#BBD5D3"/>
<path d="M41.8136 36.0094H40.9986V34.9802C40.9986 32.5436 39.0162 30.5613 36.5796 30.5613H31.0035V26.7554H33.4481C34.6537 26.7554 35.6345 25.7746 35.6345 24.569V19.2617C35.6345 18.0561 34.6537 17.0752 33.4481 17.0752H26.9169C25.7113 17.0752 24.7305 18.056 24.7305 19.2617V24.5689C24.7305 25.7745 25.7113 26.7554 26.9169 26.7554H29.3614V30.5613H23.4569C21.0202 30.5613 19.038 32.5436 19.038 34.9802V36.0093H18.1865C16.9808 36.0094 16 36.9902 16 38.1958V40.738C16 41.9436 16.9808 42.9244 18.1865 42.9244H21.5315C22.7371 42.9244 23.7179 41.9436 23.7179 40.738V38.1958C23.7179 36.9902 22.7371 36.0094 21.5315 36.0094H20.6801V34.9802C20.6801 33.4492 21.9257 32.2035 23.4568 32.2035H29.3614V36.0094H28.51C27.3043 36.0094 26.3235 36.9902 26.3235 38.1958V40.738C26.3235 41.9436 27.3043 42.9244 28.51 42.9244H31.855C33.0606 42.9244 34.0414 41.9436 34.0414 40.738V38.1958C34.0414 36.9902 33.0606 36.0094 31.855 36.0094H31.0035V32.2035H36.5797C38.1108 32.2035 39.3565 33.4492 39.3565 34.9802V36.0094H38.4685C37.2629 36.0094 36.2821 36.9902 36.2821 38.1958V40.738C36.2821 41.9436 37.2629 42.9244 38.4685 42.9244H41.8135C43.0192 42.9244 44 41.9436 44 40.738V38.1958C44.0001 36.9902 43.0192 36.0094 41.8136 36.0094Z" fill="#4AD1C9"/>
</svg>
